SreeKrushnadevaraya.ufo
<glyph name="exclam" format="1">
  <advance width="318"/>
  <unicode hex="0021"/>
  <outline>
    <contour>
      <point x="155" y="114" type="curve" smooth="yes" name="hr00"/>
      <point x="137" y="114"/>
      <point x="121" y="107"/>
      <point x="108" y="94" type="curve" smooth="yes"/>
      <point x="95" y="81"/>
      <point x="89" y="66"/>
      <point x="89" y="47" type="curve" smooth="yes"/>
      <point x="89" y="28"/>
      <point x="95" y="12"/>
      <point x="108" y="0" type="curve" smooth="yes"/>
      <point x="121" y="-13"/>
      <point x="137" y="-20"/>
      <point x="155" y="-20" type="curve" smooth="yes"/>
      <point x="173" y="-20"/>
      <point x="189" y="-13"/>
      <point x="202" y="0" type="curve" smooth="yes"/>
      <point x="214" y="12"/>
      <point x="220" y="28"/>
      <point x="220" y="47" type="curve" smooth="yes"/>
      <point x="220" y="66"/>
      <point x="214" y="81"/>
      <point x="202" y="94" type="curve" smooth="yes"/>
      <point x="189" y="107"/>
      <point x="173" y="114"/>
    </contour>
    <contour>
      <point x="172" y="195" type="line" smooth="yes"/>
      <point x="172" y="278"/>
      <point x="182" y="377"/>
      <point x="202" y="492" type="curve" smooth="yes"/>
      <point x="212" y="550"/>
      <point x="219" y="595"/>
      <point x="223" y="627" type="curve"/>
      <point x="223" y="658"/>
      <point x="217" y="681"/>
      <point x="206" y="698" type="curve" smooth="yes"/>
      <point x="195" y="716"/>
      <point x="178" y="725"/>
      <point x="155" y="725" type="curve" smooth="yes"/>
      <point x="132" y="725"/>
      <point x="114" y="718"/>
      <point x="102" y="703" type="curve" smooth="yes"/>
      <point x="90" y="688"/>
      <point x="83" y="667"/>
      <point x="85" y="641" type="curve" smooth="yes"/>
      <point x="86" y="624" type="line" smooth="yes"/>
      <point x="88" y="598"/>
      <point x="96" y="556"/>
      <point x="105" y="499" type="curve" smooth="yes"/>
      <point x="126" y="373"/>
      <point x="136" y="265"/>
      <point x="136" y="174" type="curve"/>
      <point x="172" y="174" type="line"/>
    </contour>
  </outline>
</glyph>
<glyph name="percent" format="1">
  <advance width="466"/>
  <unicode hex="0025"/>
  <outline>
    <contour>
      <point x="442" y="88" type="curve" smooth="yes" name="hr00"/>
      <point x="442" y="117"/>
      <point x="431" y="142"/>
      <point x="410" y="164" type="curve" smooth="yes"/>
      <point x="389" y="187"/>
      <point x="363" y="198"/>
      <point x="332" y="198" type="curve" smooth="yes"/>
      <point x="305" y="198"/>
      <point x="280" y="186"/>
      <point x="259" y="162" type="curve" smooth="yes"/>
      <point x="238" y="139"/>
      <point x="228" y="112"/>
      <point x="228" y="82" type="curve" smooth="yes"/>
      <point x="228" y="56"/>
      <point x="239" y="32"/>
      <point x="260" y="11" type="curve" smooth="yes"/>
      <point x="281" y="-10"/>
      <point x="305" y="-20"/>
      <point x="332" y="-20" type="curve" smooth="yes"/>
      <point x="359" y="-20"/>
      <point x="384" y="-10"/>
      <point x="407" y="11" type="curve" smooth="yes"/>
      <point x="430" y="32"/>
      <point x="442" y="58"/>
    </contour>
    <contour>
      <point x="335" y="522" type="line"/>
      <point x="-5" y="-18" type="line"/>
      <point x="99" y="-18" type="line"/>
      <point x="447" y="522" type="line"/>
    </contour>
    <contour>
      <point x="215" y="428" type="curve" smooth="yes"/>
      <point x="215" y="489"/>
      <point x="168" y="535"/>
      <point x="107" y="535" type="curve" smooth="yes"/>
      <point x="82" y="535"/>
      <point x="59" y="524"/>
      <point x="37" y="502" type="curve" smooth="yes"/>
      <point x="16" y="480"/>
      <point x="5" y="455"/>
      <point x="5" y="428" type="curve" smooth="yes"/>
      <point x="5" y="364"/>
      <point x="44" y="323"/>
      <point x="107" y="323" type="curve" smooth="yes"/>
      <point x="136" y="323"/>
      <point x="162" y="334"/>
      <point x="183" y="355" type="curve" smooth="yes"/>
      <point x="204" y="376"/>
      <point x="215" y="401"/>
    </contour>
  </outline>
</glyph>
<glyph name="ampersand" format="1">
  <advance width="617"/>
  <unicode hex="0026"/>
  <outline>
    <contour>
      <point x="353" y="135" type="line" name="hr00"/>
      <point x="322" y="123"/>
      <point x="291" y="117"/>
      <point x="262" y="117" type="curve" smooth="yes"/>
      <point x="236" y="117"/>
      <point x="213" y="124"/>
      <point x="193" y="138" type="curve" smooth="yes"/>
      <point x="172" y="153"/>
      <point x="161" y="171"/>
      <point x="161" y="192" type="curve" smooth="yes"/>
      <point x="161" y="217"/>
      <point x="177" y="236"/>
      <point x="209" y="250" type="curve"/>
    </contour>
    <contour>
      <point x="282" y="380" type="curve" smooth="yes"/>
      <point x="282" y="347"/>
      <point x="259" y="327"/>
      <point x="213" y="320" type="curve"/>
      <point x="190" y="342"/>
      <point x="179" y="360"/>
      <point x="179" y="373" type="curve" smooth="yes"/>
      <point x="179" y="402"/>
      <point x="207" y="422"/>
      <point x="242" y="422" type="curve" smooth="yes"/>
      <point x="265" y="422"/>
      <point x="282" y="400"/>
    </contour>
    <contour>
      <point x="472" y="119" type="line"/>
      <point x="485" y="152"/>
      <point x="492" y="181"/>
      <point x="492" y="208" type="curve" smooth="yes"/>
      <point x="492" y="234"/>
      <point x="489" y="257"/>
      <point x="484" y="277" type="curve"/>
      <point x="418" y="277" type="line"/>
      <point x="420" y="268"/>
      <point x="421" y="256"/>
      <point x="421" y="242" type="curve" smooth="yes"/>
      <point x="421" y="227"/>
      <point x="412" y="204"/>
      <point x="394" y="175" type="curve"/>
      <point x="266" y="273" type="line"/>
      <point x="337" y="314"/>
      <point x="363" y="345"/>
      <point x="363" y="410" type="curve" smooth="yes"/>
      <point x="363" y="443"/>
      <point x="350" y="470"/>
      <point x="323" y="492" type="curve" smooth="yes"/>
      <point x="296" y="515"/>
      <point x="265" y="526"/>
      <point x="230" y="526" type="curve" smooth="yes"/>
      <point x="191" y="526"/>
      <point x="158" y="516"/>
      <point x="131" y="496" type="curve" smooth="yes"/>
      <point x="102" y="473"/>
      <point x="87" y="443"/>
      <point x="87" y="405" type="curve" smooth="yes"/>
      <point x="87" y="372"/>
      <point x="104" y="337"/>
      <point x="138" y="300" type="curve"/>
      <point x="46" y="273"/>
      <point x="0" y="223"/>
      <point x="0" y="149" type="curve" smooth="yes"/>
      <point x="0" y="98"/>
      <point x="25" y="58"/>
      <point x="74" y="26" type="curve" smooth="yes"/>
      <point x="117" y="-2"/>
      <point x="169" y="-17"/>
      <point x="228" y="-17" type="curve" smooth="yes"/>
      <point x="321" y="-17"/>
      <point x="392" y="11"/>
      <point x="441" y="68" type="curve"/>
      <point x="489" y="29"/>
      <point x="521" y="5"/>
      <point x="538" y="-4" type="curve"/>
      <point x="555" y="17"/>
      <point x="567" y="34"/>
      <point x="575" y="47" type="curve"/>
    </contour>
  </outline>
</glyph>
<glyph name="parenleft" format="1">
  <advance width="244"/>
  <unicode hex="0028"/>
  <outline>
    <contour>
      <point x="25" y="229" type="curve" smooth="yes" name="hr00"/>
      <point x="25" y="136"/>
      <point x="42" y="56"/>
      <point x="83" y="-10" type="curve" smooth="yes"/>
      <point x="123" y="-76"/>
      <point x="174" y="-108"/>
      <point x="230" y="-108" type="curve" smooth="yes"/>
      <point x="246" y="-108"/>
      <point x="257" y="-105"/>
      <point x="263" y="-100" type="curve" smooth="yes"/>
      <point x="268" y="-95"/>
      <point x="270" y="-89"/>
      <point x="270" y="-82" type="curve" smooth="yes"/>
      <point x="270" y="-79"/>
      <point x="268" y="-76"/>
      <point x="265" y="-74" type="curve"/>
      <point x="262" y="-69"/>
      <point x="259" y="-67"/>
      <point x="255" y="-67" type="curve" smooth="yes"/>
      <point x="218" y="-67"/>
      <point x="186" y="-39"/>
      <point x="159" y="18" type="curve" smooth="yes"/>
      <point x="131" y="76"/>
      <point x="117" y="146"/>
      <point x="117" y="229" type="curve" smooth="yes"/>
      <point x="117" y="310"/>
      <point x="130" y="379"/>
      <point x="156" y="435" type="curve" smooth="yes"/>
      <point x="183" y="493"/>
      <point x="214" y="522"/>
      <point x="250" y="522" type="curve" smooth="yes"/>
      <point x="255" y="522"/>
      <point x="259" y="523"/>
      <point x="261" y="526" type="curve" smooth="yes"/>
      <point x="264" y="530"/>
      <point x="265" y="536"/>
      <point x="265" y="545" type="curve" smooth="yes"/>
      <point x="265" y="556"/>
      <point x="261" y="564"/>
      <point x="254" y="569" type="curve" smooth="yes"/>
      <point x="248" y="573"/>
      <point x="240" y="575"/>
      <point x="230" y="575" type="curve" smooth="yes"/>
      <point x="174" y="575"/>
      <point x="125" y="541"/>
      <point x="83" y="472" type="curve" smooth="yes"/>
      <point x="44" y="406"/>
      <point x="25" y="325"/>
    </contour>
  </outline>
</glyph>
<glyph name="parenright" format="1">
  <advance width="243"/>
  <unicode hex="0029"/>
  <outline>
    <contour>
      <point x="220" y="229" type="curve" smooth="yes" name="hr00"/>
      <point x="220" y="325"/>
      <point x="200" y="406"/>
      <point x="160" y="472" type="curve" smooth="yes"/>
      <point x="119" y="541"/>
      <point x="71" y="575"/>
      <point x="15" y="575" type="curve" smooth="yes"/>
      <point x="4" y="575"/>
      <point x="-4" y="573"/>
      <point x="-9" y="569" type="curve" smooth="yes"/>
      <point x="-18" y="564"/>
      <point x="-22" y="556"/>
      <point x="-22" y="545" type="curve" smooth="yes"/>
      <point x="-22" y="536"/>
      <point x="-21" y="530"/>
      <point x="-18" y="526" type="curve" smooth="yes"/>
      <point x="-15" y="523"/>
      <point x="-12" y="522"/>
      <point x="-7" y="522" type="curve" smooth="yes"/>
      <point x="30" y="522"/>
      <point x="61" y="492"/>
      <point x="87" y="435" type="curve" smooth="yes"/>
      <point x="113" y="378"/>
      <point x="127" y="310"/>
      <point x="127" y="229" type="curve" smooth="yes"/>
      <point x="127" y="146"/>
      <point x="113" y="76"/>
      <point x="86" y="18" type="curve" smooth="yes"/>
      <point x="59" y="-39"/>
      <point x="27" y="-67"/>
      <point x="-11" y="-67" type="curve" smooth="yes"/>
      <point x="-16" y="-67"/>
      <point x="-19" y="-69"/>
      <point x="-22" y="-74" type="curve" smooth="yes"/>
      <point x="-24" y="-76"/>
      <point x="-25" y="-79"/>
      <point x="-25" y="-82" type="curve" smooth="yes"/>
      <point x="-25" y="-89"/>
      <point x="-23" y="-95"/>
      <point x="-19" y="-100" type="curve"/>
      <point x="-12" y="-105"/>
      <point x="-1" y="-108"/>
      <point x="15" y="-108" type="curve" smooth="yes"/>
      <point x="71" y="-108"/>
      <point x="120" y="-76"/>
      <point x="160" y="-10" type="curve" smooth="yes"/>
      <point x="201" y="57"/>
      <point x="220" y="136"/>
    </contour>
  </outline>
</glyph>
<glyph name="asterisk" format="1">
  <advance width="610"/>
  <unicode hex="002A"/>
  <outline>
    <contour>
      <point x="217" y="164" type="line" name="hr00"/>
      <point x="157" y="-6" type="line"/>
      <point x="313" y="101" type="line"/>
      <point x="470" y="-3" type="line"/>
      <point x="407" y="164" type="line"/>
      <point x="565" y="276" type="line"/>
      <point x="373" y="276" type="line"/>
      <point x="313" y="438" type="line"/>
      <point x="255" y="276" type="line"/>
      <point x="56" y="276" type="line"/>
    </contour>
  </outline>
</glyph>
<glyph name="plus" format="1">
  <advance width="605"/>
  <unicode hex="002B"/>
  <outline>
    <contour>
      <point x="542" y="228" type="line" name="hr00"/>
      <point x="542" y="299" type="line"/>
      <point x="338" y="299" type="line"/>
      <point x="338" y="501" type="line"/>
      <point x="265" y="501" type="line"/>
      <point x="265" y="299" type="line"/>
      <point x="64" y="299" type="line"/>
      <point x="64" y="228" type="line"/>
      <point x="265" y="228" type="line"/>
      <point x="265" y="24" type="line"/>
      <point x="338" y="24" type="line"/>
      <point x="338" y="228" type="line"/>
    </contour>
  </outline>
</glyph>
<glyph name="comma" format="1">
  <advance width="274"/>
  <unicode hex="002C"/>
  <outline>
    <contour>
      <point x="64" y="68" type="curve" smooth="yes" name="hr00"/>
      <point x="64" y="52"/>
      <point x="69" y="38"/>
      <point x="80" y="26" type="curve" smooth="yes"/>
      <point x="91" y="13"/>
      <point x="104" y="7"/>
      <point x="119" y="7" type="curve" smooth="yes"/>
      <point x="128" y="7"/>
      <point x="137" y="8"/>
      <point x="146" y="11" type="curve" smooth="yes"/>
      <point x="155" y="15"/>
      <point x="161" y="19"/>
      <point x="166" y="23" type="curve"/>
      <point x="166" y="6"/>
      <point x="159" y="-11"/>
      <point x="144" y="-28" type="curve" smooth="yes"/>
      <point x="129" y="-45"/>
      <point x="110" y="-57"/>
      <point x="87" y="-63" type="curve"/>
      <point x="100" y="-87" type="line"/>
      <point x="137" y="-80"/>
      <point x="166" y="-62"/>
      <point x="186" y="-33" type="curve" smooth="yes"/>
      <point x="202" y="-9"/>
      <point x="210" y="20"/>
      <point x="210" y="53" type="curve" smooth="yes"/>
      <point x="210" y="76"/>
      <point x="204" y="95"/>
      <point x="191" y="110" type="curve" smooth="yes"/>
      <point x="176" y="127"/>
      <point x="156" y="135"/>
      <point x="131" y="135" type="curve" smooth="yes"/>
      <point x="110" y="135"/>
      <point x="94" y="129"/>
      <point x="81" y="117" type="curve"/>
      <point x="70" y="104"/>
      <point x="64" y="88"/>
    </contour>
  </outline>
</glyph>
<glyph name="hyphen" format="1">
  <advance width="428"/>
  <unicode hex="002D"/>
  <outline>
    <contour>
      <point x="363" y="262" type="line" name="hr00"/>
      <point x="64" y="262" type="line"/>
      <point x="64" y="198" type="line"/>
      <point x="363" y="198" type="line"/>
    </contour>
  </outline>
</glyph>
<glyph name="period" format="1">
  <advance width="256"/>
  <unicode hex="002E"/>
  <outline>
    <contour>
      <point x="64" y="57" type="curve" smooth="yes" name="hr00"/>
      <point x="64" y="40"/>
      <point x="70" y="25"/>
      <point x="82" y="13" type="curve" smooth="yes"/>
      <point x="94" y="0"/>
      <point x="109" y="-6"/>
      <point x="127" y="-6" type="curve" smooth="yes"/>
      <point x="145" y="-6"/>
      <point x="159" y="0"/>
      <point x="172" y="13" type="curve" smooth="yes"/>
      <point x="185" y="26"/>
      <point x="191" y="40"/>
      <point x="191" y="57" type="curve" smooth="yes"/>
      <point x="191" y="75"/>
      <point x="185" y="91"/>
      <point x="172" y="104" type="curve" smooth="yes"/>
      <point x="160" y="116"/>
      <point x="145" y="122"/>
      <point x="127" y="122" type="curve" smooth="yes"/>
      <point x="109" y="122"/>
      <point x="94" y="116"/>
      <point x="82" y="104" type="curve" smooth="yes"/>
      <point x="70" y="91"/>
      <point x="64" y="75"/>
    </contour>
  </outline>
</glyph>
<glyph name="slash" format="1">
  <advance width="450"/>
  <unicode hex="002F"/>
  <outline>
    <contour>
      <point x="331" y="610" type="line" name="hr00"/>
      <point x="64" y="-122" type="line"/>
      <point x="117" y="-122" type="line"/>
      <point x="387" y="610" type="line"/>
    </contour>
  </outline>
</glyph>
<glyph name="zero" format="1">
  <advance width="489"/>
  <unicode hex="0030"/>
  <outline>
    <contour>
      <point x="472" y="247" type="curve" smooth="yes" name="hr00"/>
      <point x="472" y="322"/>
      <point x="452" y="385"/>
      <point x="412" y="435" type="curve" smooth="yes"/>
      <point x="371" y="487"/>
      <point x="318" y="513"/>
      <point x="252" y="513" type="curve" smooth="yes"/>
      <point x="179" y="513"/>
      <point x="120" y="487"/>
      <point x="77" y="435" type="curve" smooth="yes"/>
      <point x="37" y="387"/>
      <point x="17" y="324"/>
      <point x="17" y="247" type="curve" smooth="yes"/>
      <point x="17" y="177"/>
      <point x="37" y="118"/>
      <point x="77" y="71" type="curve" smooth="yes"/>
      <point x="120" y="19"/>
      <point x="179" y="-7"/>
      <point x="252" y="-7" type="curve" smooth="yes"/>
      <point x="317" y="-7"/>
      <point x="371" y="19"/>
      <point x="412" y="71" type="curve" smooth="yes"/>
      <point x="452" y="120"/>
      <point x="472" y="179"/>
    </contour>
    <contour>
      <point x="400" y="300" type="curve" smooth="yes"/>
      <point x="400" y="257"/>
      <point x="387" y="218"/>
      <point x="361" y="183" type="curve" smooth="yes"/>
      <point x="333" y="146"/>
      <point x="297" y="127"/>
      <point x="252" y="127" type="curve" smooth="yes"/>
      <point x="199" y="127"/>
      <point x="157" y="146"/>
      <point x="131" y="183" type="curve" smooth="yes"/>
      <point x="109" y="214"/>
      <point x="99" y="253"/>
      <point x="99" y="300" type="curve" smooth="yes"/>
      <point x="99" y="344"/>
      <point x="112" y="380"/>
      <point x="138" y="407" type="curve" smooth="yes"/>
      <point x="167" y="436"/>
      <point x="205" y="451"/>
      <point x="252" y="451" type="curve" smooth="yes"/>
      <point x="293" y="451"/>
      <point x="326" y="436"/>
      <point x="355" y="407" type="curve" smooth="yes"/>
      <point x="385" y="377"/>
      <point x="400" y="342"/>
    </contour>
  </outline>
</glyph>
<glyph name="one" format="1">
  <advance width="418"/>
  <unicode hex="0031"/>
  <outline>
    <contour>
      <point x="252" y="445" type="line" smooth="yes" name="hr00"/>
      <point x="252" y="467"/>
      <point x="248" y="483"/>
      <point x="240" y="494" type="curve" smooth="yes"/>
      <point x="231" y="507"/>
      <point x="220" y="513"/>
      <point x="206" y="513" type="curve" smooth="yes"/>
      <point x="197" y="513"/>
      <point x="189" y="509"/>
      <point x="182" y="501" type="curve"/>
      <point x="173" y="493"/>
      <point x="169" y="483"/>
      <point x="168" y="472" type="curve"/>
      <point x="165" y="456"/>
      <point x="155" y="442"/>
      <point x="138" y="431" type="curve" smooth="yes"/>
      <point x="121" y="420"/>
      <point x="100" y="415"/>
      <point x="77" y="415" type="curve" smooth="yes"/>
      <point x="68" y="415"/>
      <point x="59" y="412"/>
      <point x="50" y="407" type="curve"/>
      <point x="43" y="401"/>
      <point x="40" y="394"/>
      <point x="40" y="385" type="curve" smooth="yes"/>
      <point x="40" y="376"/>
      <point x="43" y="369"/>
      <point x="50" y="364" type="curve" smooth="yes"/>
      <point x="57" y="359"/>
      <point x="64" y="357"/>
      <point x="72" y="357" type="curve" smooth="yes"/>
      <point x="149" y="357" type="line" smooth="yes"/>
      <point x="155" y="357"/>
      <point x="159" y="356"/>
      <point x="162" y="353" type="curve" smooth="yes"/>
      <point x="166" y="349"/>
      <point x="168" y="342"/>
      <point x="168" y="333" type="curve" smooth="yes"/>
      <point x="168" y="98" type="line"/>
      <point x="64" y="98" type="line" smooth="yes"/>
      <point x="51" y="98"/>
      <point x="40" y="93"/>
      <point x="31" y="84" type="curve" smooth="yes"/>
      <point x="22" y="75"/>
      <point x="17" y="63"/>
      <point x="17" y="50" type="curve" smooth="yes"/>
      <point x="17" y="37"/>
      <point x="22" y="25"/>
      <point x="31" y="14" type="curve" smooth="yes"/>
      <point x="40" y="5"/>
      <point x="51" y="0"/>
      <point x="64" y="0" type="curve" smooth="yes"/>
      <point x="353" y="0" type="line" smooth="yes"/>
      <point x="366" y="0"/>
      <point x="378" y="5"/>
      <point x="387" y="14" type="curve" smooth="yes"/>
      <point x="397" y="25"/>
      <point x="402" y="37"/>
      <point x="402" y="50" type="curve" smooth="yes"/>
      <point x="402" y="63"/>
      <point x="397" y="75"/>
      <point x="387" y="84" type="curve" smooth="yes"/>
      <point x="378" y="93"/>
      <point x="368" y="98"/>
      <point x="355" y="98" type="curve" smooth="yes"/>
      <point x="252" y="98" type="line"/>
    </contour>
  </outline>
</glyph>
<glyph name="two" format="1">
  <advance width="531"/>
  <unicode hex="0032"/>
  <outline>
    <contour>
      <point x="515" y="115" type="curve" smooth="yes" name="hr00"/>
      <point x="515" y="131"/>
      <point x="511" y="148"/>
      <point x="503" y="165" type="curve" smooth="yes"/>
      <point x="496" y="180"/>
      <point x="489" y="188"/>
      <point x="482" y="188" type="curve" smooth="yes"/>
      <point x="473" y="188"/>
      <point x="467" y="181"/>
      <point x="465" y="168" type="curve"/>
      <point x="465" y="159"/>
      <point x="464" y="153"/>
      <point x="462" y="148" type="curve" smooth="yes"/>
      <point x="457" y="134"/>
      <point x="447" y="123"/>
      <point x="431" y="115" type="curve" smooth="yes"/>
      <point x="418" y="108"/>
      <point x="404" y="105"/>
      <point x="387" y="105" type="curve" smooth="yes"/>
      <point x="362" y="105"/>
      <point x="332" y="114"/>
      <point x="297" y="131" type="curve" smooth="yes"/>
      <point x="260" y="148"/>
      <point x="229" y="156"/>
      <point x="202" y="156" type="curve" smooth="yes"/>
      <point x="177" y="156"/>
      <point x="157" y="152"/>
      <point x="142" y="146" type="curve" smooth="yes"/>
      <point x="123" y="138"/>
      <point x="103" y="123"/>
      <point x="80" y="100" type="curve"/>
      <point x="78" y="108" type="line"/>
      <point x="78" y="139"/>
      <point x="91" y="167"/>
      <point x="117" y="192" type="curve" smooth="yes"/>
      <point x="143" y="217"/>
      <point x="176" y="229"/>
      <point x="215" y="229" type="curve" smooth="yes"/>
      <point x="223" y="229"/>
      <point x="237" y="228"/>
      <point x="257" y="226" type="curve" smooth="yes"/>
      <point x="278" y="224"/>
      <point x="294" y="223"/>
      <point x="304" y="223" type="curve" smooth="yes"/>
      <point x="357" y="223"/>
      <point x="399" y="234"/>
      <point x="432" y="255" type="curve" smooth="yes"/>
      <point x="469" y="278"/>
      <point x="488" y="310"/>
      <point x="488" y="351" type="curve" smooth="yes"/>
      <point x="488" y="406"/>
      <point x="465" y="448"/>
      <point x="418" y="476" type="curve" smooth="yes"/>
      <point x="378" y="501"/>
      <point x="325" y="513"/>
      <point x="260" y="513" type="curve" smooth="yes"/>
      <point x="201" y="513"/>
      <point x="151" y="499"/>
      <point x="109" y="472" type="curve" smooth="yes"/>
      <point x="70" y="447"/>
      <point x="50" y="418"/>
      <point x="50" y="385" type="curve" smooth="yes"/>
      <point x="50" y="366"/>
      <point x="55" y="350"/>
      <point x="65" y="338" type="curve" smooth="yes"/>
      <point x="75" y="327"/>
      <point x="88" y="321"/>
      <point x="104" y="321" type="curve" smooth="yes"/>
      <point x="134" y="321"/>
      <point x="153" y="340"/>
      <point x="161" y="378" type="curve" smooth="yes"/>
      <point x="172" y="435"/>
      <point x="212" y="464"/>
      <point x="280" y="464" type="curve" smooth="yes"/>
      <point x="311" y="464"/>
      <point x="338" y="457"/>
      <point x="361" y="442" type="curve"/>
      <point x="390" y="427"/>
      <point x="404" y="407"/>
      <point x="404" y="381" type="curve" smooth="yes"/>
      <point x="404" y="344"/>
      <point x="382" y="320"/>
      <point x="338" y="306" type="curve" smooth="yes"/>
      <point x="313" y="298"/>
      <point x="278" y="293"/>
      <point x="233" y="293" type="curve" smooth="yes"/>
      <point x="170" y="293"/>
      <point x="119" y="277"/>
      <point x="80" y="246" type="curve" smooth="yes"/>
      <point x="38" y="212"/>
      <point x="17" y="167"/>
      <point x="17" y="110" type="curve" smooth="yes"/>
      <point x="17" y="84"/>
      <point x="19" y="63"/>
      <point x="24" y="47" type="curve" smooth="yes"/>
      <point x="31" y="27"/>
      <point x="42" y="10"/>
      <point x="57" y="-4" type="curve"/>
      <point x="64" y="-4"/>
      <point x="69" y="5"/>
      <point x="75" y="23" type="curve" smooth="yes"/>
      <point x="87" y="62"/>
      <point x="113" y="82"/>
      <point x="149" y="82" type="curve" smooth="yes"/>
      <point x="191" y="82"/>
      <point x="232" y="68"/>
      <point x="270" y="36" type="curve" smooth="yes"/>
      <point x="305" y="8"/>
      <point x="337" y="-7"/>
      <point x="368" y="-7" type="curve" smooth="yes"/>
      <point x="417" y="-7"/>
      <point x="454" y="6"/>
      <point x="481" y="33" type="curve" smooth="yes"/>
      <point x="504" y="56"/>
      <point x="515" y="83"/>
    </contour>
  </outline>
</glyph>
<glyph name="three" format="1">
  <advance width="489"/>
  <unicode hex="0033"/>
  <outline>
    <contour>
      <point x="247" y="43" type="curve" smooth="yes" name="hr00"/>
      <point x="178" y="43"/>
      <point x="138" y="71"/>
      <point x="127" y="128" type="curve" smooth="yes"/>
      <point x="119" y="166"/>
      <point x="100" y="185"/>
      <point x="70" y="185" type="curve" smooth="yes"/>
      <point x="53" y="185"/>
      <point x="40" y="179"/>
      <point x="31" y="168" type="curve" smooth="yes"/>
      <point x="22" y="155"/>
      <point x="17" y="139"/>
      <point x="17" y="121" type="curve" smooth="yes"/>
      <point x="17" y="88"/>
      <point x="37" y="58"/>
      <point x="77" y="33" type="curve" smooth="yes"/>
      <point x="118" y="6"/>
      <point x="168" y="-7"/>
      <point x="227" y="-7" type="curve" smooth="yes"/>
      <point x="290" y="-7"/>
      <point x="344" y="7"/>
      <point x="391" y="36" type="curve" smooth="yes"/>
      <point x="445" y="69"/>
      <point x="472" y="113"/>
      <point x="472" y="168" type="curve" smooth="yes"/>
      <point x="472" y="202"/>
      <point x="463" y="229"/>
      <point x="445" y="250" type="curve" smooth="yes"/>
      <point x="429" y="267"/>
      <point x="409" y="278"/>
      <point x="385" y="283" type="curve"/>
      <point x="403" y="292"/>
      <point x="417" y="304"/>
      <point x="428" y="319" type="curve" smooth="yes"/>
      <point x="441" y="336"/>
      <point x="447" y="357"/>
      <point x="447" y="383" type="curve" smooth="yes"/>
      <point x="447" y="428"/>
      <point x="427" y="462"/>
      <point x="388" y="484" type="curve" smooth="yes"/>
      <point x="353" y="503"/>
      <point x="302" y="513"/>
      <point x="233" y="513" type="curve" smooth="yes"/>
      <point x="174" y="513"/>
      <point x="124" y="499"/>
      <point x="82" y="472" type="curve" smooth="yes"/>
      <point x="43" y="447"/>
      <point x="24" y="418"/>
      <point x="24" y="385" type="curve" smooth="yes"/>
      <point x="24" y="366"/>
      <point x="28" y="351"/>
      <point x="37" y="338" type="curve"/>
      <point x="48" y="327"/>
      <point x="61" y="321"/>
      <point x="77" y="321" type="curve" smooth="yes"/>
      <point x="107" y="321"/>
      <point x="126" y="341"/>
      <point x="135" y="381" type="curve" smooth="yes"/>
      <point x="146" y="435"/>
      <point x="181" y="462"/>
      <point x="240" y="462" type="curve" smooth="yes"/>
      <point x="275" y="462"/>
      <point x="302" y="457"/>
      <point x="321" y="448" type="curve" smooth="yes"/>
      <point x="348" y="435"/>
      <point x="361" y="411"/>
      <point x="361" y="378" type="curve" smooth="yes"/>
      <point x="361" y="350"/>
      <point x="347" y="330"/>
      <point x="319" y="316" type="curve" smooth="yes"/>
      <point x="299" y="306"/>
      <point x="276" y="300"/>
      <point x="250" y="300" type="curve" smooth="yes"/>
      <point x="240" y="300"/>
      <point x="232" y="299"/>
      <point x="225" y="296" type="curve" smooth="yes"/>
      <point x="218" y="292"/>
      <point x="215" y="286"/>
      <point x="215" y="277" type="curve" smooth="yes"/>
      <point x="215" y="270"/>
      <point x="218" y="265"/>
      <point x="225" y="262" type="curve" smooth="yes"/>
      <point x="230" y="260"/>
      <point x="239" y="259"/>
      <point x="250" y="259" type="curve" smooth="yes"/>
      <point x="283" y="259"/>
      <point x="310" y="251"/>
      <point x="331" y="235" type="curve" smooth="yes"/>
      <point x="356" y="217"/>
      <point x="368" y="190"/>
      <point x="368" y="155" type="curve" smooth="yes"/>
      <point x="368" y="121"/>
      <point x="353" y="92"/>
      <point x="324" y="70" type="curve" smooth="yes"/>
      <point x="299" y="51"/>
      <point x="274" y="43"/>
    </contour>
  </outline>
</glyph>
<glyph name="four" format="1">
  <advance width="527"/>
  <unicode hex="0034"/>
  <outline>
    <contour>
      <point x="108" y="210" type="line" name="hr00"/>
      <point x="293" y="445" type="line"/>
      <point x="293" y="210" type="line"/>
    </contour>
    <contour>
      <point x="511" y="176" type="curve" smooth="yes"/>
      <point x="511" y="187"/>
      <point x="507" y="196"/>
      <point x="498" y="202" type="curve" smooth="yes"/>
      <point x="491" y="207"/>
      <point x="481" y="210"/>
      <point x="468" y="210" type="curve" smooth="yes"/>
      <point x="407" y="210" type="line"/>
      <point x="407" y="428" type="line" smooth="yes"/>
      <point x="407" y="453"/>
      <point x="403" y="472"/>
      <point x="395" y="485" type="curve" smooth="yes"/>
      <point x="387" y="499"/>
      <point x="374" y="506"/>
      <point x="357" y="506" type="curve" smooth="yes"/>
      <point x="270" y="506" type="line"/>
      <point x="272" y="511"/>
      <point x="267" y="508"/>
      <point x="255" y="498" type="curve" smooth="yes"/>
      <point x="243" y="487"/>
      <point x="231" y="473"/>
      <point x="218" y="457" type="curve" smooth="yes"/>
      <point x="31" y="215" type="line"/>
      <point x="26" y="210"/>
      <point x="23" y="205"/>
      <point x="21" y="198" type="curve" smooth="yes"/>
      <point x="18" y="190"/>
      <point x="17" y="182"/>
      <point x="17" y="175" type="curve" smooth="yes"/>
      <point x="17" y="164"/>
      <point x="20" y="155"/>
      <point x="27" y="148" type="curve"/>
      <point x="32" y="141"/>
      <point x="38" y="138"/>
      <point x="47" y="138" type="curve" smooth="yes"/>
      <point x="293" y="138" type="line"/>
      <point x="293" y="46" type="line" smooth="yes"/>
      <point x="293" y="31"/>
      <point x="299" y="19"/>
      <point x="310" y="10" type="curve"/>
      <point x="321" y="-1"/>
      <point x="335" y="-7"/>
      <point x="350" y="-7" type="curve" smooth="yes"/>
      <point x="365" y="-7"/>
      <point x="379" y="-1"/>
      <point x="390" y="10" type="curve"/>
      <point x="401" y="19"/>
      <point x="407" y="31"/>
      <point x="407" y="46" type="curve" smooth="yes"/>
      <point x="407" y="138" type="line"/>
      <point x="468" y="138" type="line" smooth="yes"/>
      <point x="481" y="138"/>
      <point x="491" y="141"/>
      <point x="498" y="148" type="curve" smooth="yes"/>
      <point x="507" y="155"/>
      <point x="511" y="165"/>
    </contour>
  </outline>
</glyph>
<glyph name="five" format="1">
  <advance width="487"/>
  <unicode hex="0035"/>
  <outline>
    <contour>
      <point x="230" y="43" type="curve" smooth="yes" name="hr00"/>
      <point x="191" y="43"/>
      <point x="163" y="50"/>
      <point x="145" y="65" type="curve" smooth="yes"/>
      <point x="134" y="75"/>
      <point x="126" y="91"/>
      <point x="122" y="112" type="curve"/>
      <point x="122" y="127" type="line" smooth="yes"/>
      <point x="122" y="166"/>
      <point x="102" y="185"/>
      <point x="71" y="185" type="curve" smooth="yes"/>
      <point x="56" y="185"/>
      <point x="43" y="179"/>
      <point x="34" y="168" type="curve" smooth="yes"/>
      <point x="25" y="155"/>
      <point x="20" y="139"/>
      <point x="20" y="122" type="curve" smooth="yes"/>
      <point x="20" y="88"/>
      <point x="39" y="58"/>
      <point x="78" y="33" type="curve" smooth="yes"/>
      <point x="119" y="6"/>
      <point x="168" y="-7"/>
      <point x="225" y="-7" type="curve" smooth="yes"/>
      <point x="295" y="-7"/>
      <point x="352" y="12"/>
      <point x="398" y="47" type="curve" smooth="yes"/>
      <point x="446" y="85"/>
      <point x="471" y="133"/>
      <point x="471" y="195" type="curve" smooth="yes"/>
      <point x="471" y="252"/>
      <point x="453" y="300"/>
      <point x="415" y="336" type="curve" smooth="yes"/>
      <point x="378" y="372"/>
      <point x="330" y="388"/>
      <point x="270" y="388" type="curve" smooth="yes"/>
      <point x="220" y="388"/>
      <point x="174" y="381"/>
      <point x="131" y="366" type="curve"/>
      <point x="131" y="437" type="line"/>
      <point x="400" y="437" type="line" smooth="yes"/>
      <point x="414" y="437"/>
      <point x="425" y="441"/>
      <point x="434" y="449" type="curve" smooth="yes"/>
      <point x="443" y="458"/>
      <point x="448" y="469"/>
      <point x="448" y="484" type="curve" smooth="yes"/>
      <point x="448" y="491"/>
      <point x="446" y="497"/>
      <point x="442" y="503" type="curve"/>
      <point x="439" y="510"/>
      <point x="434" y="513"/>
      <point x="428" y="513" type="curve" smooth="yes"/>
      <point x="422" y="513"/>
      <point x="414" y="512"/>
      <point x="405" y="509" type="curve" smooth="yes"/>
      <point x="398" y="507"/>
      <point x="393" y="506"/>
      <point x="388" y="506" type="curve" smooth="yes"/>
      <point x="53" y="506" type="line" smooth="yes"/>
      <point x="38" y="506"/>
      <point x="28" y="504"/>
      <point x="24" y="501" type="curve" smooth="yes"/>
      <point x="19" y="496"/>
      <point x="17" y="485"/>
      <point x="17" y="468" type="curve" smooth="yes"/>
      <point x="17" y="302" type="line" smooth="yes"/>
      <point x="17" y="282"/>
      <point x="22" y="266"/>
      <point x="31" y="253" type="curve" smooth="yes"/>
      <point x="42" y="239"/>
      <point x="57" y="232"/>
      <point x="74" y="232" type="curve" smooth="yes"/>
      <point x="97" y="232"/>
      <point x="111" y="234"/>
      <point x="118" y="238" type="curve" smooth="yes"/>
      <point x="125" y="243"/>
      <point x="129" y="255"/>
      <point x="129" y="273" type="curve" smooth="yes"/>
      <point x="129" y="291"/>
      <point x="139" y="308"/>
      <point x="158" y="320" type="curve" smooth="yes"/>
      <point x="178" y="333"/>
      <point x="202" y="338"/>
      <point x="229" y="338" type="curve" smooth="yes"/>
      <point x="272" y="338"/>
      <point x="305" y="329"/>
      <point x="327" y="309" type="curve" smooth="yes"/>
      <point x="353" y="286"/>
      <point x="365" y="248"/>
      <point x="365" y="198" type="curve" smooth="yes"/>
      <point x="365" y="152"/>
      <point x="349" y="113"/>
      <point x="317" y="82" type="curve" smooth="yes"/>
      <point x="290" y="56"/>
      <point x="261" y="43"/>
    </contour>
  </outline>
</glyph>
<glyph name="six" format="1">
  <advance width="483"/>
  <unicode hex="0036"/>
  <outline>
    <contour>
      <point x="252" y="513" type="curve" smooth="yes" name="hr00"/>
      <point x="176" y="513"/>
      <point x="117" y="486"/>
      <point x="74" y="432" type="curve" smooth="yes"/>
      <point x="36" y="383"/>
      <point x="17" y="319"/>
      <point x="17" y="242" type="curve" smooth="yes"/>
      <point x="17" y="167"/>
      <point x="39" y="106"/>
      <point x="82" y="61" type="curve" smooth="yes"/>
      <point x="125" y="16"/>
      <point x="179" y="-7"/>
      <point x="245" y="-7" type="curve" smooth="yes"/>
      <point x="306" y="-7"/>
      <point x="358" y="11"/>
      <point x="400" y="46" type="curve" smooth="yes"/>
      <point x="445" y="83"/>
      <point x="468" y="134"/>
      <point x="468" y="198" type="curve" smooth="yes"/>
      <point x="468" y="253"/>
      <point x="447" y="295"/>
      <point x="404" y="326" type="curve" smooth="yes"/>
      <point x="366" y="353"/>
      <point x="320" y="366"/>
      <point x="266" y="366" type="curve" smooth="yes"/>
      <point x="233" y="366"/>
      <point x="201" y="360"/>
      <point x="172" y="347" type="curve" smooth="yes"/>
      <point x="134" y="331"/>
      <point x="109" y="306"/>
      <point x="97" y="273" type="curve"/>
      <point x="95" y="282"/>
      <point x="94" y="289"/>
      <point x="94" y="296" type="curve" smooth="yes"/>
      <point x="94" y="337"/>
      <point x="107" y="374"/>
      <point x="134" y="407" type="curve" smooth="yes"/>
      <point x="164" y="444"/>
      <point x="202" y="462"/>
      <point x="247" y="462" type="curve" smooth="yes"/>
      <point x="288" y="462"/>
      <point x="319" y="446"/>
      <point x="340" y="414" type="curve" smooth="yes"/>
      <point x="356" y="389"/>
      <point x="376" y="377"/>
      <point x="400" y="377" type="curve" smooth="yes"/>
      <point x="414" y="377"/>
      <point x="425" y="381"/>
      <point x="432" y="390" type="curve"/>
      <point x="441" y="398"/>
      <point x="445" y="409"/>
      <point x="445" y="422" type="curve" smooth="yes"/>
      <point x="445" y="446"/>
      <point x="426" y="466"/>
      <point x="387" y="485" type="curve" smooth="yes"/>
      <point x="349" y="503"/>
      <point x="304" y="513"/>
    </contour>
    <contour>
      <point x="373" y="206" type="curve" smooth="yes"/>
      <point x="373" y="176"/>
      <point x="361" y="152"/>
      <point x="336" y="134" type="curve" smooth="yes"/>
      <point x="314" y="117"/>
      <point x="289" y="108"/>
      <point x="262" y="108" type="curve" smooth="yes"/>
      <point x="229" y="108"/>
      <point x="202" y="113"/>
      <point x="182" y="122" type="curve" smooth="yes"/>
      <point x="145" y="137"/>
      <point x="127" y="164"/>
      <point x="127" y="203" type="curve" smooth="yes"/>
      <point x="127" y="232"/>
      <point x="141" y="257"/>
      <point x="168" y="277" type="curve" smooth="yes"/>
      <point x="195" y="297"/>
      <point x="227" y="307"/>
      <point x="264" y="307" type="curve" smooth="yes"/>
      <point x="293" y="307"/>
      <point x="317" y="299"/>
      <point x="337" y="283" type="curve" smooth="yes"/>
      <point x="361" y="265"/>
      <point x="373" y="239"/>
    </contour>
  </outline>
</glyph>
<glyph name="seven" format="1">
  <advance width="482"/>
  <unicode hex="0037"/>
  <outline>
    <contour>
      <point x="465" y="485" type="curve" smooth="yes" name="hr00"/>
      <point x="465" y="492"/>
      <point x="462" y="498"/>
      <point x="455" y="501" type="curve" smooth="yes"/>
      <point x="450" y="504"/>
      <point x="445" y="506"/>
      <point x="438" y="506" type="curve" smooth="yes"/>
      <point x="57" y="506" type="line" smooth="yes"/>
      <point x="44" y="506"/>
      <point x="35" y="505"/>
      <point x="30" y="502" type="curve" smooth="yes"/>
      <point x="21" y="498"/>
      <point x="17" y="489"/>
      <point x="17" y="475" type="curve" smooth="yes"/>
      <point x="17" y="461"/>
      <point x="21" y="452"/>
      <point x="28" y="448" type="curve" smooth="yes"/>
      <point x="34" y="444"/>
      <point x="44" y="442"/>
      <point x="57" y="442" type="curve" smooth="yes"/>
      <point x="303" y="442" type="line"/>
      <point x="248" y="419"/>
      <point x="201" y="378"/>
      <point x="163" y="319" type="curve" smooth="yes"/>
      <point x="126" y="262"/>
      <point x="108" y="205"/>
      <point x="108" y="148" type="curve" smooth="yes"/>
      <point x="108" y="101"/>
      <point x="117" y="64"/>
      <point x="136" y="36" type="curve" smooth="yes"/>
      <point x="155" y="7"/>
      <point x="181" y="-7"/>
      <point x="212" y="-7" type="curve" smooth="yes"/>
      <point x="235" y="-7"/>
      <point x="258" y="-1"/>
      <point x="280" y="10" type="curve" smooth="yes"/>
      <point x="306" y="24"/>
      <point x="319" y="42"/>
      <point x="319" y="63" type="curve" smooth="yes"/>
      <point x="319" y="70"/>
      <point x="316" y="75"/>
      <point x="310" y="80" type="curve" smooth="yes"/>
      <point x="306" y="83"/>
      <point x="302" y="85"/>
      <point x="297" y="85" type="curve" smooth="yes"/>
      <point x="277" y="85"/>
      <point x="259" y="95"/>
      <point x="243" y="114" type="curve" smooth="yes"/>
      <point x="225" y="134"/>
      <point x="216" y="158"/>
      <point x="216" y="185" type="curve" smooth="yes"/>
      <point x="216" y="252"/>
      <point x="245" y="315"/>
      <point x="304" y="373" type="curve" smooth="yes"/>
      <point x="355" y="423"/>
      <point x="401" y="448"/>
      <point x="441" y="448" type="curve" smooth="yes"/>
      <point x="450" y="448"/>
      <point x="457" y="452"/>
      <point x="461" y="461" type="curve" smooth="yes"/>
      <point x="464" y="468"/>
      <point x="465" y="476"/>
    </contour>
  </outline>
</glyph>
<glyph name="eight" format="1">
  <advance width="475"/>
  <unicode hex="0038"/>
  <outline>
    <contour>
      <point x="340" y="394" type="curve" smooth="yes" name="hr00"/>
      <point x="340" y="372"/>
      <point x="330" y="355"/>
      <point x="310" y="343" type="curve" smooth="yes"/>
      <point x="293" y="332"/>
      <point x="269" y="326"/>
      <point x="240" y="326" type="curve" smooth="yes"/>
      <point x="213" y="326"/>
      <point x="191" y="330"/>
      <point x="172" y="341" type="curve" smooth="yes"/>
      <point x="150" y="354"/>
      <point x="139" y="372"/>
      <point x="139" y="394" type="curve" smooth="yes"/>
      <point x="139" y="412"/>
      <point x="149" y="428"/>
      <point x="168" y="441" type="curve" smooth="yes"/>
      <point x="188" y="454"/>
      <point x="211" y="461"/>
      <point x="237" y="461" type="curve" smooth="yes"/>
      <point x="266" y="461"/>
      <point x="290" y="454"/>
      <point x="310" y="441" type="curve" smooth="yes"/>
      <point x="330" y="428"/>
      <point x="340" y="412"/>
    </contour>
    <contour>
      <point x="458" y="171" type="curve" smooth="yes"/>
      <point x="458" y="200"/>
      <point x="448" y="229"/>
      <point x="428" y="256" type="curve" smooth="yes"/>
      <point x="405" y="287"/>
      <point x="379" y="304"/>
      <point x="350" y="307" type="curve"/>
      <point x="369" y="314"/>
      <point x="384" y="325"/>
      <point x="395" y="341" type="curve" smooth="yes"/>
      <point x="406" y="358"/>
      <point x="412" y="375"/>
      <point x="412" y="393" type="curve" smooth="yes"/>
      <point x="412" y="427"/>
      <point x="396" y="455"/>
      <point x="365" y="478" type="curve" smooth="yes"/>
      <point x="332" y="501"/>
      <point x="289" y="513"/>
      <point x="236" y="513" type="curve" smooth="yes"/>
      <point x="179" y="513"/>
      <point x="135" y="503"/>
      <point x="102" y="481" type="curve" smooth="yes"/>
      <point x="69" y="459"/>
      <point x="53" y="426"/>
      <point x="53" y="385" type="curve" smooth="yes"/>
      <point x="53" y="366"/>
      <point x="58" y="348"/>
      <point x="71" y="331" type="curve" smooth="yes"/>
      <point x="83" y="315"/>
      <point x="101" y="302"/>
      <point x="122" y="293" type="curve"/>
      <point x="90" y="286"/>
      <point x="64" y="271"/>
      <point x="45" y="246" type="curve" smooth="yes"/>
      <point x="26" y="221"/>
      <point x="17" y="191"/>
      <point x="17" y="158" type="curve" smooth="yes"/>
      <point x="17" y="107"/>
      <point x="39" y="67"/>
      <point x="82" y="36" type="curve" smooth="yes"/>
      <point x="122" y="7"/>
      <point x="170" y="-7"/>
      <point x="225" y="-7" type="curve" smooth="yes"/>
      <point x="293" y="-7"/>
      <point x="348" y="7"/>
      <point x="391" y="37" type="curve" smooth="yes"/>
      <point x="436" y="68"/>
      <point x="458" y="114"/>
    </contour>
    <contour>
      <point x="370" y="191" type="curve" smooth="yes"/>
      <point x="370" y="156"/>
      <point x="355" y="128"/>
      <point x="326" y="111" type="curve" smooth="yes"/>
      <point x="302" y="97"/>
      <point x="272" y="92"/>
      <point x="237" y="92" type="curve" smooth="yes"/>
      <point x="200" y="92"/>
      <point x="170" y="98"/>
      <point x="146" y="111" type="curve" smooth="yes"/>
      <point x="117" y="127"/>
      <point x="102" y="152"/>
      <point x="102" y="186" type="curve" smooth="yes"/>
      <point x="102" y="212"/>
      <point x="117" y="235"/>
      <point x="146" y="253" type="curve" smooth="yes"/>
      <point x="175" y="271"/>
      <point x="207" y="279"/>
      <point x="242" y="279" type="curve" smooth="yes"/>
      <point x="279" y="279"/>
      <point x="309" y="270"/>
      <point x="334" y="253" type="curve" smooth="yes"/>
      <point x="358" y="236"/>
      <point x="370" y="216"/>
    </contour>
  </outline>
</glyph>
<glyph name="nine" format="1">
  <advance width="509"/>
  <unicode hex="0039"/>
  <outline>
    <contour>
      <point x="296" y="381" type="curve" smooth="yes" name="hr00"/>
      <point x="296" y="361"/>
      <point x="287" y="345"/>
      <point x="270" y="329" type="curve" smooth="yes"/>
      <point x="255" y="314"/>
      <point x="236" y="306"/>
      <point x="215" y="306" type="curve" smooth="yes"/>
      <point x="191" y="306"/>
      <point x="172" y="312"/>
      <point x="158" y="323" type="curve" smooth="yes"/>
      <point x="143" y="336"/>
      <point x="136" y="353"/>
      <point x="136" y="374" type="curve" smooth="yes"/>
      <point x="136" y="397"/>
      <point x="143" y="415"/>
      <point x="158" y="428" type="curve" smooth="yes"/>
      <point x="174" y="443"/>
      <point x="194" y="451"/>
      <point x="219" y="451" type="curve" smooth="yes"/>
      <point x="239" y="451"/>
      <point x="257" y="444"/>
      <point x="272" y="430" type="curve" smooth="yes"/>
      <point x="288" y="415"/>
      <point x="296" y="399"/>
    </contour>
    <contour>
      <point x="237" y="-7" type="curve" smooth="yes"/>
      <point x="317" y="-7"/>
      <point x="382" y="18"/>
      <point x="428" y="70" type="curve" smooth="yes"/>
      <point x="472" y="118"/>
      <point x="492" y="183"/>
      <point x="492" y="260" type="curve" smooth="yes"/>
      <point x="492" y="332"/>
      <point x="471" y="391"/>
      <point x="428" y="437" type="curve" smooth="yes"/>
      <point x="381" y="488"/>
      <point x="316" y="513"/>
      <point x="232" y="513" type="curve" smooth="yes"/>
      <point x="179" y="513"/>
      <point x="134" y="500"/>
      <point x="97" y="476" type="curve" smooth="yes"/>
      <point x="54" y="448"/>
      <point x="33" y="410"/>
      <point x="33" y="361" type="curve" smooth="yes"/>
      <point x="33" y="316"/>
      <point x="51" y="280"/>
      <point x="88" y="253" type="curve" smooth="yes"/>
      <point x="121" y="230"/>
      <point x="159" y="218"/>
      <point x="202" y="218" type="curve" smooth="yes"/>
      <point x="249" y="218"/>
      <point x="288" y="233"/>
      <point x="317" y="262" type="curve" smooth="yes"/>
      <point x="344" y="289"/>
      <point x="357" y="322"/>
      <point x="357" y="361" type="curve" smooth="yes"/>
      <point x="357" y="376"/>
      <point x="355" y="389"/>
      <point x="350" y="401" type="curve" smooth="yes"/>
      <point x="345" y="415"/>
      <point x="338" y="428"/>
      <point x="327" y="441" type="curve"/>
      <point x="354" y="432"/>
      <point x="375" y="413"/>
      <point x="390" y="383" type="curve" smooth="yes"/>
      <point x="407" y="350"/>
      <point x="415" y="310"/>
      <point x="415" y="262" type="curve" smooth="yes"/>
      <point x="415" y="203"/>
      <point x="395" y="155"/>
      <point x="358" y="114" type="curve" smooth="yes"/>
      <point x="325" y="79"/>
      <point x="291" y="60"/>
      <point x="252" y="60" type="curve" smooth="yes"/>
      <point x="197" y="60"/>
      <point x="161" y="86"/>
      <point x="144" y="138" type="curve" smooth="yes"/>
      <point x="131" y="179"/>
      <point x="109" y="199"/>
      <point x="77" y="199" type="curve" smooth="yes"/>
      <point x="54" y="199"/>
      <point x="38" y="193"/>
      <point x="28" y="181" type="curve"/>
      <point x="21" y="170"/>
      <point x="17" y="154"/>
      <point x="17" y="131" type="curve" smooth="yes"/>
      <point x="17" y="97"/>
      <point x="39" y="66"/>
      <point x="82" y="37" type="curve" smooth="yes"/>
      <point x="127" y="8"/>
      <point x="178" y="-7"/>
    </contour>
  </outline>
</glyph>
<glyph name="colon" format="1">
  <advance width="256"/>
  <unicode hex="003A"/>
  <outline>
    <contour>
      <point x="64" y="71" type="curve" smooth="yes" name="hr00"/>
      <point x="64" y="54"/>
      <point x="69" y="40"/>
      <point x="82" y="27" type="curve" smooth="yes"/>
      <point x="94" y="15"/>
      <point x="109" y="10"/>
      <point x="127" y="10" type="curve" smooth="yes"/>
      <point x="145" y="10"/>
      <point x="160" y="16"/>
      <point x="172" y="27" type="curve" smooth="yes"/>
      <point x="185" y="40"/>
      <point x="191" y="54"/>
      <point x="191" y="71" type="curve" smooth="yes"/>
      <point x="191" y="89"/>
      <point x="185" y="104"/>
      <point x="172" y="117" type="curve" smooth="yes"/>
      <point x="160" y="129"/>
      <point x="145" y="135"/>
      <point x="127" y="135" type="curve" smooth="yes"/>
      <point x="109" y="135"/>
      <point x="94" y="129"/>
      <point x="82" y="117" type="curve" smooth="yes"/>
      <point x="70" y="104"/>
      <point x="64" y="89"/>
    </contour>
    <contour>
      <point x="64" y="331" type="curve" smooth="yes"/>
      <point x="64" y="314"/>
      <point x="69" y="300"/>
      <point x="82" y="287" type="curve" smooth="yes"/>
      <point x="94" y="275"/>
      <point x="109" y="270"/>
      <point x="127" y="270" type="curve" smooth="yes"/>
      <point x="145" y="270"/>
      <point x="160" y="276"/>
      <point x="172" y="287" type="curve" smooth="yes"/>
      <point x="185" y="300"/>
      <point x="191" y="314"/>
      <point x="191" y="331" type="curve" smooth="yes"/>
      <point x="191" y="349"/>
      <point x="185" y="365"/>
      <point x="172" y="378" type="curve" smooth="yes"/>
      <point x="160" y="389"/>
      <point x="145" y="395"/>
      <point x="127" y="395" type="curve" smooth="yes"/>
      <point x="109" y="395"/>
      <point x="94" y="390"/>
      <point x="82" y="378" type="curve" smooth="yes"/>
      <point x="69" y="365"/>
      <point x="64" y="349"/>
    </contour>
  </outline>
</glyph>
<glyph name="semicolon" format="1">
  <advance width="338"/>
  <unicode hex="003B"/>
  <outline>
    <contour>
      <point x="128" y="68" type="curve" smooth="yes" name="hr00"/>
      <point x="128" y="52"/>
      <point x="133" y="38"/>
      <point x="144" y="26" type="curve" smooth="yes"/>
      <point x="155" y="13"/>
      <point x="168" y="7"/>
      <point x="183" y="7" type="curve" smooth="yes"/>
      <point x="192" y="7"/>
      <point x="201" y="8"/>
      <point x="210" y="11" type="curve" smooth="yes"/>
      <point x="219" y="15"/>
      <point x="225" y="19"/>
      <point x="230" y="23" type="curve"/>
      <point x="230" y="6"/>
      <point x="223" y="-11"/>
      <point x="208" y="-28" type="curve" smooth="yes"/>
      <point x="193" y="-45"/>
      <point x="174" y="-57"/>
      <point x="151" y="-63" type="curve"/>
      <point x="164" y="-87" type="line"/>
      <point x="201" y="-80"/>
      <point x="230" y="-62"/>
      <point x="250" y="-33" type="curve" smooth="yes"/>
      <point x="266" y="-9"/>
      <point x="274" y="20"/>
      <point x="274" y="53" type="curve" smooth="yes"/>
      <point x="274" y="76"/>
      <point x="268" y="95"/>
      <point x="255" y="110" type="curve" smooth="yes"/>
      <point x="240" y="127"/>
      <point x="220" y="135"/>
      <point x="195" y="135" type="curve" smooth="yes"/>
      <point x="174" y="135"/>
      <point x="158" y="129"/>
      <point x="145" y="117" type="curve"/>
      <point x="134" y="104"/>
      <point x="128" y="88"/>
    </contour>
    <contour>
      <point x="135" y="331" type="curve" smooth="yes"/>
      <point x="135" y="314"/>
      <point x="141" y="300"/>
      <point x="154" y="287" type="curve" smooth="yes"/>
      <point x="166" y="276"/>
      <point x="181" y="270"/>
      <point x="198" y="270" type="curve" smooth="yes"/>
      <point x="216" y="270"/>
      <point x="232" y="276"/>
      <point x="245" y="287" type="curve"/>
      <point x="257" y="300"/>
      <point x="263" y="314"/>
      <point x="263" y="331" type="curve" smooth="yes"/>
      <point x="263" y="349"/>
      <point x="257" y="365"/>
      <point x="245" y="378" type="curve"/>
      <point x="232" y="389"/>
      <point x="216" y="395"/>
      <point x="198" y="395" type="curve" smooth="yes"/>
      <point x="181" y="395"/>
      <point x="166" y="389"/>
      <point x="154" y="378" type="curve" smooth="yes"/>
      <point x="141" y="365"/>
      <point x="135" y="349"/>
    </contour>
  </outline>
</glyph>
<glyph name="less" format="1">
  <advance width="497"/>
  <unicode hex="003C"/>
  <outline>
    <contour>
      <point x="432" y="-11" type="line" name="hr00"/>
      <point x="432" y="27" type="line"/>
      <point x="146" y="225" type="line"/>
      <point x="432" y="424" type="line"/>
      <point x="432" y="459" type="line"/>
      <point x="64" y="259" type="line"/>
      <point x="64" y="188" type="line"/>
    </contour>
  </outline>
</glyph>
<glyph name="equal" format="1">
  <advance width="503"/>
  <unicode hex="003D"/>
  <outline>
    <contour>
      <point x="439" y="171" type="line" name="hr00"/>
      <point x="64" y="171" type="line"/>
      <point x="64" y="114" type="line"/>
      <point x="439" y="114" type="line"/>
    </contour>
    <contour>
      <point x="439" y="368" type="line"/>
      <point x="64" y="368" type="line"/>
      <point x="64" y="310" type="line"/>
      <point x="439" y="310" type="line"/>
    </contour>
  </outline>
</glyph>
<glyph name="greater" format="1">
  <advance width="497"/>
  <unicode hex="003E"/>
  <outline>
    <contour>
      <point x="432" y="266" type="line" name="hr00"/>
      <point x="64" y="466" type="line"/>
      <point x="64" y="430" type="line"/>
      <point x="353" y="232" type="line"/>
      <point x="64" y="33" type="line"/>
      <point x="64" y="-6" type="line"/>
      <point x="432" y="195" type="line"/>
    </contour>
  </outline>
</glyph>
<glyph name="question" format="1">
  <advance width="611"/>
  <unicode hex="003F"/>
  <outline>
    <contour>
      <point x="421" y="10" type="curve" smooth="yes" name="hr00"/>
      <point x="421" y="32"/>
      <point x="413" y="50"/>
      <point x="398" y="63" type="curve" smooth="yes"/>
      <point x="382" y="78"/>
      <point x="363" y="85"/>
      <point x="340" y="85" type="curve" smooth="yes"/>
      <point x="317" y="85"/>
      <point x="299" y="77"/>
      <point x="284" y="61" type="curve" smooth="yes"/>
      <point x="270" y="45"/>
      <point x="263" y="27"/>
      <point x="263" y="6" type="curve" smooth="yes"/>
      <point x="263" y="-14"/>
      <point x="271" y="-32"/>
      <point x="286" y="-48" type="curve" smooth="yes"/>
      <point x="301" y="-63"/>
      <point x="319" y="-70"/>
      <point x="340" y="-70" type="curve" smooth="yes"/>
      <point x="363" y="-70"/>
      <point x="382" y="-63"/>
      <point x="398" y="-47" type="curve" smooth="yes"/>
      <point x="414" y="-31"/>
      <point x="421" y="-12"/>
    </contour>
    <contour>
      <point x="546" y="518" type="curve" smooth="yes"/>
      <point x="546" y="565"/>
      <point x="525" y="601"/>
      <point x="484" y="626" type="curve" smooth="yes"/>
      <point x="446" y="649"/>
      <point x="396" y="661"/>
      <point x="334" y="661" type="curve" smooth="yes"/>
      <point x="265" y="661"/>
      <point x="211" y="645"/>
      <point x="174" y="612" type="curve" smooth="yes"/>
      <point x="143" y="583"/>
      <point x="128" y="551"/>
      <point x="128" y="516" type="curve" smooth="yes"/>
      <point x="128" y="484"/>
      <point x="137" y="459"/>
      <point x="154" y="441" type="curve" smooth="yes"/>
      <point x="173" y="421"/>
      <point x="200" y="411"/>
      <point x="236" y="411" type="curve" smooth="yes"/>
      <point x="256" y="411"/>
      <point x="272" y="417"/>
      <point x="283" y="428" type="curve"/>
      <point x="294" y="437"/>
      <point x="299" y="450"/>
      <point x="299" y="466" type="curve" smooth="yes"/>
      <point x="299" y="478"/>
      <point x="289" y="486"/>
      <point x="270" y="491" type="curve" smooth="yes"/>
      <point x="243" y="498"/>
      <point x="229" y="513"/>
      <point x="229" y="536" type="curve" smooth="yes"/>
      <point x="229" y="562"/>
      <point x="242" y="582"/>
      <point x="267" y="596" type="curve" smooth="yes"/>
      <point x="291" y="609"/>
      <point x="318" y="616"/>
      <point x="347" y="616" type="curve" smooth="yes"/>
      <point x="390" y="616"/>
      <point x="424" y="607"/>
      <point x="451" y="590" type="curve" smooth="yes"/>
      <point x="476" y="574"/>
      <point x="489" y="553"/>
      <point x="489" y="526" type="curve" smooth="yes"/>
      <point x="489" y="475"/>
      <point x="447" y="427"/>
      <point x="363" y="385" type="curve" smooth="yes"/>
      <point x="276" y="341"/>
      <point x="233" y="293"/>
      <point x="233" y="240" type="curve" smooth="yes"/>
      <point x="233" y="210"/>
      <point x="245" y="184"/>
      <point x="266" y="161" type="curve" smooth="yes"/>
      <point x="288" y="137"/>
      <point x="313" y="125"/>
      <point x="344" y="125" type="curve" smooth="yes"/>
      <point x="375" y="125"/>
      <point x="402" y="135"/>
      <point x="425" y="155" type="curve" smooth="yes"/>
      <point x="447" y="174"/>
      <point x="458" y="195"/>
      <point x="458" y="220" type="curve" smooth="yes"/>
      <point x="458" y="239"/>
      <point x="455" y="255"/>
      <point x="448" y="267" type="curve" smooth="yes"/>
      <point x="441" y="280"/>
      <point x="434" y="286"/>
      <point x="427" y="286" type="curve" smooth="yes"/>
      <point x="423" y="286"/>
      <point x="420" y="285"/>
      <point x="418" y="283" type="curve" smooth="yes"/>
      <point x="416" y="281"/>
      <point x="415" y="279"/>
      <point x="415" y="277" type="curve" smooth="yes"/>
      <point x="415" y="275"/>
      <point x="416" y="272"/>
      <point x="417" y="267" type="curve" smooth="yes"/>
      <point x="419" y="260"/>
      <point x="420" y="256"/>
      <point x="420" y="253" type="curve" smooth="yes"/>
      <point x="420" y="243"/>
      <point x="414" y="234"/>
      <point x="402" y="225" type="curve" smooth="yes"/>
      <point x="390" y="215"/>
      <point x="378" y="210"/>
      <point x="366" y="210" type="curve" smooth="yes"/>
      <point x="351" y="210"/>
      <point x="338" y="214"/>
      <point x="327" y="223" type="curve" smooth="yes"/>
      <point x="316" y="231"/>
      <point x="310" y="242"/>
      <point x="310" y="256" type="curve" smooth="yes"/>
      <point x="310" y="289"/>
      <point x="344" y="324"/>
      <point x="411" y="360" type="curve" smooth="yes"/>
      <point x="501" y="407"/>
      <point x="546" y="460"/>
    </contour>
  </outline>
</glyph>
<glyph name="uni0951" format="1">
  <advance width="0"/>
  <unicode hex="0951"/>
  <outline>
    <contour>
      <point x="-229" y="1572" type="line" name="hr00"/>
      <point x="-304" y="1572" type="line"/>
      <point x="-304" y="1072" type="line"/>
      <point x="-229" y="1072" type="line"/>
    </contour>
  </outline>
</glyph>
<glyph name="uni0952" format="1">
  <advance width="0"/>
  <unicode hex="0952"/>
  <outline>
    <contour>
      <point x="-59" y="-415" type="line" name="hr00"/>
      <point x="-750" y="-415" type="line"/>
      <point x="-750" y="-485" type="line"/>
      <point x="-59" y="-485" type="line"/>
    </contour>
  </outline>
</glyph>
<glyph name="uni0964" format="1">
  <advance width="126"/>
  <unicode hex="0964"/>
  <outline>
    <contour>
      <point x="91" y="451" type="line" name="hr00"/>
      <point x="21" y="451" type="line"/>
      <point x="21" y="-16" type="line"/>
      <point x="91" y="-16" type="line"/>
    </contour>
  </outline>
</glyph>
<glyph name="uni0965" format="1">
  <advance width="287"/>
  <unicode hex="0965"/>
  <outline>
    <contour>
      <point x="251" y="447" type="line" name="hr00"/>
      <point x="185" y="447" type="line"/>
      <point x="185" y="-18" type="line"/>
      <point x="251" y="-18" type="line"/>
    </contour>
    <contour>
      <point x="91" y="451" type="line"/>
      <point x="21" y="451" type="line"/>
      <point x="21" y="-16" type="line"/>
      <point x="91" y="-16" type="line"/>
    </contour>
  </outline>
</glyph>
<glyph name="uni0C01" format="1">
  <advance width="388"/>
  <unicode hex="0C01"/>
  <outline>
    <contour>
      <point x="314" y="410" type="curve" name="hr00"/>
      <point x="311" y="419"/>
      <point x="306" y="426"/>
      <point x="298" y="430" type="curve" smooth="yes"/>
      <point x="288" y="436"/>
      <point x="270" y="439"/>
      <point x="243" y="439" type="curve" smooth="yes"/>
      <point x="166" y="439"/>
      <point x="108" y="415"/>
      <point x="68" y="367" type="curve" smooth="yes"/>
      <point x="37" y="329"/>
      <point x="21" y="283"/>
      <point x="21" y="230" type="curve" smooth="yes"/>
      <point x="21" y="171"/>
      <point x="38" y="121"/>
      <point x="72" y="78" type="curve" smooth="yes"/>
      <point x="114" y="24"/>
      <point x="175" y="-3"/>
      <point x="254" y="-3" type="curve" smooth="yes"/>
      <point x="269" y="-3"/>
      <point x="280" y="-1"/>
      <point x="287" y="4" type="curve" smooth="yes"/>
      <point x="296" y="10"/>
      <point x="301" y="19"/>
      <point x="301" y="31" type="curve" smooth="yes"/>
      <point x="301" y="38"/>
      <point x="299" y="43"/>
      <point x="294" y="47" type="curve" smooth="yes"/>
      <point x="285" y="54"/>
      <point x="270" y="57"/>
      <point x="249" y="57" type="curve" smooth="yes"/>
      <point x="216" y="57"/>
      <point x="186" y="68"/>
      <point x="159" y="90" type="curve" smooth="yes"/>
      <point x="125" y="117"/>
      <point x="108" y="159"/>
      <point x="108" y="216" type="curve" smooth="yes"/>
      <point x="108" y="278"/>
      <point x="125" y="322"/>
      <point x="159" y="348" type="curve" smooth="yes"/>
      <point x="186" y="368"/>
      <point x="223" y="378"/>
      <point x="271" y="378" type="curve" smooth="yes"/>
      <point x="287" y="378"/>
      <point x="298" y="380"/>
      <point x="304" y="383" type="curve" smooth="yes"/>
      <point x="311" y="386"/>
      <point x="314" y="395"/>
    </contour>
  </outline>
</glyph>
<glyph name="uni0C02" format="1">
  <advance width="519"/>
  <unicode hex="0C02"/>
  <outline>
    <contour>
      <point x="483" y="215" type="curve" smooth="yes" name="hr00"/>
      <point x="483" y="278"/>
      <point x="464" y="333"/>
      <point x="423" y="375" type="curve" smooth="yes"/>
      <point x="381" y="420"/>
      <point x="326" y="441"/>
      <point x="259" y="441" type="curve" smooth="yes"/>
      <point x="185" y="441"/>
      <point x="128" y="419"/>
      <point x="84" y="375" type="curve" smooth="yes"/>
      <point x="42" y="333"/>
      <point x="21" y="280"/>
      <point x="21" y="215" type="curve" smooth="yes"/>
      <point x="21" y="155"/>
      <point x="42" y="105"/>
      <point x="84" y="63" type="curve" smooth="yes"/>
      <point x="128" y="19"/>
      <point x="186" y="-3"/>
      <point x="259" y="-3" type="curve" smooth="yes"/>
      <point x="326" y="-3"/>
      <point x="381" y="18"/>
      <point x="423" y="63" type="curve" smooth="yes"/>
      <point x="464" y="105"/>
      <point x="483" y="156"/>
    </contour>
    <contour>
      <point x="409" y="259" type="curve" smooth="yes"/>
      <point x="409" y="222"/>
      <point x="396" y="189"/>
      <point x="371" y="161" type="curve" smooth="yes"/>
      <point x="342" y="128"/>
      <point x="305" y="111"/>
      <point x="259" y="111" type="curve" smooth="yes"/>
      <point x="204" y="111"/>
      <point x="165" y="129"/>
      <point x="139" y="161" type="curve" smooth="yes"/>
      <point x="118" y="187"/>
      <point x="106" y="218"/>
      <point x="106" y="259" type="curve" smooth="yes"/>
      <point x="106" y="296"/>
      <point x="119" y="326"/>
      <point x="146" y="351" type="curve" smooth="yes"/>
      <point x="175" y="377"/>
      <point x="212" y="390"/>
      <point x="259" y="390" type="curve" smooth="yes"/>
      <point x="302" y="390"/>
      <point x="338" y="377"/>
      <point x="367" y="351" type="curve" smooth="yes"/>
      <point x="395" y="326"/>
      <point x="409" y="295"/>
    </contour>
  </outline>
</glyph>
<glyph name="uni0C03" format="1">
  <advance width="267"/>
  <unicode hex="0C03"/>
  <outline>
    <contour>
      <point x="71" y="118" type="curve" smooth="yes" name="hr00"/>
      <point x="71" y="135"/>
      <point x="76" y="149"/>
      <point x="86" y="158" type="curve" smooth="yes"/>
      <point x="97" y="167"/>
      <point x="111" y="171"/>
      <point x="126" y="171" type="curve" smooth="yes"/>
      <point x="142" y="171"/>
      <point x="155" y="167"/>
      <point x="166" y="158" type="curve" smooth="yes"/>
      <point x="179" y="149"/>
      <point x="185" y="135"/>
      <point x="185" y="118" type="curve" smooth="yes"/>
      <point x="185" y="103"/>
      <point x="180" y="91"/>
      <point x="169" y="82" type="curve"/>
      <point x="158" y="71"/>
      <point x="143" y="65"/>
      <point x="126" y="65" type="curve" smooth="yes"/>
      <point x="111" y="65"/>
      <point x="97" y="71"/>
      <point x="86" y="82" type="curve" smooth="yes"/>
      <point x="76" y="92"/>
      <point x="71" y="104"/>
    </contour>
    <contour>
      <point x="21" y="101" type="curve" smooth="yes"/>
      <point x="21" y="72"/>
      <point x="31" y="48"/>
      <point x="52" y="27" type="curve" smooth="yes"/>
      <point x="73" y="6"/>
      <point x="97" y="-4"/>
      <point x="126" y="-4" type="curve" smooth="yes"/>
      <point x="155" y="-4"/>
      <point x="180" y="5"/>
      <point x="202" y="27" type="curve" smooth="yes"/>
      <point x="222" y="47"/>
      <point x="231" y="72"/>
      <point x="231" y="101" type="curve" smooth="yes"/>
      <point x="231" y="130"/>
      <point x="222" y="156"/>
      <point x="202" y="176" type="curve" smooth="yes"/>
      <point x="181" y="198"/>
      <point x="155" y="208"/>
      <point x="126" y="208" type="curve" smooth="yes"/>
      <point x="97" y="208"/>
      <point x="72" y="197"/>
      <point x="52" y="176" type="curve" smooth="yes"/>
      <point x="31" y="155"/>
      <point x="21" y="130"/>
    </contour>
    <contour>
      <point x="71" y="377" type="curve" smooth="yes"/>
      <point x="71" y="394"/>
      <point x="76" y="407"/>
      <point x="86" y="417" type="curve"/>
      <point x="97" y="426"/>
      <point x="111" y="430"/>
      <point x="126" y="430" type="curve" smooth="yes"/>
      <point x="142" y="430"/>
      <point x="155" y="426"/>
      <point x="166" y="417" type="curve" smooth="yes"/>
      <point x="179" y="407"/>
      <point x="185" y="394"/>
      <point x="185" y="377" type="curve" smooth="yes"/>
      <point x="185" y="363"/>
      <point x="180" y="351"/>
      <point x="169" y="340" type="curve"/>
      <point x="158" y="331"/>
      <point x="143" y="326"/>
      <point x="126" y="326" type="curve" smooth="yes"/>
      <point x="111" y="326"/>
      <point x="97" y="331"/>
      <point x="86" y="340" type="curve"/>
      <point x="76" y="351"/>
      <point x="71" y="363"/>
    </contour>
    <contour>
      <point x="21" y="360" type="curve" smooth="yes"/>
      <point x="21" y="331"/>
      <point x="31" y="307"/>
      <point x="52" y="286" type="curve" smooth="yes"/>
      <point x="73" y="265"/>
      <point x="97" y="255"/>
      <point x="126" y="255" type="curve" smooth="yes"/>
      <point x="155" y="255"/>
      <point x="180" y="264"/>
      <point x="202" y="286" type="curve" smooth="yes"/>
      <point x="222" y="306"/>
      <point x="231" y="331"/>
      <point x="231" y="360" type="curve" smooth="yes"/>
      <point x="231" y="389"/>
      <point x="222" y="415"/>
      <point x="202" y="435" type="curve" smooth="yes"/>
      <point x="181" y="457"/>
      <point x="155" y="466"/>
      <point x="126" y="466" type="curve" smooth="yes"/>
      <point x="97" y="466"/>
      <point x="72" y="456"/>
      <point x="52" y="435" type="curve" smooth="yes"/>
      <point x="31" y="414"/>
      <point x="21" y="389"/>
    </contour>
  </outline>
</glyph>
<glyph name="uni0C05" format="1">
  <advance width="603"/>
  <unicode hex="0C05"/>
  <outline>
    <contour>
      <point x="567" y="256" type="curve" smooth="yes" name="hr00"/>
      <point x="567" y="311"/>
      <point x="556" y="358"/>
      <point x="532" y="395" type="curve" smooth="yes"/>
      <point x="504" y="438"/>
      <point x="467" y="458"/>
      <point x="422" y="458" type="curve" smooth="yes"/>
      <point x="386" y="458"/>
      <point x="358" y="446"/>
      <point x="337" y="422" type="curve" smooth="yes"/>
      <point x="318" y="401"/>
      <point x="308" y="372"/>
      <point x="308" y="336" type="curve" smooth="yes"/>
      <point x="308" y="319"/>
      <point x="311" y="302"/>
      <point x="317" y="287" type="curve" smooth="yes"/>
      <point x="324" y="269"/>
      <point x="334" y="257"/>
      <point x="347" y="250" type="curve"/>
      <point x="199" y="250" type="line" smooth="yes"/>
      <point x="188" y="250"/>
      <point x="181" y="248"/>
      <point x="176" y="243" type="curve"/>
      <point x="171" y="240"/>
      <point x="169" y="233"/>
      <point x="169" y="223" type="curve" smooth="yes"/>
      <point x="169" y="214"/>
      <point x="171" y="208"/>
      <point x="176" y="205" type="curve"/>
      <point x="180" y="201"/>
      <point x="188" y="199"/>
      <point x="199" y="199" type="curve" smooth="yes"/>
      <point x="385" y="199" type="line" smooth="yes"/>
      <point x="396" y="199"/>
      <point x="406" y="202"/>
      <point x="415" y="208" type="curve" smooth="yes"/>
      <point x="424" y="215"/>
      <point x="428" y="223"/>
      <point x="428" y="233" type="curve" smooth="yes"/>
      <point x="428" y="249"/>
      <point x="417" y="261"/>
      <point x="394" y="267" type="curve" smooth="yes"/>
      <point x="365" y="275"/>
      <point x="350" y="292"/>
      <point x="350" y="323" type="curve" smooth="yes"/>
      <point x="350" y="342"/>
      <point x="357" y="358"/>
      <point x="367" y="371" type="curve" smooth="yes"/>
      <point x="381" y="389"/>
      <point x="401" y="398"/>
      <point x="428" y="398" type="curve" smooth="yes"/>
      <point x="455" y="398"/>
      <point x="477" y="384"/>
      <point x="495" y="357" type="curve" smooth="yes"/>
      <point x="510" y="334"/>
      <point x="519" y="308"/>
      <point x="519" y="277" type="curve" smooth="yes"/>
      <point x="519" y="221"/>
      <point x="499" y="179"/>
      <point x="459" y="151" type="curve" smooth="yes"/>
      <point x="424" y="126"/>
      <point x="370" y="114"/>
      <point x="298" y="114" type="curve" smooth="yes"/>
      <point x="215" y="114"/>
      <point x="154" y="130"/>
      <point x="116" y="161" type="curve" smooth="yes"/>
      <point x="86" y="186"/>
      <point x="71" y="221"/>
      <point x="71" y="267" type="curve" smooth="yes"/>
      <point x="71" y="291"/>
      <point x="75" y="314"/>
      <point x="82" y="336" type="curve"/>
      <point x="90" y="313"/>
      <point x="105" y="297"/>
      <point x="126" y="286" type="curve" smooth="yes"/>
      <point x="141" y="279"/>
      <point x="158" y="276"/>
      <point x="176" y="276" type="curve" smooth="yes"/>
      <point x="207" y="276"/>
      <point x="233" y="284"/>
      <point x="254" y="300" type="curve" smooth="yes"/>
      <point x="279" y="318"/>
      <point x="291" y="341"/>
      <point x="291" y="370" type="curve" smooth="yes"/>
      <point x="291" y="398"/>
      <point x="280" y="421"/>
      <point x="257" y="438" type="curve" smooth="yes"/>
      <point x="238" y="451"/>
      <point x="216" y="458"/>
      <point x="189" y="458" type="curve" smooth="yes"/>
      <point x="132" y="458"/>
      <point x="88" y="433"/>
      <point x="57" y="383" type="curve" smooth="yes"/>
      <point x="33" y="343"/>
      <point x="21" y="297"/>
      <point x="21" y="246" type="curve" smooth="yes"/>
      <point x="21" y="168"/>
      <point x="46" y="108"/>
      <point x="96" y="65" type="curve" smooth="yes"/>
      <point x="145" y="22"/>
      <point x="211" y="0"/>
      <point x="294" y="0" type="curve" smooth="yes"/>
      <point x="382" y="0"/>
      <point x="450" y="23"/>
      <point x="499" y="70" type="curve" smooth="yes"/>
      <point x="544" y="115"/>
      <point x="567" y="177"/>
    </contour>
    <contour>
      <point x="116" y="368" type="curve" smooth="yes"/>
      <point x="116" y="379"/>
      <point x="121" y="390"/>
      <point x="131" y="400" type="curve" smooth="yes"/>
      <point x="141" y="409"/>
      <point x="154" y="414"/>
      <point x="169" y="414" type="curve" smooth="yes"/>
      <point x="184" y="414"/>
      <point x="197" y="410"/>
      <point x="207" y="402" type="curve" smooth="yes"/>
      <point x="218" y="394"/>
      <point x="224" y="383"/>
      <point x="224" y="368" type="curve" smooth="yes"/>
      <point x="224" y="353"/>
      <point x="218" y="342"/>
      <point x="207" y="334" type="curve" smooth="yes"/>
      <point x="197" y="327"/>
      <point x="184" y="323"/>
      <point x="169" y="323" type="curve" smooth="yes"/>
      <point x="154" y="323"/>
      <point x="141" y="327"/>
      <point x="131" y="336" type="curve" smooth="yes"/>
      <point x="121" y="345"/>
      <point x="116" y="356"/>
    </contour>
  </outline>
</glyph>
<glyph name="uni0C06" format="1">
  <advance width="583"/>
  <unicode hex="0C06"/>
  <outline>
    <contour>
      <point x="116" y="368" type="curve" smooth="yes" name="hr00"/>
      <point x="116" y="379"/>
      <point x="121" y="390"/>
      <point x="131" y="400" type="curve" smooth="yes"/>
      <point x="141" y="409"/>
      <point x="154" y="414"/>
      <point x="169" y="414" type="curve" smooth="yes"/>
      <point x="184" y="414"/>
      <point x="197" y="410"/>
      <point x="207" y="402" type="curve" smooth="yes"/>
      <point x="218" y="394"/>
      <point x="224" y="383"/>
      <point x="224" y="368" type="curve" smooth="yes"/>
      <point x="224" y="353"/>
      <point x="218" y="342"/>
      <point x="207" y="334" type="curve" smooth="yes"/>
      <point x="197" y="327"/>
      <point x="184" y="323"/>
      <point x="169" y="323" type="curve" smooth="yes"/>
      <point x="154" y="323"/>
      <point x="141" y="327"/>
      <point x="131" y="336" type="curve" smooth="yes"/>
      <point x="121" y="345"/>
      <point x="116" y="356"/>
    </contour>
    <contour>
      <point x="21" y="257" type="curve" smooth="yes"/>
      <point x="21" y="180"/>
      <point x="46" y="118"/>
      <point x="96" y="71" type="curve" smooth="yes"/>
      <point x="147" y="24"/>
      <point x="213" y="1"/>
      <point x="295" y="1" type="curve" smooth="yes"/>
      <point x="369" y="1"/>
      <point x="428" y="17"/>
      <point x="472" y="50" type="curve" smooth="yes"/>
      <point x="517" y="83"/>
      <point x="539" y="127"/>
      <point x="539" y="181" type="curve" smooth="yes"/>
      <point x="539" y="210"/>
      <point x="530" y="237"/>
      <point x="513" y="260" type="curve"/>
      <point x="524" y="271"/>
      <point x="531" y="285"/>
      <point x="537" y="300" type="curve" smooth="yes"/>
      <point x="543" y="317"/>
      <point x="547" y="336"/>
      <point x="547" y="356" type="curve" smooth="yes"/>
      <point x="547" y="388"/>
      <point x="536" y="414"/>
      <point x="513" y="435" type="curve" smooth="yes"/>
      <point x="488" y="457"/>
      <point x="458" y="468"/>
      <point x="421" y="468" type="curve" smooth="yes"/>
      <point x="388" y="468"/>
      <point x="361" y="458"/>
      <point x="340" y="437" type="curve" smooth="yes"/>
      <point x="322" y="418"/>
      <point x="313" y="395"/>
      <point x="313" y="368" type="curve" smooth="yes"/>
      <point x="313" y="335"/>
      <point x="322" y="309"/>
      <point x="340" y="289" type="curve" smooth="yes"/>
      <point x="354" y="274"/>
      <point x="374" y="261"/>
      <point x="399" y="250" type="curve"/>
      <point x="372" y="250" type="line"/>
      <point x="210" y="250" type="line" smooth="yes"/>
      <point x="197" y="250"/>
      <point x="187" y="249"/>
      <point x="182" y="246" type="curve" smooth="yes"/>
      <point x="173" y="242"/>
      <point x="169" y="235"/>
      <point x="169" y="225" type="curve" smooth="yes"/>
      <point x="169" y="215"/>
      <point x="173" y="208"/>
      <point x="182" y="203" type="curve" smooth="yes"/>
      <point x="187" y="200"/>
      <point x="197" y="199"/>
      <point x="210" y="199" type="curve" smooth="yes"/>
      <point x="384" y="199" type="line" smooth="yes"/>
      <point x="400" y="199"/>
      <point x="416" y="202"/>
      <point x="432" y="208" type="curve"/>
      <point x="452" y="213"/>
      <point x="466" y="222"/>
      <point x="475" y="233" type="curve"/>
      <point x="478" y="224"/>
      <point x="479" y="216"/>
      <point x="479" y="208" type="curve" smooth="yes"/>
      <point x="479" y="177"/>
      <point x="461" y="154"/>
      <point x="425" y="138" type="curve" smooth="yes"/>
      <point x="391" y="122"/>
      <point x="346" y="114"/>
      <point x="291" y="114" type="curve" smooth="yes"/>
      <point x="217" y="114"/>
      <point x="161" y="129"/>
      <point x="122" y="158" type="curve" smooth="yes"/>
      <point x="87" y="185"/>
      <point x="69" y="220"/>
      <point x="69" y="263" type="curve" smooth="yes"/>
      <point x="69" y="294"/>
      <point x="73" y="319"/>
      <point x="82" y="336" type="curve"/>
      <point x="90" y="313"/>
      <point x="105" y="297"/>
      <point x="126" y="286" type="curve" smooth="yes"/>
      <point x="141" y="279"/>
      <point x="158" y="276"/>
      <point x="176" y="276" type="curve" smooth="yes"/>
      <point x="207" y="276"/>
      <point x="233" y="283"/>
      <point x="256" y="300" type="curve" smooth="yes"/>
      <point x="279" y="317"/>
      <point x="291" y="341"/>
      <point x="291" y="370" type="curve" smooth="yes"/>
      <point x="291" y="398"/>
      <point x="280" y="421"/>
      <point x="257" y="438" type="curve" smooth="yes"/>
      <point x="238" y="451"/>
      <point x="216" y="458"/>
      <point x="189" y="458" type="curve" smooth="yes"/>
      <point x="132" y="458"/>
      <point x="88" y="434"/>
      <point x="57" y="387" type="curve" smooth="yes"/>
      <point x="33" y="349"/>
      <point x="21" y="306"/>
    </contour>
    <contour>
      <point x="496" y="338" type="curve" smooth="yes"/>
      <point x="496" y="324"/>
      <point x="493" y="311"/>
      <point x="486" y="299" type="curve" smooth="yes"/>
      <point x="479" y="288"/>
      <point x="471" y="283"/>
      <point x="462" y="283" type="curve" smooth="yes"/>
      <point x="436" y="283"/>
      <point x="414" y="289"/>
      <point x="396" y="302" type="curve" smooth="yes"/>
      <point x="378" y="315"/>
      <point x="369" y="331"/>
      <point x="369" y="351" type="curve" smooth="yes"/>
      <point x="369" y="364"/>
      <point x="374" y="375"/>
      <point x="385" y="385" type="curve" smooth="yes"/>
      <point x="398" y="395"/>
      <point x="412" y="400"/>
      <point x="429" y="400" type="curve" smooth="yes"/>
      <point x="452" y="400"/>
      <point x="469" y="393"/>
      <point x="482" y="378" type="curve" smooth="yes"/>
      <point x="491" y="368"/>
      <point x="496" y="355"/>
    </contour>
  </outline>
</glyph>
<glyph name="uni0C07" format="1">
  <advance width="583"/>
  <unicode hex="0C07"/>
  <outline>
    <contour>
      <point x="419" y="142" type="curve" name="hr00"/>
      <point x="398" y="122"/>
      <point x="370" y="108"/>
      <point x="337" y="100" type="curve" smooth="yes"/>
      <point x="313" y="94"/>
      <point x="289" y="91"/>
      <point x="266" y="91" type="curve" smooth="yes"/>
      <point x="241" y="91"/>
      <point x="220" y="93"/>
      <point x="202" y="101" type="curve" smooth="yes"/>
      <point x="178" y="111"/>
      <point x="166" y="127"/>
      <point x="166" y="146" type="curve" smooth="yes"/>
      <point x="166" y="169"/>
      <point x="176" y="187"/>
      <point x="197" y="198" type="curve" smooth="yes"/>
      <point x="214" y="206"/>
      <point x="234" y="210"/>
      <point x="259" y="210" type="curve" smooth="yes"/>
      <point x="295" y="210"/>
      <point x="328" y="205"/>
      <point x="357" y="193" type="curve" smooth="yes"/>
      <point x="388" y="181"/>
      <point x="409" y="163"/>
    </contour>
    <contour>
      <point x="193" y="405" type="curve" smooth="yes"/>
      <point x="208" y="405"/>
      <point x="223" y="399"/>
      <point x="236" y="388" type="curve" smooth="yes"/>
      <point x="250" y="377"/>
      <point x="257" y="365"/>
      <point x="257" y="353" type="curve" smooth="yes"/>
      <point x="257" y="342"/>
      <point x="259" y="334"/>
      <point x="263" y="329" type="curve" smooth="yes"/>
      <point x="266" y="325"/>
      <point x="272" y="323"/>
      <point x="281" y="323" type="curve" smooth="yes"/>
      <point x="294" y="323"/>
      <point x="303" y="325"/>
      <point x="307" y="329" type="curve" smooth="yes"/>
      <point x="312" y="334"/>
      <point x="314" y="343"/>
      <point x="314" y="356" type="curve" smooth="yes"/>
      <point x="314" y="370"/>
      <point x="321" y="382"/>
      <point x="334" y="391" type="curve" smooth="yes"/>
      <point x="346" y="400"/>
      <point x="362" y="404"/>
      <point x="381" y="404" type="curve" smooth="yes"/>
      <point x="410" y="404"/>
      <point x="435" y="392"/>
      <point x="456" y="368" type="curve" smooth="yes"/>
      <point x="477" y="343"/>
      <point x="487" y="314"/>
      <point x="487" y="279" type="curve" smooth="yes"/>
      <point x="487" y="245"/>
      <point x="480" y="212"/>
      <point x="465" y="181" type="curve"/>
      <point x="439" y="206"/>
      <point x="406" y="225"/>
      <point x="367" y="240" type="curve" smooth="yes"/>
      <point x="325" y="255"/>
      <point x="282" y="263"/>
      <point x="239" y="263" type="curve" smooth="yes"/>
      <point x="186" y="263"/>
      <point x="141" y="251"/>
      <point x="103" y="230" type="curve" smooth="yes"/>
      <point x="60" y="206"/>
      <point x="38" y="175"/>
      <point x="38" y="135" type="curve" smooth="yes"/>
      <point x="38" y="90"/>
      <point x="58" y="57"/>
      <point x="96" y="33" type="curve" smooth="yes"/>
      <point x="132" y="11"/>
      <point x="176" y="-1"/>
      <point x="231" y="-1" type="curve" smooth="yes"/>
      <point x="269" y="-1"/>
      <point x="307" y="5"/>
      <point x="344" y="18" type="curve" smooth="yes"/>
      <point x="384" y="33"/>
      <point x="418" y="54"/>
      <point x="446" y="82" type="curve"/>
      <point x="449" y="71"/>
      <point x="451" y="61"/>
      <point x="451" y="53" type="curve" smooth="yes"/>
      <point x="451" y="36"/>
      <point x="447" y="17"/>
      <point x="439" y="-4" type="curve" smooth="yes"/>
      <point x="434" y="-17"/>
      <point x="432" y="-26"/>
      <point x="432" y="-33" type="curve" smooth="yes"/>
      <point x="432" y="-53"/>
      <point x="437" y="-69"/>
      <point x="446" y="-80" type="curve"/>
      <point x="455" y="-88"/>
      <point x="468" y="-92"/>
      <point x="486" y="-92" type="curve" smooth="yes"/>
      <point x="510" y="-92"/>
      <point x="527" y="-82"/>
      <point x="536" y="-63" type="curve" smooth="yes"/>
      <point x="543" y="-48"/>
      <point x="547" y="-26"/>
      <point x="547" y="1" type="curve" smooth="yes"/>
      <point x="547" y="44"/>
      <point x="531" y="88"/>
      <point x="500" y="134" type="curve"/>
      <point x="531" y="175"/>
      <point x="547" y="219"/>
      <point x="547" y="266" type="curve" smooth="yes"/>
      <point x="547" y="321"/>
      <point x="531" y="366"/>
      <point x="502" y="402" type="curve" smooth="yes"/>
      <point x="472" y="439"/>
      <point x="435" y="458"/>
      <point x="389" y="458" type="curve" smooth="yes"/>
      <point x="362" y="458"/>
      <point x="339" y="452"/>
      <point x="320" y="441" type="curve" smooth="yes"/>
      <point x="303" y="430"/>
      <point x="292" y="417"/>
      <point x="288" y="400" type="curve"/>
      <point x="279" y="419"/>
      <point x="263" y="433"/>
      <point x="241" y="442" type="curve"/>
      <point x="220" y="453"/>
      <point x="196" y="459"/>
      <point x="167" y="459" type="curve" smooth="yes"/>
      <point x="122" y="459"/>
      <point x="84" y="447"/>
      <point x="57" y="421" type="curve" smooth="yes"/>
      <point x="32" y="398"/>
      <point x="21" y="369"/>
      <point x="21" y="338" type="curve" smooth="yes"/>
      <point x="21" y="321"/>
      <point x="25" y="308"/>
      <point x="32" y="297" type="curve"/>
      <point x="41" y="286"/>
      <point x="52" y="280"/>
      <point x="65" y="280" type="curve" smooth="yes"/>
      <point x="89" y="280"/>
      <point x="105" y="287"/>
      <point x="112" y="302" type="curve" smooth="yes"/>
      <point x="117" y="311"/>
      <point x="119" y="326"/>
      <point x="119" y="347" type="curve" smooth="yes"/>
      <point x="119" y="363"/>
      <point x="124" y="376"/>
      <point x="135" y="385" type="curve"/>
      <point x="147" y="398"/>
      <point x="166" y="404"/>
    </contour>
  </outline>
</glyph>
<glyph name="uni0C08" format="1">
  <advance width="965"/>
  <unicode hex="0C08"/>
  <outline>
    <contour>
      <point x="869" y="172" type="curve" smooth="yes" name="hr00"/>
      <point x="869" y="149"/>
      <point x="862" y="132"/>
      <point x="847" y="121" type="curve"/>
      <point x="835" y="108"/>
      <point x="816" y="102"/>
      <point x="789" y="102" type="curve" smooth="yes"/>
      <point x="765" y="102"/>
      <point x="746" y="108"/>
      <point x="732" y="121" type="curve" smooth="yes"/>
      <point x="720" y="132"/>
      <point x="714" y="148"/>
      <point x="714" y="168" type="curve" smooth="yes"/>
      <point x="714" y="186"/>
      <point x="721" y="201"/>
      <point x="736" y="212" type="curve" smooth="yes"/>
      <point x="751" y="223"/>
      <point x="769" y="229"/>
      <point x="790" y="229" type="curve" smooth="yes"/>
      <point x="811" y="229"/>
      <point x="829" y="224"/>
      <point x="844" y="215" type="curve" smooth="yes"/>
      <point x="861" y="204"/>
      <point x="869" y="190"/>
    </contour>
    <contour>
      <point x="357" y="398" type="curve" smooth="yes"/>
      <point x="396" y="398"/>
      <point x="431" y="387"/>
      <point x="462" y="366" type="curve" smooth="yes"/>
      <point x="492" y="345"/>
      <point x="511" y="318"/>
      <point x="519" y="286" type="curve"/>
      <point x="193" y="286" type="line"/>
      <point x="199" y="319"/>
      <point x="216" y="346"/>
      <point x="244" y="366" type="curve" smooth="yes"/>
      <point x="273" y="387"/>
      <point x="311" y="398"/>
    </contour>
    <contour>
      <point x="357" y="105" type="curve" smooth="yes"/>
      <point x="302" y="105"/>
      <point x="260" y="119"/>
      <point x="231" y="148" type="curve" smooth="yes"/>
      <point x="208" y="170"/>
      <point x="195" y="200"/>
      <point x="192" y="238" type="curve"/>
      <point x="519" y="238" type="line"/>
      <point x="513" y="203"/>
      <point x="497" y="173"/>
      <point x="470" y="148" type="curve" smooth="yes"/>
      <point x="439" y="119"/>
      <point x="401" y="105"/>
    </contour>
    <contour>
      <point x="311" y="438" type="curve" smooth="yes"/>
      <point x="292" y="438"/>
      <point x="276" y="457"/>
      <point x="259" y="494" type="curve" smooth="yes"/>
      <point x="241" y="533"/>
      <point x="220" y="553"/>
      <point x="199" y="553" type="curve" smooth="yes"/>
      <point x="184" y="553"/>
      <point x="171" y="549"/>
      <point x="162" y="540" type="curve"/>
      <point x="149" y="531"/>
      <point x="143" y="516"/>
      <point x="143" y="496" type="curve" smooth="yes"/>
      <point x="143" y="477"/>
      <point x="151" y="460"/>
      <point x="167" y="445" type="curve" smooth="yes"/>
      <point x="182" y="432"/>
      <point x="201" y="420"/>
      <point x="226" y="411" type="curve"/>
      <point x="199" y="399"/>
      <point x="177" y="381"/>
      <point x="159" y="358" type="curve" smooth="yes"/>
      <point x="141" y="337"/>
      <point x="128" y="313"/>
      <point x="119" y="286" type="curve"/>
      <point x="45" y="286" type="line" smooth="yes"/>
      <point x="36" y="286"/>
      <point x="30" y="284"/>
      <point x="27" y="280" type="curve" smooth="yes"/>
      <point x="23" y="275"/>
      <point x="21" y="269"/>
      <point x="21" y="262" type="curve" smooth="yes"/>
      <point x="21" y="254"/>
      <point x="23" y="248"/>
      <point x="27" y="245" type="curve"/>
      <point x="30" y="240"/>
      <point x="36" y="238"/>
      <point x="45" y="238" type="curve" smooth="yes"/>
      <point x="109" y="238" type="line"/>
      <point x="109" y="215" type="line" smooth="yes"/>
      <point x="109" y="155"/>
      <point x="130" y="104"/>
      <point x="173" y="63" type="curve" smooth="yes"/>
      <point x="218" y="19"/>
      <point x="280" y="-3"/>
      <point x="357" y="-3" type="curve" smooth="yes"/>
      <point x="427" y="-3"/>
      <point x="484" y="19"/>
      <point x="527" y="63" type="curve" smooth="yes"/>
      <point x="569" y="106"/>
      <point x="590" y="156"/>
      <point x="590" y="215" type="curve" smooth="yes"/>
      <point x="590" y="238" type="line"/>
      <point x="699" y="238" type="line"/>
      <point x="684" y="228"/>
      <point x="673" y="213"/>
      <point x="664" y="193" type="curve" smooth="yes"/>
      <point x="655" y="174"/>
      <point x="651" y="156"/>
      <point x="651" y="138" type="curve" smooth="yes"/>
      <point x="651" y="102"/>
      <point x="663" y="72"/>
      <point x="687" y="47" type="curve" smooth="yes"/>
      <point x="712" y="20"/>
      <point x="747" y="7"/>
      <point x="792" y="7" type="curve" smooth="yes"/>
      <point x="831" y="7"/>
      <point x="863" y="18"/>
      <point x="890" y="44" type="curve" smooth="yes"/>
      <point x="918" y="70"/>
      <point x="930" y="105"/>
      <point x="930" y="148" type="curve" smooth="yes"/>
      <point x="930" y="173"/>
      <point x="923" y="197"/>
      <point x="910" y="219" type="curve" smooth="yes"/>
      <point x="896" y="243"/>
      <point x="875" y="260"/>
      <point x="847" y="270" type="curve"/>
      <point x="862" y="277"/>
      <point x="874" y="288"/>
      <point x="883" y="303" type="curve" smooth="yes"/>
      <point x="892" y="319"/>
      <point x="897" y="338"/>
      <point x="897" y="361" type="curve" smooth="yes"/>
      <point x="897" y="392"/>
      <point x="886" y="418"/>
      <point x="864" y="437" type="curve" smooth="yes"/>
      <point x="843" y="455"/>
      <point x="815" y="464"/>
      <point x="778" y="464" type="curve" smooth="yes"/>
      <point x="742" y="464"/>
      <point x="713" y="456"/>
      <point x="689" y="442" type="curve" smooth="yes"/>
      <point x="661" y="425"/>
      <point x="645" y="401"/>
      <point x="645" y="366" type="curve" smooth="yes"/>
      <point x="645" y="349"/>
      <point x="650" y="336"/>
      <point x="660" y="327" type="curve" smooth="yes"/>
      <point x="668" y="320"/>
      <point x="677" y="316"/>
      <point x="687" y="316" type="curve" smooth="yes"/>
      <point x="700" y="316"/>
      <point x="711" y="319"/>
      <point x="719" y="326" type="curve" smooth="yes"/>
      <point x="727" y="333"/>
      <point x="731" y="343"/>
      <point x="731" y="357" type="curve"/>
      <point x="728" y="383" type="line"/>
      <point x="728" y="396"/>
      <point x="734" y="405"/>
      <point x="746" y="412" type="curve"/>
      <point x="757" y="420"/>
      <point x="771" y="424"/>
      <point x="788" y="424" type="curve" smooth="yes"/>
      <point x="807" y="424"/>
      <point x="822" y="418"/>
      <point x="835" y="405" type="curve" smooth="yes"/>
      <point x="846" y="394"/>
      <point x="852" y="380"/>
      <point x="852" y="363" type="curve" smooth="yes"/>
      <point x="852" y="344"/>
      <point x="846" y="327"/>
      <point x="835" y="313" type="curve" smooth="yes"/>
      <point x="822" y="298"/>
      <point x="807" y="289"/>
      <point x="790" y="286" type="curve"/>
      <point x="580" y="286" type="line"/>
      <point x="567" y="325"/>
      <point x="548" y="359"/>
      <point x="519" y="385" type="curve" smooth="yes"/>
      <point x="489" y="413"/>
      <point x="450" y="429"/>
      <point x="406" y="438" type="curve"/>
      <point x="424" y="451"/>
      <point x="448" y="475"/>
      <point x="485" y="501" type="curve" smooth="yes"/>
      <point x="492" y="506" type="line"/>
      <point x="522" y="528" type="line" smooth="yes"/>
      <point x="562" y="557"/>
      <point x="580" y="585"/>
      <point x="580" y="610" type="curve" smooth="yes"/>
      <point x="580" y="626"/>
      <point x="575" y="639"/>
      <point x="564" y="650" type="curve" smooth="yes"/>
      <point x="553" y="661"/>
      <point x="539" y="667"/>
      <point x="522" y="667" type="curve" smooth="yes"/>
      <point x="509" y="667"/>
      <point x="498" y="664"/>
      <point x="489" y="658" type="curve" smooth="yes"/>
      <point x="478" y="652"/>
      <point x="468" y="638"/>
      <point x="458" y="620" type="curve" smooth="yes"/>
      <point x="441" y="589" type="line" smooth="yes"/>
      <point x="386" y="488"/>
      <point x="343" y="438"/>
    </contour>
  </outline>
</glyph>
<glyph name="uni0C09" format="1">
  <advance width="672"/>
  <unicode hex="0C09"/>
  <outline>
    <contour>
      <point x="569" y="230" type="curve" smooth="yes" name="hr00"/>
      <point x="569" y="221"/>
      <point x="565" y="213"/>
      <point x="557" y="208" type="curve"/>
      <point x="550" y="201"/>
      <point x="540" y="198"/>
      <point x="526" y="198" type="curve" smooth="yes"/>
      <point x="517" y="198"/>
      <point x="509" y="201"/>
      <point x="502" y="208" type="curve"/>
      <point x="495" y="213"/>
      <point x="492" y="221"/>
      <point x="492" y="230" type="curve" smooth="yes"/>
      <point x="492" y="240"/>
      <point x="496" y="248"/>
      <point x="505" y="253" type="curve"/>
      <point x="512" y="259"/>
      <point x="520" y="262"/>
      <point x="530" y="262" type="curve" smooth="yes"/>
      <point x="539" y="262"/>
      <point x="548" y="259"/>
      <point x="556" y="253" type="curve" smooth="yes"/>
      <point x="565" y="246"/>
      <point x="569" y="239"/>
    </contour>
    <contour>
      <point x="274" y="115" type="curve" smooth="yes"/>
      <point x="235" y="115"/>
      <point x="205" y="125"/>
      <point x="186" y="148" type="curve" smooth="yes"/>
      <point x="168" y="169"/>
      <point x="160" y="198"/>
      <point x="160" y="233" type="curve"/>
      <point x="367" y="233" type="line" smooth="yes"/>
      <point x="380" y="233"/>
      <point x="390" y="235"/>
      <point x="395" y="238" type="curve" smooth="yes"/>
      <point x="400" y="241"/>
      <point x="402" y="247"/>
      <point x="402" y="255" type="curve" smooth="yes"/>
      <point x="402" y="265"/>
      <point x="400" y="272"/>
      <point x="396" y="277" type="curve"/>
      <point x="391" y="281"/>
      <point x="382" y="283"/>
      <point x="367" y="283" type="curve" smooth="yes"/>
      <point x="172" y="283" type="line"/>
      <point x="181" y="318"/>
      <point x="204" y="347"/>
      <point x="241" y="368" type="curve" smooth="yes"/>
      <point x="276" y="388"/>
      <point x="312" y="398"/>
      <point x="351" y="398" type="curve" smooth="yes"/>
      <point x="403" y="398"/>
      <point x="444" y="382"/>
      <point x="472" y="348" type="curve" smooth="yes"/>
      <point x="487" y="331"/>
      <point x="501" y="321"/>
      <point x="517" y="321" type="curve" smooth="yes"/>
      <point x="530" y="321"/>
      <point x="539" y="324"/>
      <point x="544" y="329" type="curve"/>
      <point x="552" y="334"/>
      <point x="556" y="341"/>
      <point x="556" y="351" type="curve" smooth="yes"/>
      <point x="556" y="377"/>
      <point x="533" y="398"/>
      <point x="486" y="415" type="curve" smooth="yes"/>
      <point x="445" y="430"/>
      <point x="402" y="438"/>
      <point x="357" y="438" type="curve" smooth="yes"/>
      <point x="306" y="438"/>
      <point x="260" y="425"/>
      <point x="219" y="400" type="curve" smooth="yes"/>
      <point x="173" y="373"/>
      <point x="140" y="334"/>
      <point x="121" y="283" type="curve"/>
      <point x="47" y="283" type="line" smooth="yes"/>
      <point x="38" y="283"/>
      <point x="32" y="282"/>
      <point x="28" y="280" type="curve"/>
      <point x="23" y="275"/>
      <point x="21" y="267"/>
      <point x="21" y="255" type="curve" smooth="yes"/>
      <point x="21" y="245"/>
      <point x="23" y="239"/>
      <point x="28" y="236" type="curve" smooth="yes"/>
      <point x="31" y="234"/>
      <point x="37" y="233"/>
      <point x="47" y="233" type="curve" smooth="yes"/>
      <point x="101" y="233" type="line"/>
      <point x="101" y="225" type="line" smooth="yes"/>
      <point x="101" y="205"/>
      <point x="99" y="190"/>
      <point x="99" y="181" type="curve" smooth="yes"/>
      <point x="99" y="119"/>
      <point x="119" y="71"/>
      <point x="160" y="36" type="curve" smooth="yes"/>
      <point x="189" y="11"/>
      <point x="219" y="-1"/>
      <point x="250" y="-1" type="curve" smooth="yes"/>
      <point x="277" y="-1"/>
      <point x="301" y="4"/>
      <point x="321" y="14" type="curve" smooth="yes"/>
      <point x="343" y="25"/>
      <point x="361" y="43"/>
      <point x="374" y="68" type="curve"/>
      <point x="384" y="47"/>
      <point x="398" y="30"/>
      <point x="415" y="18" type="curve" smooth="yes"/>
      <point x="434" y="6"/>
      <point x="456" y="0"/>
      <point x="482" y="0" type="curve" smooth="yes"/>
      <point x="535" y="0"/>
      <point x="575" y="18"/>
      <point x="603" y="54" type="curve" smooth="yes"/>
      <point x="626" y="85"/>
      <point x="637" y="123"/>
      <point x="637" y="168" type="curve" smooth="yes"/>
      <point x="637" y="203"/>
      <point x="627" y="233"/>
      <point x="607" y="259" type="curve" smooth="yes"/>
      <point x="587" y="284"/>
      <point x="560" y="297"/>
      <point x="526" y="297" type="curve" smooth="yes"/>
      <point x="499" y="297"/>
      <point x="476" y="291"/>
      <point x="459" y="280" type="curve" smooth="yes"/>
      <point x="439" y="267"/>
      <point x="429" y="249"/>
      <point x="429" y="226" type="curve" smooth="yes"/>
      <point x="429" y="207"/>
      <point x="437" y="191"/>
      <point x="452" y="178" type="curve" smooth="yes"/>
      <point x="468" y="163"/>
      <point x="489" y="155"/>
      <point x="515" y="155" type="curve" smooth="yes"/>
      <point x="533" y="155"/>
      <point x="549" y="159"/>
      <point x="564" y="168" type="curve" smooth="yes"/>
      <point x="581" y="179"/>
      <point x="591" y="195"/>
      <point x="594" y="215" type="curve"/>
      <point x="596" y="204"/>
      <point x="597" y="196"/>
      <point x="597" y="191" type="curve" smooth="yes"/>
      <point x="597" y="162"/>
      <point x="585" y="142"/>
      <point x="561" y="129" type="curve" smooth="yes"/>
      <point x="543" y="120"/>
      <point x="518" y="115"/>
      <point x="485" y="115" type="curve" smooth="yes"/>
      <point x="459" y="115"/>
      <point x="438" y="121"/>
      <point x="421" y="132" type="curve" smooth="yes"/>
      <point x="402" y="143"/>
      <point x="392" y="158"/>
      <point x="392" y="178" type="curve" smooth="yes"/>
      <point x="392" y="185"/>
      <point x="391" y="192"/>
      <point x="389" y="198" type="curve"/>
      <point x="386" y="201"/>
      <point x="382" y="203"/>
      <point x="377" y="203" type="curve" smooth="yes"/>
      <point x="372" y="203"/>
      <point x="368" y="201"/>
      <point x="365" y="198" type="curve" smooth="yes"/>
      <point x="362" y="193"/>
      <point x="361" y="187"/>
      <point x="361" y="178" type="curve" smooth="yes"/>
      <point x="361" y="160"/>
      <point x="351" y="144"/>
      <point x="330" y="131" type="curve" smooth="yes"/>
      <point x="313" y="120"/>
      <point x="294" y="115"/>
    </contour>
    <contour>
      <point x="406" y="539" type="curve" smooth="yes"/>
      <point x="406" y="552"/>
      <point x="402" y="564"/>
      <point x="395" y="575" type="curve" smooth="yes"/>
      <point x="386" y="588"/>
      <point x="374" y="594"/>
      <point x="357" y="594" type="curve" smooth="yes"/>
      <point x="342" y="594"/>
      <point x="330" y="588"/>
      <point x="321" y="575" type="curve" smooth="yes"/>
      <point x="314" y="564"/>
      <point x="310" y="552"/>
      <point x="310" y="539" type="curve" smooth="yes"/>
      <point x="310" y="520"/>
      <point x="319" y="499"/>
      <point x="337" y="476" type="curve" smooth="yes"/>
      <point x="346" y="463"/>
      <point x="351" y="454"/>
      <point x="354" y="448" type="curve"/>
      <point x="362" y="448" type="line"/>
      <point x="364" y="455"/>
      <point x="370" y="464"/>
      <point x="379" y="476" type="curve" smooth="yes"/>
      <point x="397" y="499"/>
      <point x="406" y="520"/>
    </contour>
  </outline>
</glyph>
<glyph name="uni0C0A" format="1">
  <advance width="965"/>
  <unicode hex="0C0A"/>
  <outline>
    <contour>
      <point x="485" y="533" type="curve" smooth="yes" name="hr00"/>
      <point x="485" y="546"/>
      <point x="481" y="558"/>
      <point x="472" y="569" type="curve" smooth="yes"/>
      <point x="463" y="582"/>
      <point x="450" y="589"/>
      <point x="433" y="589" type="curve" smooth="yes"/>
      <point x="419" y="589"/>
      <point x="408" y="582"/>
      <point x="399" y="569" type="curve" smooth="yes"/>
      <point x="391" y="558"/>
      <point x="387" y="546"/>
      <point x="387" y="533" type="curve" smooth="yes"/>
      <point x="387" y="515"/>
      <point x="397" y="495"/>
      <point x="415" y="471" type="curve" smooth="yes"/>
      <point x="425" y="459"/>
      <point x="429" y="448"/>
      <point x="432" y="442" type="curve"/>
      <point x="441" y="442" type="line"/>
      <point x="442" y="450"/>
      <point x="449" y="460"/>
      <point x="458" y="471" type="curve" smooth="yes"/>
      <point x="477" y="494"/>
      <point x="485" y="515"/>
    </contour>
    <contour>
      <point x="364" y="533" type="curve" smooth="yes"/>
      <point x="364" y="546"/>
      <point x="360" y="558"/>
      <point x="352" y="569" type="curve" smooth="yes"/>
      <point x="344" y="582"/>
      <point x="331" y="589"/>
      <point x="314" y="589" type="curve" smooth="yes"/>
      <point x="299" y="589"/>
      <point x="287" y="582"/>
      <point x="278" y="569" type="curve" smooth="yes"/>
      <point x="271" y="558"/>
      <point x="267" y="546"/>
      <point x="267" y="533" type="curve" smooth="yes"/>
      <point x="267" y="515"/>
      <point x="276" y="494"/>
      <point x="294" y="471" type="curve" smooth="yes"/>
      <point x="303" y="458"/>
      <point x="308" y="448"/>
      <point x="311" y="442" type="curve"/>
      <point x="320" y="442" type="line"/>
      <point x="322" y="450"/>
      <point x="328" y="460"/>
      <point x="337" y="471" type="curve" smooth="yes"/>
      <point x="355" y="494"/>
      <point x="364" y="515"/>
    </contour>
    <contour>
      <point x="869" y="168" type="curve" smooth="yes"/>
      <point x="869" y="145"/>
      <point x="862" y="128"/>
      <point x="847" y="115" type="curve" smooth="yes"/>
      <point x="835" y="103"/>
      <point x="816" y="97"/>
      <point x="789" y="97" type="curve" smooth="yes"/>
      <point x="765" y="97"/>
      <point x="746" y="103"/>
      <point x="732" y="115" type="curve"/>
      <point x="720" y="128"/>
      <point x="714" y="144"/>
      <point x="714" y="164" type="curve" smooth="yes"/>
      <point x="714" y="181"/>
      <point x="721" y="195"/>
      <point x="736" y="208" type="curve"/>
      <point x="751" y="218"/>
      <point x="769" y="223"/>
      <point x="790" y="223" type="curve" smooth="yes"/>
      <point x="811" y="223"/>
      <point x="829" y="219"/>
      <point x="844" y="210" type="curve" smooth="yes"/>
      <point x="861" y="200"/>
      <point x="869" y="186"/>
    </contour>
    <contour>
      <point x="556" y="223" type="curve" smooth="yes"/>
      <point x="550" y="223"/>
      <point x="546" y="222"/>
      <point x="543" y="219" type="curve" smooth="yes"/>
      <point x="540" y="215"/>
      <point x="539" y="211"/>
      <point x="539" y="206" type="curve" smooth="yes"/>
      <point x="539" y="201"/>
      <point x="541" y="196"/>
      <point x="544" y="192" type="curve" smooth="yes"/>
      <point x="548" y="185"/>
      <point x="550" y="177"/>
      <point x="550" y="168" type="curve" smooth="yes"/>
      <point x="550" y="153"/>
      <point x="544" y="141"/>
      <point x="532" y="131" type="curve" smooth="yes"/>
      <point x="517" y="120"/>
      <point x="500" y="115"/>
      <point x="480" y="115" type="curve" smooth="yes"/>
      <point x="455" y="115"/>
      <point x="434" y="121"/>
      <point x="416" y="132" type="curve" smooth="yes"/>
      <point x="398" y="143"/>
      <point x="389" y="158"/>
      <point x="389" y="178" type="curve" smooth="yes"/>
      <point x="389" y="185"/>
      <point x="388" y="192"/>
      <point x="385" y="198" type="curve"/>
      <point x="381" y="201"/>
      <point x="377" y="203"/>
      <point x="374" y="203" type="curve" smooth="yes"/>
      <point x="368" y="203"/>
      <point x="364" y="201"/>
      <point x="361" y="198" type="curve" smooth="yes"/>
      <point x="358" y="193"/>
      <point x="357" y="187"/>
      <point x="357" y="178" type="curve" smooth="yes"/>
      <point x="357" y="160"/>
      <point x="346" y="144"/>
      <point x="325" y="131" type="curve" smooth="yes"/>
      <point x="308" y="120"/>
      <point x="290" y="115"/>
      <point x="270" y="115" type="curve" smooth="yes"/>
      <point x="234" y="115"/>
      <point x="206" y="126"/>
      <point x="185" y="148" type="curve" smooth="yes"/>
      <point x="165" y="168"/>
      <point x="155" y="193"/>
      <point x="155" y="223" type="curve" smooth="yes"/>
      <point x="155" y="233" type="line"/>
      <point x="699" y="233" type="line"/>
      <point x="684" y="224"/>
      <point x="674" y="209"/>
      <point x="664" y="188" type="curve" smooth="yes"/>
      <point x="656" y="170"/>
      <point x="651" y="151"/>
      <point x="651" y="132" type="curve" smooth="yes"/>
      <point x="651" y="97"/>
      <point x="663" y="67"/>
      <point x="687" y="41" type="curve" smooth="yes"/>
      <point x="712" y="14"/>
      <point x="747" y="1"/>
      <point x="792" y="1" type="curve" smooth="yes"/>
      <point x="831" y="1"/>
      <point x="863" y="14"/>
      <point x="890" y="40" type="curve" smooth="yes"/>
      <point x="917" y="67"/>
      <point x="930" y="101"/>
      <point x="930" y="142" type="curve" smooth="yes"/>
      <point x="930" y="168"/>
      <point x="923" y="192"/>
      <point x="910" y="213" type="curve" smooth="yes"/>
      <point x="895" y="238"/>
      <point x="875" y="254"/>
      <point x="847" y="263" type="curve"/>
      <point x="862" y="272"/>
      <point x="875" y="283"/>
      <point x="883" y="297" type="curve" smooth="yes"/>
      <point x="893" y="314"/>
      <point x="897" y="334"/>
      <point x="897" y="356" type="curve" smooth="yes"/>
      <point x="897" y="388"/>
      <point x="886" y="413"/>
      <point x="864" y="431" type="curve" smooth="yes"/>
      <point x="843" y="449"/>
      <point x="815" y="458"/>
      <point x="778" y="458" type="curve" smooth="yes"/>
      <point x="742" y="458"/>
      <point x="712" y="451"/>
      <point x="689" y="438" type="curve" smooth="yes"/>
      <point x="660" y="421"/>
      <point x="645" y="395"/>
      <point x="645" y="360" type="curve" smooth="yes"/>
      <point x="645" y="344"/>
      <point x="650" y="332"/>
      <point x="660" y="323" type="curve"/>
      <point x="668" y="314"/>
      <point x="677" y="310"/>
      <point x="687" y="310" type="curve" smooth="yes"/>
      <point x="700" y="310"/>
      <point x="711" y="313"/>
      <point x="719" y="320" type="curve" smooth="yes"/>
      <point x="727" y="327"/>
      <point x="731" y="338"/>
      <point x="731" y="353" type="curve"/>
      <point x="728" y="378" type="line"/>
      <point x="728" y="391"/>
      <point x="734" y="401"/>
      <point x="746" y="408" type="curve" smooth="yes"/>
      <point x="757" y="415"/>
      <point x="771" y="418"/>
      <point x="788" y="418" type="curve" smooth="yes"/>
      <point x="807" y="418"/>
      <point x="822" y="412"/>
      <point x="835" y="400" type="curve" smooth="yes"/>
      <point x="846" y="389"/>
      <point x="852" y="374"/>
      <point x="852" y="357" type="curve" smooth="yes"/>
      <point x="852" y="338"/>
      <point x="847" y="322"/>
      <point x="835" y="307" type="curve" smooth="yes"/>
      <point x="823" y="292"/>
      <point x="807" y="283"/>
      <point x="790" y="280" type="curve"/>
      <point x="166" y="280" type="line"/>
      <point x="179" y="313"/>
      <point x="200" y="342"/>
      <point x="229" y="363" type="curve" smooth="yes"/>
      <point x="262" y="387"/>
      <point x="299" y="398"/>
      <point x="341" y="398" type="curve" smooth="yes"/>
      <point x="372" y="398"/>
      <point x="397" y="394"/>
      <point x="416" y="387" type="curve" smooth="yes"/>
      <point x="431" y="381"/>
      <point x="445" y="373"/>
      <point x="453" y="361" type="curve" smooth="yes"/>
      <point x="469" y="338" type="line"/>
      <point x="482" y="315"/>
      <point x="500" y="303"/>
      <point x="522" y="303" type="curve" smooth="yes"/>
      <point x="531" y="303"/>
      <point x="540" y="306"/>
      <point x="547" y="313" type="curve" smooth="yes"/>
      <point x="556" y="320"/>
      <point x="560" y="327"/>
      <point x="560" y="336" type="curve" smooth="yes"/>
      <point x="560" y="367"/>
      <point x="538" y="392"/>
      <point x="493" y="411" type="curve" smooth="yes"/>
      <point x="453" y="429"/>
      <point x="408" y="438"/>
      <point x="357" y="438" type="curve" smooth="yes"/>
      <point x="293" y="438"/>
      <point x="240" y="421"/>
      <point x="199" y="391" type="curve" smooth="yes"/>
      <point x="161" y="363"/>
      <point x="133" y="327"/>
      <point x="116" y="280" type="curve"/>
      <point x="45" y="280" type="line" smooth="yes"/>
      <point x="36" y="280"/>
      <point x="30" y="278"/>
      <point x="27" y="274" type="curve" smooth="yes"/>
      <point x="23" y="269"/>
      <point x="21" y="263"/>
      <point x="21" y="256" type="curve" smooth="yes"/>
      <point x="21" y="249"/>
      <point x="23" y="244"/>
      <point x="27" y="240" type="curve"/>
      <point x="30" y="235"/>
      <point x="36" y="233"/>
      <point x="45" y="233" type="curve" smooth="yes"/>
      <point x="105" y="233" type="line"/>
      <point x="104" y="224"/>
      <point x="103" y="213"/>
      <point x="103" y="198" type="curve" smooth="yes"/>
      <point x="103" y="144"/>
      <point x="118" y="99"/>
      <point x="146" y="61" type="curve" smooth="yes"/>
      <point x="176" y="22"/>
      <point x="214" y="1"/>
      <point x="263" y="1" type="curve" smooth="yes"/>
      <point x="284" y="1"/>
      <point x="304" y="6"/>
      <point x="325" y="17" type="curve" smooth="yes"/>
      <point x="346" y="28"/>
      <point x="361" y="41"/>
      <point x="368" y="58" type="curve"/>
      <point x="377" y="40"/>
      <point x="389" y="26"/>
      <point x="406" y="17" type="curve"/>
      <point x="423" y="6"/>
      <point x="445" y="1"/>
      <point x="470" y="1" type="curve" smooth="yes"/>
      <point x="508" y="1"/>
      <point x="539" y="13"/>
      <point x="564" y="37" type="curve" smooth="yes"/>
      <point x="593" y="64"/>
      <point x="607" y="101"/>
      <point x="607" y="148" type="curve" smooth="yes"/>
      <point x="607" y="166"/>
      <point x="602" y="183"/>
      <point x="591" y="198" type="curve"/>
      <point x="582" y="215"/>
      <point x="570" y="223"/>
    </contour>
  </outline>
</glyph>
<glyph name="uni0C0B" format="1">
  <advance width="1147"/>
  <unicode hex="0C0B"/>
  <outline>
    <contour>
      <point x="406" y="108" type="curve" smooth="yes" name="hr00"/>
      <point x="379" y="108"/>
      <point x="357" y="115"/>
      <point x="342" y="129" type="curve" smooth="yes"/>
      <point x="327" y="144"/>
      <point x="320" y="163"/>
      <point x="320" y="186" type="curve" smooth="yes"/>
      <point x="320" y="194"/>
      <point x="318" y="201"/>
      <point x="314" y="208" type="curve" smooth="yes"/>
      <point x="312" y="213"/>
      <point x="309" y="215"/>
      <point x="304" y="215" type="curve" smooth="yes"/>
      <point x="298" y="215"/>
      <point x="294" y="213"/>
      <point x="291" y="210" type="curve" smooth="yes"/>
      <point x="288" y="205"/>
      <point x="287" y="199"/>
      <point x="287" y="192" type="curve" smooth="yes"/>
      <point x="287" y="168"/>
      <point x="278" y="150"/>
      <point x="259" y="134" type="curve" smooth="yes"/>
      <point x="239" y="118"/>
      <point x="219" y="108"/>
      <point x="195" y="108" type="curve" smooth="yes"/>
      <point x="158" y="108"/>
      <point x="131" y="112"/>
      <point x="116" y="121" type="curve"/>
      <point x="99" y="128"/>
      <point x="91" y="141"/>
      <point x="91" y="159" type="curve" smooth="yes"/>
      <point x="91" y="174"/>
      <point x="97" y="186"/>
      <point x="109" y="195" type="curve" smooth="yes"/>
      <point x="120" y="204"/>
      <point x="148" y="214"/>
      <point x="192" y="225" type="curve" smooth="yes"/>
      <point x="229" y="235"/>
      <point x="255" y="249"/>
      <point x="271" y="267" type="curve" smooth="yes"/>
      <point x="286" y="284"/>
      <point x="293" y="307"/>
      <point x="293" y="336" type="curve" smooth="yes"/>
      <point x="293" y="367"/>
      <point x="280" y="394"/>
      <point x="253" y="415" type="curve" smooth="yes"/>
      <point x="226" y="437"/>
      <point x="194" y="448"/>
      <point x="156" y="448" type="curve" smooth="yes"/>
      <point x="119" y="448"/>
      <point x="88" y="438"/>
      <point x="62" y="417" type="curve" smooth="yes"/>
      <point x="37" y="397"/>
      <point x="24" y="372"/>
      <point x="24" y="343" type="curve" smooth="yes"/>
      <point x="24" y="327"/>
      <point x="29" y="313"/>
      <point x="39" y="302" type="curve" smooth="yes"/>
      <point x="51" y="290"/>
      <point x="64" y="284"/>
      <point x="78" y="284" type="curve" smooth="yes"/>
      <point x="95" y="284"/>
      <point x="107" y="287"/>
      <point x="116" y="293" type="curve" smooth="yes"/>
      <point x="125" y="299"/>
      <point x="129" y="308"/>
      <point x="129" y="319" type="curve" smooth="yes"/>
      <point x="129" y="322"/>
      <point x="127" y="328"/>
      <point x="122" y="338" type="curve" smooth="yes"/>
      <point x="118" y="346"/>
      <point x="116" y="352"/>
      <point x="116" y="356" type="curve" smooth="yes"/>
      <point x="116" y="365"/>
      <point x="122" y="374"/>
      <point x="135" y="383" type="curve" smooth="yes"/>
      <point x="147" y="390"/>
      <point x="161" y="394"/>
      <point x="177" y="394" type="curve" smooth="yes"/>
      <point x="200" y="394"/>
      <point x="218" y="388"/>
      <point x="229" y="377" type="curve" smooth="yes"/>
      <point x="241" y="364"/>
      <point x="247" y="348"/>
      <point x="247" y="327" type="curve" smooth="yes"/>
      <point x="247" y="310"/>
      <point x="240" y="297"/>
      <point x="226" y="286" type="curve" smooth="yes"/>
      <point x="211" y="275"/>
      <point x="189" y="268"/>
      <point x="159" y="263" type="curve" smooth="yes"/>
      <point x="110" y="254"/>
      <point x="75" y="240"/>
      <point x="54" y="219" type="curve" smooth="yes"/>
      <point x="32" y="197"/>
      <point x="21" y="168"/>
      <point x="21" y="131" type="curve" smooth="yes"/>
      <point x="21" y="95"/>
      <point x="36" y="66"/>
      <point x="64" y="40" type="curve" smooth="yes"/>
      <point x="93" y="14"/>
      <point x="126" y="0"/>
      <point x="166" y="0" type="curve" smooth="yes"/>
      <point x="197" y="0"/>
      <point x="224" y="6"/>
      <point x="246" y="17" type="curve" smooth="yes"/>
      <point x="267" y="28"/>
      <point x="285" y="44"/>
      <point x="298" y="65" type="curve"/>
      <point x="309" y="46"/>
      <point x="324" y="29"/>
      <point x="344" y="17" type="curve" smooth="yes"/>
      <point x="364" y="5"/>
      <point x="386" y="0"/>
      <point x="409" y="0" type="curve" smooth="yes"/>
      <point x="436" y="0"/>
      <point x="461" y="5"/>
      <point x="485" y="18" type="curve" smooth="yes"/>
      <point x="508" y="30"/>
      <point x="525" y="48"/>
      <point x="537" y="70" type="curve"/>
      <point x="552" y="47"/>
      <point x="571" y="30"/>
      <point x="594" y="17" type="curve" smooth="yes"/>
      <point x="616" y="4"/>
      <point x="640" y="-3"/>
      <point x="665" y="-3" type="curve" smooth="yes"/>
      <point x="696" y="-3"/>
      <point x="724" y="4"/>
      <point x="749" y="18" type="curve" smooth="yes"/>
      <point x="773" y="31"/>
      <point x="792" y="49"/>
      <point x="805" y="73" type="curve"/>
      <point x="819" y="49"/>
      <point x="838" y="32"/>
      <point x="862" y="18" type="curve" smooth="yes"/>
      <point x="885" y="5"/>
      <point x="910" y="-3"/>
      <point x="937" y="-3" type="curve" smooth="yes"/>
      <point x="993" y="-3"/>
      <point x="1035" y="17"/>
      <point x="1065" y="58" type="curve" smooth="yes"/>
      <point x="1095" y="99"/>
      <point x="1112" y="155"/>
      <point x="1112" y="228" type="curve" smooth="yes"/>
      <point x="1112" y="287"/>
      <point x="1095" y="337"/>
      <point x="1062" y="378" type="curve" smooth="yes"/>
      <point x="1028" y="420"/>
      <point x="987" y="441"/>
      <point x="940" y="441" type="curve" smooth="yes"/>
      <point x="923" y="441"/>
      <point x="910" y="438"/>
      <point x="901" y="431" type="curve" smooth="yes"/>
      <point x="893" y="426"/>
      <point x="889" y="418"/>
      <point x="889" y="407" type="curve" smooth="yes"/>
      <point x="889" y="394"/>
      <point x="893" y="384"/>
      <point x="900" y="378" type="curve"/>
      <point x="907" y="375"/>
      <point x="922" y="373"/>
      <point x="944" y="373" type="curve" smooth="yes"/>
      <point x="976" y="373"/>
      <point x="1004" y="361"/>
      <point x="1028" y="336" type="curve" smooth="yes"/>
      <point x="1051" y="311"/>
      <point x="1063" y="282"/>
      <point x="1063" y="247" type="curve" smooth="yes"/>
      <point x="1063" y="210"/>
      <point x="1052" y="177"/>
      <point x="1029" y="148" type="curve" smooth="yes"/>
      <point x="1006" y="121"/>
      <point x="979" y="108"/>
      <point x="948" y="108" type="curve" smooth="yes"/>
      <point x="923" y="108"/>
      <point x="901" y="114"/>
      <point x="881" y="125" type="curve" smooth="yes"/>
      <point x="862" y="136"/>
      <point x="847" y="150"/>
      <point x="837" y="168" type="curve"/>
      <point x="840" y="186"/>
      <point x="842" y="206"/>
      <point x="842" y="228" type="curve" smooth="yes"/>
      <point x="842" y="287"/>
      <point x="825" y="337"/>
      <point x="792" y="378" type="curve" smooth="yes"/>
      <point x="758" y="420"/>
      <point x="717" y="441"/>
      <point x="668" y="441" type="curve" smooth="yes"/>
      <point x="652" y="441"/>
      <point x="640" y="438"/>
      <point x="631" y="431" type="curve"/>
      <point x="622" y="426"/>
      <point x="617" y="418"/>
      <point x="617" y="407" type="curve" smooth="yes"/>
      <point x="617" y="394"/>
      <point x="621" y="384"/>
      <point x="630" y="378" type="curve"/>
      <point x="637" y="375"/>
      <point x="652" y="373"/>
      <point x="674" y="373" type="curve" smooth="yes"/>
      <point x="706" y="373"/>
      <point x="734" y="361"/>
      <point x="758" y="336" type="curve" smooth="yes"/>
      <point x="781" y="311"/>
      <point x="792" y="282"/>
      <point x="792" y="247" type="curve" smooth="yes"/>
      <point x="792" y="210"/>
      <point x="782" y="176"/>
      <point x="759" y="148" type="curve" smooth="yes"/>
      <point x="737" y="120"/>
      <point x="709" y="108"/>
      <point x="677" y="108" type="curve" smooth="yes"/>
      <point x="653" y="108"/>
      <point x="631" y="114"/>
      <point x="610" y="125" type="curve" smooth="yes"/>
      <point x="590" y="136"/>
      <point x="575" y="150"/>
      <point x="566" y="168" type="curve"/>
      <point x="569" y="193"/>
      <point x="570" y="213"/>
      <point x="570" y="228" type="curve" smooth="yes"/>
      <point x="570" y="287"/>
      <point x="552" y="337"/>
      <point x="519" y="378" type="curve" smooth="yes"/>
      <point x="485" y="420"/>
      <point x="445" y="441"/>
      <point x="396" y="441" type="curve" smooth="yes"/>
      <point x="380" y="441"/>
      <point x="368" y="438"/>
      <point x="359" y="431" type="curve" smooth="yes"/>
      <point x="351" y="426"/>
      <point x="347" y="418"/>
      <point x="347" y="407" type="curve" smooth="yes"/>
      <point x="347" y="394"/>
      <point x="350" y="384"/>
      <point x="357" y="378" type="curve"/>
      <point x="365" y="375"/>
      <point x="380" y="373"/>
      <point x="402" y="373" type="curve" smooth="yes"/>
      <point x="435" y="373"/>
      <point x="463" y="361"/>
      <point x="486" y="336" type="curve" smooth="yes"/>
      <point x="510" y="311"/>
      <point x="522" y="282"/>
      <point x="522" y="247" type="curve" smooth="yes"/>
      <point x="522" y="210"/>
      <point x="510" y="177"/>
      <point x="487" y="148" type="curve" smooth="yes"/>
      <point x="464" y="121"/>
      <point x="437" y="108"/>
    </contour>
  </outline>
</glyph>
<glyph name="uni0C0C" format="1">
  <advance width="827"/>
  <unicode hex="0C0C"/>
  <outline>
    <contour>
      <point x="559" y="307" type="curve" smooth="yes" name="hr00"/>
      <point x="561" y="320"/>
      <point x="564" y="333"/>
      <point x="564" y="348" type="curve" smooth="yes"/>
      <point x="564" y="388"/>
      <point x="548" y="420"/>
      <point x="517" y="445" type="curve" smooth="yes"/>
      <point x="490" y="468"/>
      <point x="457" y="479"/>
      <point x="419" y="479" type="curve" smooth="yes"/>
      <point x="382" y="479"/>
      <point x="352" y="472"/>
      <point x="328" y="457" type="curve" smooth="yes"/>
      <point x="312" y="446"/>
      <point x="298" y="431"/>
      <point x="287" y="412" type="curve"/>
      <point x="278" y="429"/>
      <point x="266" y="444"/>
      <point x="249" y="454" type="curve" smooth="yes"/>
      <point x="226" y="468"/>
      <point x="198" y="474"/>
      <point x="166" y="474" type="curve" smooth="yes"/>
      <point x="125" y="474"/>
      <point x="92" y="460"/>
      <point x="64" y="431" type="curve" smooth="yes"/>
      <point x="36" y="401"/>
      <point x="21" y="367"/>
      <point x="21" y="324" type="curve" smooth="yes"/>
      <point x="21" y="285"/>
      <point x="30" y="255"/>
      <point x="48" y="232" type="curve" smooth="yes"/>
      <point x="59" y="217"/>
      <point x="73" y="206"/>
      <point x="88" y="199" type="curve" smooth="yes"/>
      <point x="95" y="196" type="line"/>
      <point x="101" y="196" type="line" smooth="yes"/>
      <point x="106" y="196"/>
      <point x="109" y="197"/>
      <point x="111" y="199" type="curve" smooth="yes"/>
      <point x="114" y="201"/>
      <point x="116" y="203"/>
      <point x="116" y="206" type="curve" smooth="yes"/>
      <point x="116" y="207"/>
      <point x="116" y="208"/>
      <point x="115" y="209" type="curve" smooth="yes"/>
      <point x="101" y="228"/>
      <point x="94" y="252"/>
      <point x="94" y="280" type="curve" smooth="yes"/>
      <point x="94" y="303"/>
      <point x="103" y="321"/>
      <point x="118" y="338" type="curve" smooth="yes"/>
      <point x="135" y="356"/>
      <point x="155" y="366"/>
      <point x="180" y="366" type="curve" smooth="yes"/>
      <point x="209" y="366"/>
      <point x="230" y="360"/>
      <point x="243" y="348" type="curve" smooth="yes"/>
      <point x="258" y="335"/>
      <point x="266" y="317"/>
      <point x="266" y="293" type="curve" smooth="yes"/>
      <point x="266" y="284"/>
      <point x="267" y="277"/>
      <point x="268" y="272" type="curve"/>
      <point x="272" y="266"/>
      <point x="276" y="263"/>
      <point x="280" y="263" type="curve" smooth="yes"/>
      <point x="287" y="263"/>
      <point x="292" y="266"/>
      <point x="295" y="272" type="curve" smooth="yes"/>
      <point x="297" y="275"/>
      <point x="298" y="280"/>
      <point x="298" y="287" type="curve" smooth="yes"/>
      <point x="298" y="311"/>
      <point x="309" y="331"/>
      <point x="331" y="348" type="curve" smooth="yes"/>
      <point x="351" y="363"/>
      <point x="371" y="370"/>
      <point x="391" y="370" type="curve" smooth="yes"/>
      <point x="422" y="370"/>
      <point x="445" y="366"/>
      <point x="460" y="361" type="curve" smooth="yes"/>
      <point x="482" y="353"/>
      <point x="493" y="340"/>
      <point x="493" y="319" type="curve" smooth="yes"/>
      <point x="493" y="292"/>
      <point x="475" y="258"/>
      <point x="438" y="216" type="curve"/>
      <point x="355" y="151"/>
      <point x="314" y="95"/>
      <point x="314" y="50" type="curve" smooth="yes"/>
      <point x="314" y="40" type="line" smooth="yes"/>
      <point x="314" y="11"/>
      <point x="326" y="-20"/>
      <point x="350" y="-53" type="curve"/>
      <point x="407" y="-112"/>
      <point x="470" y="-142"/>
      <point x="537" y="-142" type="curve" smooth="yes"/>
      <point x="573" y="-142"/>
      <point x="610" y="-137"/>
      <point x="644" y="-121" type="curve" smooth="yes"/>
      <point x="744" y="-76"/>
      <point x="792" y="25"/>
      <point x="792" y="174" type="curve" smooth="yes"/>
      <point x="792" y="199"/>
      <point x="791" y="228"/>
      <point x="785" y="259" type="curve" smooth="yes"/>
      <point x="759" y="383"/>
      <point x="715" y="445"/>
      <point x="654" y="445" type="curve" smooth="yes"/>
      <point x="652" y="445" type="line" smooth="yes"/>
      <point x="633" y="441"/>
      <point x="623" y="429"/>
      <point x="623" y="408" type="curve" smooth="yes"/>
      <point x="623" y="390"/>
      <point x="634" y="373"/>
      <point x="658" y="360" type="curve" smooth="yes"/>
      <point x="715" y="328"/>
      <point x="745" y="273"/>
      <point x="745" y="191" type="curve" smooth="yes"/>
      <point x="745" y="140"/>
      <point x="736" y="97"/>
      <point x="718" y="64" type="curve" smooth="yes"/>
      <point x="678" y="-11"/>
      <point x="620" y="-48"/>
      <point x="544" y="-48" type="curve" smooth="yes"/>
      <point x="522" y="-48" type="line" smooth="yes"/>
      <point x="515" y="-48"/>
      <point x="506" y="-47"/>
      <point x="493" y="-46" type="curve"/>
      <point x="416" y="-25"/>
      <point x="378" y="7"/>
      <point x="378" y="48" type="curve" smooth="yes"/>
      <point x="378" y="89"/>
      <point x="421" y="142"/>
      <point x="506" y="206" type="curve"/>
      <point x="536" y="239"/>
      <point x="553" y="272"/>
    </contour>
  </outline>
</glyph>
<glyph name="uni0C0F" format="1">
  <advance width="644"/>
  <unicode hex="0C0F"/>
  <outline>
    <contour>
      <point x="284" y="208" type="curve" smooth="yes" name="hr00"/>
      <point x="284" y="181"/>
      <point x="278" y="158"/>
      <point x="264" y="139" type="curve" smooth="yes"/>
      <point x="249" y="118"/>
      <point x="223" y="108"/>
      <point x="189" y="108" type="curve" smooth="yes"/>
      <point x="156" y="108"/>
      <point x="131" y="119"/>
      <point x="113" y="142" type="curve" smooth="yes"/>
      <point x="98" y="161"/>
      <point x="91" y="183"/>
      <point x="91" y="208" type="curve" smooth="yes"/>
      <point x="91" y="231"/>
      <point x="100" y="250"/>
      <point x="118" y="267" type="curve" smooth="yes"/>
      <point x="137" y="284"/>
      <point x="159" y="292"/>
      <point x="186" y="292" type="curve" smooth="yes"/>
      <point x="213" y="292"/>
      <point x="235" y="283"/>
      <point x="254" y="267" type="curve" smooth="yes"/>
      <point x="274" y="250"/>
      <point x="284" y="231"/>
    </contour>
    <contour>
      <point x="608" y="272" type="curve" smooth="yes"/>
      <point x="608" y="358"/>
      <point x="583" y="438"/>
      <point x="530" y="511" type="curve" smooth="yes"/>
      <point x="473" y="590"/>
      <point x="401" y="630"/>
      <point x="318" y="630" type="curve" smooth="yes"/>
      <point x="298" y="630"/>
      <point x="281" y="626"/>
      <point x="266" y="619" type="curve" smooth="yes"/>
      <point x="247" y="609"/>
      <point x="237" y="594"/>
      <point x="237" y="573" type="curve" smooth="yes"/>
      <point x="237" y="560"/>
      <point x="242" y="550"/>
      <point x="251" y="543" type="curve"/>
      <point x="260" y="538"/>
      <point x="271" y="535"/>
      <point x="284" y="535" type="curve" smooth="yes"/>
      <point x="291" y="535"/>
      <point x="302" y="537"/>
      <point x="317" y="540" type="curve" smooth="yes"/>
      <point x="333" y="543"/>
      <point x="345" y="545"/>
      <point x="352" y="545" type="curve" smooth="yes"/>
      <point x="401" y="545"/>
      <point x="446" y="519"/>
      <point x="487" y="468" type="curve" smooth="yes"/>
      <point x="530" y="415"/>
      <point x="551" y="352"/>
      <point x="551" y="280" type="curve" smooth="yes"/>
      <point x="551" y="237"/>
      <point x="542" y="200"/>
      <point x="524" y="169" type="curve" smooth="yes"/>
      <point x="505" y="135"/>
      <point x="478" y="118"/>
      <point x="445" y="118" type="curve" smooth="yes"/>
      <point x="400" y="118"/>
      <point x="365" y="150"/>
      <point x="344" y="215" type="curve" smooth="yes"/>
      <point x="336" y="238"/>
      <point x="332" y="253"/>
      <point x="327" y="262" type="curve" smooth="yes"/>
      <point x="314" y="283"/>
      <point x="298" y="300"/>
      <point x="278" y="314" type="curve" smooth="yes"/>
      <point x="253" y="331"/>
      <point x="226" y="340"/>
      <point x="196" y="340" type="curve" smooth="yes"/>
      <point x="141" y="340"/>
      <point x="98" y="324"/>
      <point x="68" y="292" type="curve" smooth="yes"/>
      <point x="37" y="259"/>
      <point x="21" y="217"/>
      <point x="21" y="165" type="curve" smooth="yes"/>
      <point x="21" y="118"/>
      <point x="37" y="79"/>
      <point x="69" y="47" type="curve" smooth="yes"/>
      <point x="100" y="15"/>
      <point x="138" y="-1"/>
      <point x="182" y="-1" type="curve" smooth="yes"/>
      <point x="213" y="-1"/>
      <point x="242" y="8"/>
      <point x="268" y="26" type="curve" smooth="yes"/>
      <point x="290" y="42"/>
      <point x="305" y="59"/>
      <point x="313" y="77" type="curve"/>
      <point x="316" y="59"/>
      <point x="327" y="42"/>
      <point x="344" y="27" type="curve" smooth="yes"/>
      <point x="364" y="9"/>
      <point x="388" y="0"/>
      <point x="415" y="0" type="curve" smooth="yes"/>
      <point x="483" y="0"/>
      <point x="533" y="27"/>
      <point x="566" y="80" type="curve" smooth="yes"/>
      <point x="594" y="125"/>
      <point x="608" y="189"/>
    </contour>
    <contour>
      <point x="222" y="745" type="curve" smooth="yes"/>
      <point x="178" y="745"/>
      <point x="142" y="729"/>
      <point x="111" y="698" type="curve" smooth="yes"/>
      <point x="82" y="669"/>
      <point x="68" y="636"/>
      <point x="68" y="596" type="curve" smooth="yes"/>
      <point x="68" y="567"/>
      <point x="75" y="543"/>
      <point x="89" y="522" type="curve" smooth="yes"/>
      <point x="105" y="497"/>
      <point x="125" y="485"/>
      <point x="149" y="485" type="curve" smooth="yes"/>
      <point x="152" y="485"/>
      <point x="154" y="485"/>
      <point x="156" y="486" type="curve" smooth="yes"/>
      <point x="158" y="488"/>
      <point x="159" y="491"/>
      <point x="159" y="494" type="curve" smooth="yes"/>
      <point x="159" y="494"/>
      <point x="158" y="495"/>
      <point x="156" y="498" type="curve"/>
      <point x="156" y="500"/>
      <point x="156" y="501"/>
      <point x="155" y="501" type="curve" smooth="yes"/>
      <point x="146" y="509"/>
      <point x="140" y="518"/>
      <point x="136" y="529" type="curve" smooth="yes"/>
      <point x="133" y="536"/>
      <point x="132" y="547"/>
      <point x="132" y="560" type="curve" smooth="yes"/>
      <point x="132" y="593"/>
      <point x="144" y="619"/>
      <point x="169" y="643" type="curve" smooth="yes"/>
      <point x="195" y="667"/>
      <point x="224" y="680"/>
      <point x="259" y="680" type="curve" smooth="yes"/>
      <point x="278" y="680"/>
      <point x="296" y="676"/>
      <point x="314" y="667" type="curve"/>
      <point x="314" y="668" type="line"/>
      <point x="316" y="672"/>
      <point x="317" y="675"/>
      <point x="317" y="677" type="curve" smooth="yes"/>
      <point x="317" y="696"/>
      <point x="306" y="712"/>
      <point x="284" y="727" type="curve" smooth="yes"/>
      <point x="266" y="739"/>
      <point x="245" y="745"/>
    </contour>
  </outline>
</glyph>
<glyph name="uni0C10" format="1">
  <advance width="607"/>
  <unicode hex="0C10"/>
  <outline>
    <contour>
      <point x="249" y="181" type="curve" smooth="yes" name="hr00"/>
      <point x="249" y="159"/>
      <point x="242" y="141"/>
      <point x="229" y="128" type="curve" smooth="yes"/>
      <point x="214" y="113"/>
      <point x="193" y="105"/>
      <point x="165" y="105" type="curve" smooth="yes"/>
      <point x="137" y="105"/>
      <point x="116" y="113"/>
      <point x="101" y="129" type="curve" smooth="yes"/>
      <point x="88" y="144"/>
      <point x="82" y="160"/>
      <point x="82" y="178" type="curve" smooth="yes"/>
      <point x="82" y="198"/>
      <point x="90" y="215"/>
      <point x="105" y="230" type="curve"/>
      <point x="121" y="243"/>
      <point x="140" y="250"/>
      <point x="163" y="250" type="curve" smooth="yes"/>
      <point x="187" y="250"/>
      <point x="207" y="243"/>
      <point x="223" y="230" type="curve" smooth="yes"/>
      <point x="240" y="217"/>
      <point x="249" y="200"/>
    </contour>
    <contour>
      <point x="517" y="260" type="curve" smooth="yes"/>
      <point x="517" y="205"/>
      <point x="502" y="166"/>
      <point x="472" y="141" type="curve" smooth="yes"/>
      <point x="450" y="123"/>
      <point x="422" y="114"/>
      <point x="387" y="114" type="curve" smooth="yes"/>
      <point x="362" y="114"/>
      <point x="343" y="121"/>
      <point x="328" y="135" type="curve" smooth="yes"/>
      <point x="316" y="146"/>
      <point x="308" y="163"/>
      <point x="304" y="185" type="curve" smooth="yes"/>
      <point x="297" y="217"/>
      <point x="286" y="242"/>
      <point x="270" y="259" type="curve" smooth="yes"/>
      <point x="247" y="282"/>
      <point x="215" y="293"/>
      <point x="172" y="293" type="curve" smooth="yes"/>
      <point x="126" y="293"/>
      <point x="89" y="279"/>
      <point x="61" y="250" type="curve" smooth="yes"/>
      <point x="34" y="223"/>
      <point x="21" y="187"/>
      <point x="21" y="142" type="curve" smooth="yes"/>
      <point x="21" y="102"/>
      <point x="35" y="68"/>
      <point x="62" y="40" type="curve" smooth="yes"/>
      <point x="89" y="13"/>
      <point x="122" y="-1"/>
      <point x="159" y="-1" type="curve" smooth="yes"/>
      <point x="193" y="-1"/>
      <point x="221" y="8"/>
      <point x="244" y="23" type="curve" smooth="yes"/>
      <point x="262" y="35"/>
      <point x="274" y="48"/>
      <point x="281" y="65" type="curve"/>
      <point x="286" y="48"/>
      <point x="298" y="33"/>
      <point x="317" y="20" type="curve" smooth="yes"/>
      <point x="338" y="6"/>
      <point x="364" y="-1"/>
      <point x="396" y="-1" type="curve" smooth="yes"/>
      <point x="455" y="-1"/>
      <point x="499" y="20"/>
      <point x="527" y="63" type="curve" smooth="yes"/>
      <point x="556" y="107"/>
      <point x="571" y="172"/>
      <point x="571" y="259" type="curve" smooth="yes"/>
      <point x="571" y="324"/>
      <point x="555" y="377"/>
      <point x="522" y="420" type="curve" smooth="yes"/>
      <point x="489" y="463"/>
      <point x="446" y="484"/>
      <point x="395" y="484" type="curve" smooth="yes"/>
      <point x="368" y="484"/>
      <point x="346" y="478"/>
      <point x="327" y="466" type="curve" smooth="yes"/>
      <point x="310" y="456"/>
      <point x="299" y="442"/>
      <point x="294" y="425" type="curve"/>
      <point x="285" y="444"/>
      <point x="269" y="459"/>
      <point x="247" y="468" type="curve"/>
      <point x="226" y="479"/>
      <point x="202" y="485"/>
      <point x="173" y="485" type="curve" smooth="yes"/>
      <point x="128" y="485"/>
      <point x="91" y="472"/>
      <point x="64" y="447" type="curve" smooth="yes"/>
      <point x="40" y="423"/>
      <point x="28" y="396"/>
      <point x="28" y="366" type="curve" smooth="yes"/>
      <point x="28" y="347"/>
      <point x="32" y="333"/>
      <point x="39" y="323" type="curve" smooth="yes"/>
      <point x="48" y="312"/>
      <point x="58" y="307"/>
      <point x="71" y="307" type="curve" smooth="yes"/>
      <point x="104" y="307"/>
      <point x="123" y="326"/>
      <point x="126" y="364" type="curve" smooth="yes"/>
      <point x="129" y="409"/>
      <point x="154" y="431"/>
      <point x="199" y="431" type="curve" smooth="yes"/>
      <point x="219" y="431"/>
      <point x="235" y="425"/>
      <point x="246" y="414" type="curve" smooth="yes"/>
      <point x="256" y="405"/>
      <point x="261" y="394"/>
      <point x="261" y="381" type="curve" smooth="yes"/>
      <point x="261" y="372"/>
      <point x="264" y="364"/>
      <point x="270" y="357" type="curve" smooth="yes"/>
      <point x="275" y="351"/>
      <point x="281" y="348"/>
      <point x="288" y="348" type="curve" smooth="yes"/>
      <point x="301" y="348"/>
      <point x="309" y="351"/>
      <point x="314" y="356" type="curve" smooth="yes"/>
      <point x="318" y="359"/>
      <point x="320" y="368"/>
      <point x="320" y="381" type="curve" smooth="yes"/>
      <point x="320" y="395"/>
      <point x="327" y="407"/>
      <point x="340" y="417" type="curve" smooth="yes"/>
      <point x="353" y="426"/>
      <point x="368" y="430"/>
      <point x="387" y="430" type="curve" smooth="yes"/>
      <point x="428" y="430"/>
      <point x="461" y="411"/>
      <point x="485" y="374" type="curve" smooth="yes"/>
      <point x="506" y="342"/>
      <point x="517" y="304"/>
    </contour>
  </outline>
</glyph>
<glyph name="uni0C13" format="1">
  <advance width="600"/>
  <unicode hex="0C13"/>
  <outline>
    <contour>
      <point x="564" y="155" type="curve" smooth="yes" name="hr00"/>
      <point x="564" y="193"/>
      <point x="554" y="224"/>
      <point x="536" y="247" type="curve" smooth="yes"/>
      <point x="524" y="262"/>
      <point x="511" y="273"/>
      <point x="496" y="280" type="curve"/>
      <point x="494" y="280"/>
      <point x="492" y="281"/>
      <point x="489" y="283" type="curve"/>
      <point x="483" y="283" type="line" smooth="yes"/>
      <point x="480" y="283"/>
      <point x="477" y="282"/>
      <point x="475" y="280" type="curve" smooth="yes"/>
      <point x="471" y="278"/>
      <point x="469" y="276"/>
      <point x="469" y="273" type="curve" smooth="yes"/>
      <point x="469" y="272"/>
      <point x="469" y="272"/>
      <point x="469" y="272" type="curve"/>
      <point x="469" y="271"/>
      <point x="469" y="270"/>
      <point x="470" y="270" type="curve"/>
      <point x="485" y="250"/>
      <point x="492" y="226"/>
      <point x="492" y="198" type="curve" smooth="yes"/>
      <point x="492" y="176"/>
      <point x="484" y="156"/>
      <point x="468" y="139" type="curve" smooth="yes"/>
      <point x="451" y="121"/>
      <point x="430" y="112"/>
      <point x="404" y="112" type="curve" smooth="yes"/>
      <point x="376" y="112"/>
      <point x="355" y="118"/>
      <point x="342" y="131" type="curve" smooth="yes"/>
      <point x="327" y="145"/>
      <point x="320" y="163"/>
      <point x="320" y="186" type="curve" smooth="yes"/>
      <point x="320" y="195"/>
      <point x="319" y="202"/>
      <point x="317" y="208" type="curve"/>
      <point x="313" y="213"/>
      <point x="309" y="215"/>
      <point x="304" y="215" type="curve" smooth="yes"/>
      <point x="297" y="215"/>
      <point x="291" y="213"/>
      <point x="288" y="208" type="curve"/>
      <point x="287" y="204"/>
      <point x="287" y="199"/>
      <point x="287" y="192" type="curve" smooth="yes"/>
      <point x="287" y="167"/>
      <point x="276" y="147"/>
      <point x="253" y="131" type="curve" smooth="yes"/>
      <point x="233" y="116"/>
      <point x="214" y="108"/>
      <point x="195" y="108" type="curve" smooth="yes"/>
      <point x="162" y="108"/>
      <point x="139" y="111"/>
      <point x="125" y="117" type="curve"/>
      <point x="102" y="124"/>
      <point x="91" y="138"/>
      <point x="91" y="159" type="curve" smooth="yes"/>
      <point x="91" y="186"/>
      <point x="118" y="208"/>
      <point x="173" y="225" type="curve" smooth="yes"/>
      <point x="256" y="250"/>
      <point x="297" y="291"/>
      <point x="297" y="348" type="curve" smooth="yes"/>
      <point x="297" y="378"/>
      <point x="288" y="402"/>
      <point x="271" y="421" type="curve" smooth="yes"/>
      <point x="253" y="440"/>
      <point x="229" y="452"/>
      <point x="199" y="457" type="curve"/>
      <point x="192" y="462"/>
      <point x="187" y="468"/>
      <point x="182" y="475" type="curve" smooth="yes"/>
      <point x="176" y="484"/>
      <point x="173" y="494"/>
      <point x="173" y="505" type="curve" smooth="yes"/>
      <point x="173" y="528"/>
      <point x="180" y="544"/>
      <point x="195" y="553" type="curve"/>
      <point x="206" y="562"/>
      <point x="222" y="566"/>
      <point x="241" y="566" type="curve" smooth="yes"/>
      <point x="260" y="566"/>
      <point x="276" y="562"/>
      <point x="287" y="553" type="curve" smooth="yes"/>
      <point x="298" y="544"/>
      <point x="304" y="530"/>
      <point x="304" y="511" type="curve" smooth="yes"/>
      <point x="304" y="500"/>
      <point x="303" y="491"/>
      <point x="300" y="484" type="curve"/>
      <point x="320" y="479" type="line"/>
      <point x="330" y="490"/>
      <point x="338" y="501"/>
      <point x="344" y="511" type="curve"/>
      <point x="348" y="521"/>
      <point x="350" y="532"/>
      <point x="350" y="543" type="curve" smooth="yes"/>
      <point x="350" y="572"/>
      <point x="341" y="597"/>
      <point x="321" y="616" type="curve" smooth="yes"/>
      <point x="300" y="637"/>
      <point x="269" y="646"/>
      <point x="231" y="646" type="curve" smooth="yes"/>
      <point x="195" y="646"/>
      <point x="167" y="637"/>
      <point x="146" y="619" type="curve" smooth="yes"/>
      <point x="126" y="602"/>
      <point x="116" y="579"/>
      <point x="116" y="550" type="curve" smooth="yes"/>
      <point x="116" y="534"/>
      <point x="118" y="520"/>
      <point x="121" y="508" type="curve" smooth="yes"/>
      <point x="126" y="490"/>
      <point x="135" y="473"/>
      <point x="148" y="458" type="curve"/>
      <point x="117" y="455"/>
      <point x="90" y="446"/>
      <point x="67" y="430" type="curve" smooth="yes"/>
      <point x="41" y="411"/>
      <point x="28" y="386"/>
      <point x="28" y="356" type="curve" smooth="yes"/>
      <point x="28" y="339"/>
      <point x="33" y="325"/>
      <point x="44" y="313" type="curve" smooth="yes"/>
      <point x="55" y="302"/>
      <point x="68" y="296"/>
      <point x="82" y="296" type="curve" smooth="yes"/>
      <point x="100" y="296"/>
      <point x="113" y="300"/>
      <point x="122" y="307" type="curve" smooth="yes"/>
      <point x="129" y="312"/>
      <point x="132" y="319"/>
      <point x="132" y="330" type="curve" smooth="yes"/>
      <point x="132" y="335"/>
      <point x="130" y="342"/>
      <point x="126" y="351" type="curve" smooth="yes"/>
      <point x="123" y="358"/>
      <point x="121" y="363"/>
      <point x="121" y="366" type="curve" smooth="yes"/>
      <point x="121" y="381"/>
      <point x="128" y="391"/>
      <point x="143" y="398" type="curve" smooth="yes"/>
      <point x="154" y="403"/>
      <point x="167" y="405"/>
      <point x="182" y="405" type="curve" smooth="yes"/>
      <point x="202" y="405"/>
      <point x="218" y="400"/>
      <point x="229" y="391" type="curve" smooth="yes"/>
      <point x="244" y="380"/>
      <point x="251" y="362"/>
      <point x="251" y="338" type="curve" smooth="yes"/>
      <point x="251" y="321"/>
      <point x="241" y="304"/>
      <point x="220" y="289" type="curve" smooth="yes"/>
      <point x="201" y="275"/>
      <point x="181" y="267"/>
      <point x="159" y="263" type="curve" smooth="yes"/>
      <point x="119" y="255"/>
      <point x="90" y="247"/>
      <point x="71" y="235" type="curve" smooth="yes"/>
      <point x="38" y="213"/>
      <point x="21" y="178"/>
      <point x="21" y="131" type="curve" smooth="yes"/>
      <point x="21" y="91"/>
      <point x="37" y="58"/>
      <point x="68" y="33" type="curve" smooth="yes"/>
      <point x="95" y="11"/>
      <point x="128" y="0"/>
      <point x="166" y="0" type="curve" smooth="yes"/>
      <point x="202" y="0"/>
      <point x="232" y="8"/>
      <point x="257" y="23" type="curve" smooth="yes"/>
      <point x="273" y="32"/>
      <point x="287" y="46"/>
      <point x="298" y="65" type="curve"/>
      <point x="307" y="49"/>
      <point x="320" y="36"/>
      <point x="337" y="26" type="curve" smooth="yes"/>
      <point x="360" y="13"/>
      <point x="387" y="6"/>
      <point x="419" y="6" type="curve" smooth="yes"/>
      <point x="459" y="6"/>
      <point x="493" y="19"/>
      <point x="522" y="48" type="curve" smooth="yes"/>
      <point x="551" y="77"/>
      <point x="564" y="112"/>
    </contour>
  </outline>
</glyph>
<glyph name="uni0C14" format="1">
  <advance width="605"/>
  <unicode hex="0C14"/>
  <outline>
    <contour>
      <point x="446" y="472" type="curve" smooth="yes" name="hr00"/>
      <point x="461" y="472"/>
      <point x="474" y="467"/>
      <point x="483" y="458" type="curve" smooth="yes"/>
      <point x="494" y="449"/>
      <point x="499" y="439"/>
      <point x="499" y="428" type="curve" smooth="yes"/>
      <point x="499" y="408"/>
      <point x="493" y="393"/>
      <point x="480" y="383" type="curve" smooth="yes"/>
      <point x="471" y="375"/>
      <point x="459" y="371"/>
      <point x="446" y="371" type="curve" smooth="yes"/>
      <point x="429" y="371"/>
      <point x="416" y="376"/>
      <point x="406" y="385" type="curve" smooth="yes"/>
      <point x="396" y="395"/>
      <point x="391" y="408"/>
      <point x="391" y="425" type="curve" smooth="yes"/>
      <point x="391" y="438"/>
      <point x="396" y="449"/>
      <point x="406" y="458" type="curve" smooth="yes"/>
      <point x="416" y="467"/>
      <point x="429" y="472"/>
    </contour>
    <contour>
      <point x="436" y="536" type="line" smooth="yes"/>
      <point x="457" y="536"/>
      <point x="476" y="532"/>
      <point x="492" y="521" type="curve" smooth="yes"/>
      <point x="510" y="509"/>
      <point x="519" y="492"/>
      <point x="519" y="471" type="curve"/>
      <point x="508" y="483"/>
      <point x="496" y="493"/>
      <point x="483" y="501" type="curve"/>
      <point x="471" y="506"/>
      <point x="457" y="509"/>
      <point x="441" y="509" type="curve" smooth="yes"/>
      <point x="408" y="509"/>
      <point x="383" y="500"/>
      <point x="364" y="481" type="curve" smooth="yes"/>
      <point x="345" y="461"/>
      <point x="335" y="434"/>
      <point x="335" y="400" type="curve" smooth="yes"/>
      <point x="335" y="371"/>
      <point x="346" y="346"/>
      <point x="367" y="326" type="curve" smooth="yes"/>
      <point x="388" y="306"/>
      <point x="414" y="296"/>
      <point x="446" y="296" type="curve" smooth="yes"/>
      <point x="481" y="296"/>
      <point x="509" y="309"/>
      <point x="530" y="334" type="curve" smooth="yes"/>
      <point x="551" y="361"/>
      <point x="561" y="397"/>
      <point x="561" y="444" type="curve" smooth="yes"/>
      <point x="561" y="490"/>
      <point x="550" y="528"/>
      <point x="529" y="559" type="curve" smooth="yes"/>
      <point x="502" y="597"/>
      <point x="461" y="616"/>
      <point x="406" y="616" type="curve" smooth="yes"/>
      <point x="69" y="616" type="line" smooth="yes"/>
      <point x="53" y="616"/>
      <point x="41" y="613"/>
      <point x="34" y="606" type="curve" smooth="yes"/>
      <point x="25" y="599"/>
      <point x="21" y="588"/>
      <point x="21" y="573" type="curve" smooth="yes"/>
      <point x="21" y="560"/>
      <point x="26" y="550"/>
      <point x="37" y="543" type="curve" smooth="yes"/>
      <point x="44" y="538"/>
      <point x="55" y="536"/>
      <point x="69" y="536" type="curve" smooth="yes"/>
      <point x="220" y="536" type="line" smooth="yes"/>
      <point x="227" y="536"/>
      <point x="234" y="532"/>
      <point x="240" y="523" type="curve" smooth="yes"/>
      <point x="245" y="515"/>
      <point x="247" y="507"/>
      <point x="247" y="498" type="curve" smooth="yes"/>
      <point x="247" y="487"/>
      <point x="244" y="478"/>
      <point x="237" y="471" type="curve" smooth="yes"/>
      <point x="230" y="463"/>
      <point x="223" y="459"/>
      <point x="214" y="459" type="curve" smooth="yes"/>
      <point x="74" y="459" type="line" smooth="yes"/>
      <point x="70" y="459"/>
      <point x="67" y="458"/>
      <point x="64" y="455" type="curve" smooth="yes"/>
      <point x="62" y="452"/>
      <point x="61" y="448"/>
      <point x="61" y="441" type="curve" smooth="yes"/>
      <point x="61" y="438"/>
      <point x="61" y="435"/>
      <point x="62" y="432" type="curve" smooth="yes"/>
      <point x="63" y="429"/>
      <point x="66" y="428"/>
      <point x="69" y="428" type="curve"/>
      <point x="58" y="419"/>
      <point x="49" y="408"/>
      <point x="44" y="395" type="curve"/>
      <point x="37" y="383"/>
      <point x="34" y="370"/>
      <point x="34" y="356" type="curve" smooth="yes"/>
      <point x="34" y="339"/>
      <point x="40" y="325"/>
      <point x="51" y="313" type="curve" smooth="yes"/>
      <point x="62" y="302"/>
      <point x="75" y="296"/>
      <point x="88" y="296" type="curve" smooth="yes"/>
      <point x="107" y="296"/>
      <point x="120" y="300"/>
      <point x="129" y="307" type="curve" smooth="yes"/>
      <point x="136" y="312"/>
      <point x="139" y="319"/>
      <point x="139" y="330" type="curve" smooth="yes"/>
      <point x="139" y="335"/>
      <point x="137" y="342"/>
      <point x="132" y="351" type="curve" smooth="yes"/>
      <point x="128" y="358"/>
      <point x="126" y="363"/>
      <point x="126" y="366" type="curve" smooth="yes"/>
      <point x="126" y="381"/>
      <point x="134" y="391"/>
      <point x="150" y="398" type="curve" smooth="yes"/>
      <point x="161" y="403"/>
      <point x="174" y="405"/>
      <point x="189" y="405" type="curve" smooth="yes"/>
      <point x="209" y="405"/>
      <point x="225" y="400"/>
      <point x="237" y="391" type="curve" smooth="yes"/>
      <point x="252" y="380"/>
      <point x="259" y="362"/>
      <point x="259" y="338" type="curve" smooth="yes"/>
      <point x="259" y="321"/>
      <point x="248" y="304"/>
      <point x="227" y="289" type="curve" smooth="yes"/>
      <point x="208" y="275"/>
      <point x="188" y="267"/>
      <point x="165" y="263" type="curve" smooth="yes"/>
      <point x="125" y="255"/>
      <point x="95" y="247"/>
      <point x="76" y="235" type="curve" smooth="yes"/>
      <point x="44" y="213"/>
      <point x="28" y="178"/>
      <point x="28" y="131" type="curve" smooth="yes"/>
      <point x="28" y="91"/>
      <point x="43" y="58"/>
      <point x="74" y="33" type="curve" smooth="yes"/>
      <point x="102" y="11"/>
      <point x="135" y="0"/>
      <point x="172" y="0" type="curve" smooth="yes"/>
      <point x="209" y="0"/>
      <point x="239" y="9"/>
      <point x="263" y="23" type="curve" smooth="yes"/>
      <point x="280" y="33"/>
      <point x="293" y="46"/>
      <point x="304" y="65" type="curve"/>
      <point x="313" y="49"/>
      <point x="326" y="36"/>
      <point x="344" y="26" type="curve" smooth="yes"/>
      <point x="366" y="13"/>
      <point x="393" y="6"/>
      <point x="425" y="6" type="curve" smooth="yes"/>
      <point x="466" y="6"/>
      <point x="500" y="20"/>
      <point x="527" y="48" type="curve" smooth="yes"/>
      <point x="556" y="77"/>
      <point x="570" y="112"/>
      <point x="570" y="155" type="curve" smooth="yes"/>
      <point x="570" y="193"/>
      <point x="561" y="224"/>
      <point x="543" y="247" type="curve" smooth="yes"/>
      <point x="532" y="262"/>
      <point x="518" y="273"/>
      <point x="502" y="280" type="curve"/>
      <point x="501" y="280"/>
      <point x="499" y="281"/>
      <point x="496" y="283" type="curve"/>
      <point x="489" y="283" type="line" smooth="yes"/>
      <point x="486" y="283"/>
      <point x="483" y="282"/>
      <point x="480" y="280" type="curve" smooth="yes"/>
      <point x="477" y="278"/>
      <point x="475" y="276"/>
      <point x="475" y="273" type="curve" smooth="yes"/>
      <point x="475" y="272"/>
      <point x="475" y="272"/>
      <point x="475" y="272" type="curve"/>
      <point x="475" y="271"/>
      <point x="475" y="270"/>
      <point x="476" y="270" type="curve"/>
      <point x="490" y="250"/>
      <point x="497" y="226"/>
      <point x="497" y="198" type="curve" smooth="yes"/>
      <point x="497" y="176"/>
      <point x="490" y="156"/>
      <point x="475" y="139" type="curve" smooth="yes"/>
      <point x="458" y="121"/>
      <point x="436" y="112"/>
      <point x="411" y="112" type="curve" smooth="yes"/>
      <point x="383" y="112"/>
      <point x="362" y="118"/>
      <point x="348" y="131" type="curve" smooth="yes"/>
      <point x="334" y="144"/>
      <point x="327" y="163"/>
      <point x="327" y="186" type="curve" smooth="yes"/>
      <point x="327" y="195"/>
      <point x="326" y="202"/>
      <point x="323" y="208" type="curve"/>
      <point x="319" y="213"/>
      <point x="315" y="215"/>
      <point x="311" y="215" type="curve" smooth="yes"/>
      <point x="304" y="215"/>
      <point x="298" y="213"/>
      <point x="295" y="208" type="curve"/>
      <point x="294" y="204"/>
      <point x="293" y="199"/>
      <point x="293" y="192" type="curve" smooth="yes"/>
      <point x="293" y="167"/>
      <point x="282" y="147"/>
      <point x="259" y="131" type="curve" smooth="yes"/>
      <point x="239" y="116"/>
      <point x="220" y="108"/>
      <point x="202" y="108" type="curve" smooth="yes"/>
      <point x="169" y="108"/>
      <point x="146" y="112"/>
      <point x="131" y="117" type="curve" smooth="yes"/>
      <point x="109" y="125"/>
      <point x="98" y="138"/>
      <point x="98" y="159" type="curve" smooth="yes"/>
      <point x="98" y="186"/>
      <point x="125" y="208"/>
      <point x="180" y="225" type="curve" smooth="yes"/>
      <point x="263" y="250"/>
      <point x="304" y="291"/>
      <point x="304" y="348" type="curve" smooth="yes"/>
      <point x="304" y="366"/>
      <point x="300" y="382"/>
      <point x="293" y="395" type="curve"/>
      <point x="287" y="410"/>
      <point x="278" y="422"/>
      <point x="266" y="431" type="curve"/>
      <point x="275" y="438"/>
      <point x="283" y="447"/>
      <point x="288" y="458" type="curve" smooth="yes"/>
      <point x="293" y="469"/>
      <point x="295" y="481"/>
      <point x="295" y="492" type="curve" smooth="yes"/>
      <point x="295" y="499"/>
      <point x="295" y="507"/>
      <point x="291" y="515" type="curve"/>
      <point x="289" y="524"/>
      <point x="286" y="531"/>
      <point x="281" y="536" type="curve"/>
    </contour>
  </outline>
</glyph>
<glyph name="uni0C15" format="1">
  <advance width="524"/>
  <unicode hex="0C15"/>
  <outline>
    <contour>
      <point x="310" y="434" type="curve" name="hr00"/>
      <point x="329" y="448"/>
      <point x="350" y="465"/>
      <point x="374" y="485" type="curve" smooth="yes"/>
      <point x="402" y="509" type="line"/>
      <point x="432" y="530" type="line" smooth="yes"/>
      <point x="472" y="558"/>
      <point x="489" y="588"/>
      <point x="489" y="613" type="curve" smooth="yes"/>
      <point x="489" y="629"/>
      <point x="483" y="642"/>
      <point x="472" y="653" type="curve" smooth="yes"/>
      <point x="461" y="663"/>
      <point x="448" y="668"/>
      <point x="432" y="668" type="curve" smooth="yes"/>
      <point x="418" y="668"/>
      <point x="407" y="666"/>
      <point x="398" y="661" type="curve" smooth="yes"/>
      <point x="387" y="654"/>
      <point x="377" y="642"/>
      <point x="367" y="623" type="curve" smooth="yes"/>
      <point x="350" y="590" type="line" smooth="yes"/>
      <point x="299" y="490"/>
      <point x="253" y="441"/>
      <point x="220" y="441" type="curve" smooth="yes"/>
      <point x="201" y="441"/>
      <point x="183" y="459"/>
      <point x="167" y="496" type="curve" smooth="yes"/>
      <point x="149" y="536"/>
      <point x="131" y="556"/>
      <point x="108" y="556" type="curve" smooth="yes"/>
      <point x="93" y="556"/>
      <point x="81" y="552"/>
      <point x="71" y="543" type="curve"/>
      <point x="58" y="534"/>
      <point x="52" y="519"/>
      <point x="52" y="498" type="curve" smooth="yes"/>
      <point x="52" y="469"/>
      <point x="73" y="443"/>
      <point x="116" y="420" type="curve"/>
      <point x="116" y="420"/>
      <point x="117" y="419"/>
      <point x="118" y="418" type="curve"/>
      <point x="95" y="407" type="line" smooth="yes"/>
      <point x="48" y="385"/>
      <point x="28" y="346"/>
      <point x="28" y="302" type="curve" smooth="yes"/>
      <point x="28" y="259"/>
      <point x="44" y="229"/>
      <point x="76" y="210" type="curve" smooth="yes"/>
      <point x="103" y="195"/>
      <point x="139" y="187"/>
      <point x="185" y="188" type="curve" smooth="yes"/>
      <point x="241" y="189" type="line" smooth="yes"/>
      <point x="270" y="190"/>
      <point x="295" y="184"/>
      <point x="318" y="174" type="curve" smooth="yes"/>
      <point x="349" y="161"/>
      <point x="364" y="142"/>
      <point x="364" y="117" type="curve" smooth="yes"/>
      <point x="364" y="98"/>
      <point x="354" y="79"/>
      <point x="330" y="65" type="curve" smooth="yes"/>
      <point x="309" y="52"/>
      <point x="286" y="47"/>
      <point x="264" y="47" type="curve" smooth="yes"/>
      <point x="208" y="47"/>
      <point x="164" y="72"/>
      <point x="133" y="121" type="curve" smooth="yes"/>
      <point x="115" y="150"/>
      <point x="97" y="164"/>
      <point x="78" y="164" type="curve" smooth="yes"/>
      <point x="65" y="164"/>
      <point x="52" y="160"/>
      <point x="41" y="152" type="curve" smooth="yes"/>
      <point x="28" y="143"/>
      <point x="21" y="131"/>
      <point x="21" y="115" type="curve" smooth="yes"/>
      <point x="21" y="77"/>
      <point x="43" y="47"/>
      <point x="86" y="27" type="curve" smooth="yes"/>
      <point x="127" y="8"/>
      <point x="182" y="0"/>
      <point x="250" y="0" type="curve" smooth="yes"/>
      <point x="301" y="0"/>
      <point x="348" y="14"/>
      <point x="394" y="40" type="curve" smooth="yes"/>
      <point x="448" y="71"/>
      <point x="476" y="111"/>
      <point x="476" y="162" type="curve" smooth="yes"/>
      <point x="476" y="199"/>
      <point x="458" y="228"/>
      <point x="423" y="249" type="curve" smooth="yes"/>
      <point x="392" y="267"/>
      <point x="354" y="276"/>
      <point x="307" y="276" type="curve" smooth="yes"/>
      <point x="291" y="276" type="line"/>
      <point x="259" y="274" type="line" smooth="yes"/>
      <point x="219" y="272"/>
      <point x="188" y="277"/>
      <point x="167" y="283" type="curve" smooth="yes"/>
      <point x="134" y="292"/>
      <point x="118" y="309"/>
      <point x="118" y="336" type="curve" smooth="yes"/>
      <point x="118" y="354"/>
      <point x="129" y="368"/>
      <point x="150" y="377" type="curve" smooth="yes"/>
      <point x="167" y="384"/>
      <point x="189" y="388"/>
      <point x="216" y="388" type="curve" smooth="yes"/>
      <point x="257" y="388"/>
      <point x="290" y="372"/>
      <point x="317" y="341" type="curve" smooth="yes"/>
      <point x="340" y="316"/>
      <point x="365" y="303"/>
      <point x="394" y="303" type="curve" smooth="yes"/>
      <point x="405" y="303"/>
      <point x="415" y="306"/>
      <point x="423" y="313" type="curve"/>
      <point x="435" y="320"/>
      <point x="441" y="330"/>
      <point x="441" y="344" type="curve" smooth="yes"/>
      <point x="441" y="366"/>
      <point x="423" y="387"/>
      <point x="387" y="407" type="curve" smooth="yes"/>
      <point x="364" y="419"/>
      <point x="338" y="428"/>
    </contour>
  </outline>
</glyph>
<glyph name="uni0C17" format="1">
  <advance width="564"/>
  <unicode hex="0C17"/>
  <outline>
    <contour>
      <point x="342" y="432" type="curve" name="hr00"/>
      <point x="361" y="447"/>
      <point x="382" y="465"/>
      <point x="406" y="485" type="curve" smooth="yes"/>
      <point x="435" y="509" type="line"/>
      <point x="465" y="530" type="line" smooth="yes"/>
      <point x="506" y="559"/>
      <point x="523" y="588"/>
      <point x="523" y="613" type="curve" smooth="yes"/>
      <point x="523" y="629"/>
      <point x="517" y="642"/>
      <point x="506" y="653" type="curve" smooth="yes"/>
      <point x="495" y="663"/>
      <point x="481" y="668"/>
      <point x="465" y="668" type="curve" smooth="yes"/>
      <point x="452" y="668"/>
      <point x="441" y="666"/>
      <point x="432" y="661" type="curve" smooth="yes"/>
      <point x="421" y="654"/>
      <point x="410" y="642"/>
      <point x="399" y="623" type="curve"/>
      <point x="384" y="590" type="line" smooth="yes"/>
      <point x="338" y="488"/>
      <point x="287" y="441"/>
      <point x="254" y="441" type="curve" smooth="yes"/>
      <point x="235" y="441"/>
      <point x="218" y="459"/>
      <point x="202" y="496" type="curve" smooth="yes"/>
      <point x="185" y="536"/>
      <point x="165" y="556"/>
      <point x="142" y="556" type="curve" smooth="yes"/>
      <point x="127" y="556"/>
      <point x="114" y="552"/>
      <point x="105" y="543" type="curve"/>
      <point x="92" y="534"/>
      <point x="86" y="519"/>
      <point x="86" y="498" type="curve" smooth="yes"/>
      <point x="86" y="469"/>
      <point x="107" y="443"/>
      <point x="149" y="420" type="curve"/>
      <point x="151" y="418"/>
      <point x="153" y="417"/>
      <point x="155" y="417" type="curve"/>
      <point x="130" y="404"/>
      <point x="107" y="387"/>
      <point x="86" y="366" type="curve" smooth="yes"/>
      <point x="43" y="320"/>
      <point x="21" y="264"/>
      <point x="21" y="198" type="curve" smooth="yes"/>
      <point x="21" y="139"/>
      <point x="29" y="93"/>
      <point x="41" y="60" type="curve" smooth="yes"/>
      <point x="53" y="27"/>
      <point x="70" y="7"/>
      <point x="94" y="0" type="curve" smooth="yes"/>
      <point x="97" y="-1"/>
      <point x="107" y="0"/>
      <point x="122" y="0" type="curve" smooth="yes"/>
      <point x="142" y="0" type="line" smooth="yes"/>
      <point x="153" y="0"/>
      <point x="163" y="8"/>
      <point x="172" y="23" type="curve" smooth="yes"/>
      <point x="181" y="37"/>
      <point x="185" y="50"/>
      <point x="185" y="61" type="curve" smooth="yes"/>
      <point x="185" y="90"/>
      <point x="174" y="118"/>
      <point x="152" y="146" type="curve" smooth="yes"/>
      <point x="126" y="179"/>
      <point x="113" y="213"/>
      <point x="113" y="250" type="curve" smooth="yes"/>
      <point x="113" y="290"/>
      <point x="127" y="323"/>
      <point x="156" y="348" type="curve" smooth="yes"/>
      <point x="187" y="375"/>
      <point x="226" y="388"/>
      <point x="274" y="388" type="curve" smooth="yes"/>
      <point x="323" y="388"/>
      <point x="363" y="375"/>
      <point x="394" y="348" type="curve" smooth="yes"/>
      <point x="422" y="323"/>
      <point x="436" y="290"/>
      <point x="436" y="250" type="curve" smooth="yes"/>
      <point x="436" y="213"/>
      <point x="424" y="179"/>
      <point x="399" y="146" type="curve" smooth="yes"/>
      <point x="378" y="118"/>
      <point x="367" y="90"/>
      <point x="367" y="61" type="curve" smooth="yes"/>
      <point x="367" y="50"/>
      <point x="370" y="37"/>
      <point x="378" y="23" type="curve" smooth="yes"/>
      <point x="386" y="8"/>
      <point x="397" y="0"/>
      <point x="409" y="0" type="curve" smooth="yes"/>
      <point x="449" y="0" type="line"/>
      <point x="476" y="5"/>
      <point x="495" y="24"/>
      <point x="507" y="58" type="curve"/>
      <point x="522" y="91"/>
      <point x="529" y="138"/>
      <point x="529" y="198" type="curve" smooth="yes"/>
      <point x="529" y="263"/>
      <point x="505" y="318"/>
      <point x="459" y="366" type="curve" smooth="yes"/>
      <point x="426" y="399"/>
      <point x="388" y="422"/>
    </contour>
  </outline>
</glyph>
<glyph name="uni0C19" format="1">
  <advance width="600"/>
  <unicode hex="0C19"/>
  <outline>
    <contour>
      <point x="510" y="360" type="line" name="hr00"/>
      <point x="392" y="360" type="line"/>
      <point x="404" y="377" type="line" smooth="yes"/>
      <point x="420" y="399"/>
      <point x="429" y="414"/>
      <point x="429" y="425" type="curve" smooth="yes"/>
      <point x="429" y="436"/>
      <point x="425" y="445"/>
      <point x="416" y="454" type="curve" smooth="yes"/>
      <point x="408" y="463"/>
      <point x="398" y="468"/>
      <point x="387" y="468" type="curve" smooth="yes"/>
      <point x="374" y="468"/>
      <point x="363" y="465"/>
      <point x="355" y="458" type="curve" smooth="yes"/>
      <point x="346" y="451"/>
      <point x="342" y="440"/>
      <point x="342" y="425" type="curve" smooth="yes"/>
      <point x="342" y="414"/>
      <point x="351" y="397"/>
      <point x="368" y="375" type="curve"/>
      <point x="374" y="369"/>
      <point x="378" y="364"/>
      <point x="379" y="360" type="curve"/>
      <point x="295" y="360" type="line"/>
      <point x="292" y="392"/>
      <point x="280" y="417"/>
      <point x="257" y="434" type="curve" smooth="yes"/>
      <point x="234" y="451"/>
      <point x="201" y="459"/>
      <point x="160" y="459" type="curve" smooth="yes"/>
      <point x="127" y="459"/>
      <point x="99" y="451"/>
      <point x="74" y="435" type="curve" smooth="yes"/>
      <point x="43" y="415"/>
      <point x="28" y="389"/>
      <point x="28" y="356" type="curve" smooth="yes"/>
      <point x="28" y="339"/>
      <point x="33" y="325"/>
      <point x="44" y="313" type="curve" smooth="yes"/>
      <point x="55" y="302"/>
      <point x="68" y="296"/>
      <point x="82" y="296" type="curve" smooth="yes"/>
      <point x="100" y="296"/>
      <point x="113" y="300"/>
      <point x="122" y="307" type="curve" smooth="yes"/>
      <point x="129" y="312"/>
      <point x="132" y="319"/>
      <point x="132" y="330" type="curve" smooth="yes"/>
      <point x="132" y="335"/>
      <point x="130" y="342"/>
      <point x="126" y="351" type="curve" smooth="yes"/>
      <point x="123" y="358"/>
      <point x="121" y="363"/>
      <point x="121" y="366" type="curve" smooth="yes"/>
      <point x="121" y="381"/>
      <point x="128" y="391"/>
      <point x="143" y="398" type="curve" smooth="yes"/>
      <point x="154" y="403"/>
      <point x="167" y="405"/>
      <point x="182" y="405" type="curve" smooth="yes"/>
      <point x="202" y="405"/>
      <point x="218" y="400"/>
      <point x="229" y="391" type="curve" smooth="yes"/>
      <point x="244" y="380"/>
      <point x="251" y="362"/>
      <point x="251" y="338" type="curve" smooth="yes"/>
      <point x="251" y="321"/>
      <point x="241" y="304"/>
      <point x="220" y="289" type="curve" smooth="yes"/>
      <point x="201" y="275"/>
      <point x="181" y="267"/>
      <point x="159" y="263" type="curve" smooth="yes"/>
      <point x="119" y="255"/>
      <point x="90" y="247"/>
      <point x="71" y="235" type="curve" smooth="yes"/>
      <point x="38" y="213"/>
      <point x="21" y="178"/>
      <point x="21" y="131" type="curve" smooth="yes"/>
      <point x="21" y="91"/>
      <point x="37" y="58"/>
      <point x="68" y="33" type="curve" smooth="yes"/>
      <point x="95" y="11"/>
      <point x="128" y="0"/>
      <point x="166" y="0" type="curve" smooth="yes"/>
      <point x="202" y="0"/>
      <point x="232" y="8"/>
      <point x="257" y="23" type="curve" smooth="yes"/>
      <point x="273" y="32"/>
      <point x="287" y="46"/>
      <point x="298" y="65" type="curve"/>
      <point x="308" y="48"/>
      <point x="321" y="34"/>
      <point x="337" y="23" type="curve" smooth="yes"/>
      <point x="360" y="8"/>
      <point x="387" y="0"/>
      <point x="419" y="0" type="curve" smooth="yes"/>
      <point x="459" y="0"/>
      <point x="493" y="15"/>
      <point x="522" y="46" type="curve" smooth="yes"/>
      <point x="550" y="76"/>
      <point x="564" y="112"/>
      <point x="564" y="155" type="curve" smooth="yes"/>
      <point x="564" y="193"/>
      <point x="554" y="224"/>
      <point x="536" y="247" type="curve" smooth="yes"/>
      <point x="524" y="262"/>
      <point x="511" y="273"/>
      <point x="496" y="280" type="curve"/>
      <point x="494" y="280"/>
      <point x="492" y="281"/>
      <point x="489" y="283" type="curve"/>
      <point x="483" y="283" type="line" smooth="yes"/>
      <point x="480" y="283"/>
      <point x="477" y="282"/>
      <point x="475" y="280" type="curve" smooth="yes"/>
      <point x="471" y="278"/>
      <point x="469" y="276"/>
      <point x="469" y="273" type="curve" smooth="yes"/>
      <point x="469" y="272"/>
      <point x="469" y="272"/>
      <point x="469" y="272" type="curve"/>
      <point x="469" y="271"/>
      <point x="469" y="270"/>
      <point x="470" y="270" type="curve"/>
      <point x="485" y="250"/>
      <point x="492" y="226"/>
      <point x="492" y="198" type="curve" smooth="yes"/>
      <point x="492" y="176"/>
      <point x="484" y="156"/>
      <point x="468" y="139" type="curve" smooth="yes"/>
      <point x="451" y="121"/>
      <point x="430" y="112"/>
      <point x="404" y="112" type="curve" smooth="yes"/>
      <point x="376" y="112"/>
      <point x="355" y="118"/>
      <point x="342" y="131" type="curve" smooth="yes"/>
      <point x="327" y="145"/>
      <point x="320" y="163"/>
      <point x="320" y="186" type="curve" smooth="yes"/>
      <point x="320" y="195"/>
      <point x="319" y="202"/>
      <point x="317" y="208" type="curve"/>
      <point x="313" y="213"/>
      <point x="309" y="215"/>
      <point x="304" y="215" type="curve" smooth="yes"/>
      <point x="297" y="215"/>
      <point x="291" y="213"/>
      <point x="288" y="208" type="curve"/>
      <point x="287" y="204"/>
      <point x="287" y="199"/>
      <point x="287" y="192" type="curve" smooth="yes"/>
      <point x="287" y="167"/>
      <point x="276" y="147"/>
      <point x="253" y="131" type="curve" smooth="yes"/>
      <point x="233" y="116"/>
      <point x="214" y="108"/>
      <point x="195" y="108" type="curve" smooth="yes"/>
      <point x="162" y="108"/>
      <point x="139" y="111"/>
      <point x="125" y="117" type="curve"/>
      <point x="102" y="124"/>
      <point x="91" y="138"/>
      <point x="91" y="159" type="curve" smooth="yes"/>
      <point x="91" y="186"/>
      <point x="118" y="208"/>
      <point x="173" y="225" type="curve" smooth="yes"/>
      <point x="240" y="245"/>
      <point x="280" y="273"/>
      <point x="291" y="309" type="curve"/>
      <point x="510" y="309" type="line"/>
    </contour>
  </outline>
</glyph>
<glyph name="uni0C1D" format="1">
  <advance width="1069"/>
  <unicode hex="0C1D"/>
  <outline>
    <contour>
      <point x="149" y="417" type="line" name="hr00"/>
      <point x="125" y="406"/>
      <point x="104" y="392"/>
      <point x="86" y="374" type="curve" smooth="yes"/>
      <point x="43" y="333"/>
      <point x="21" y="280"/>
      <point x="21" y="215" type="curve" smooth="yes"/>
      <point x="21" y="155"/>
      <point x="43" y="105"/>
      <point x="86" y="65" type="curve" smooth="yes"/>
      <point x="132" y="22"/>
      <point x="193" y="0"/>
      <point x="268" y="0" type="curve" smooth="yes"/>
      <point x="339" y="0"/>
      <point x="396" y="22"/>
      <point x="441" y="65" type="curve"/>
      <point x="455" y="81" type="line"/>
      <point x="462" y="69"/>
      <point x="470" y="58"/>
      <point x="480" y="47" type="curve" smooth="yes"/>
      <point x="509" y="16"/>
      <point x="546" y="0"/>
      <point x="590" y="0" type="curve" smooth="yes"/>
      <point x="653" y="0"/>
      <point x="700" y="27"/>
      <point x="731" y="80" type="curve" smooth="yes"/>
      <point x="733" y="83"/>
      <point x="735" y="86"/>
      <point x="736" y="91" type="curve"/>
      <point x="741" y="69"/>
      <point x="750" y="52"/>
      <point x="762" y="37" type="curve" smooth="yes"/>
      <point x="785" y="11"/>
      <point x="816" y="-3"/>
      <point x="857" y="-3" type="curve" smooth="yes"/>
      <point x="921" y="-3"/>
      <point x="967" y="24"/>
      <point x="998" y="78" type="curve" smooth="yes"/>
      <point x="1021" y="118"/>
      <point x="1034" y="168"/>
      <point x="1034" y="228" type="curve" smooth="yes"/>
      <point x="1034" y="281"/>
      <point x="1017" y="329"/>
      <point x="982" y="373" type="curve" smooth="yes"/>
      <point x="946" y="418"/>
      <point x="905" y="441"/>
      <point x="860" y="441" type="curve" smooth="yes"/>
      <point x="845" y="441"/>
      <point x="833" y="438"/>
      <point x="825" y="432" type="curve"/>
      <point x="814" y="427"/>
      <point x="809" y="418"/>
      <point x="809" y="407" type="curve" smooth="yes"/>
      <point x="809" y="394"/>
      <point x="813" y="386"/>
      <point x="820" y="381" type="curve" smooth="yes"/>
      <point x="828" y="376"/>
      <point x="843" y="373"/>
      <point x="864" y="373" type="curve" smooth="yes"/>
      <point x="900" y="373"/>
      <point x="931" y="362"/>
      <point x="953" y="336" type="curve" smooth="yes"/>
      <point x="975" y="311"/>
      <point x="984" y="282"/>
      <point x="984" y="247" type="curve" smooth="yes"/>
      <point x="984" y="216"/>
      <point x="974" y="187"/>
      <point x="953" y="159" type="curve" smooth="yes"/>
      <point x="929" y="125"/>
      <point x="897" y="108"/>
      <point x="856" y="108" type="curve" smooth="yes"/>
      <point x="825" y="108"/>
      <point x="800" y="117"/>
      <point x="779" y="135" type="curve" smooth="yes"/>
      <point x="770" y="142"/>
      <point x="764" y="150"/>
      <point x="759" y="159" type="curve"/>
      <point x="763" y="180"/>
      <point x="765" y="203"/>
      <point x="765" y="228" type="curve" smooth="yes"/>
      <point x="765" y="281"/>
      <point x="748" y="329"/>
      <point x="714" y="373" type="curve" smooth="yes"/>
      <point x="678" y="418"/>
      <point x="637" y="441"/>
      <point x="591" y="441" type="curve" smooth="yes"/>
      <point x="574" y="441"/>
      <point x="563" y="440"/>
      <point x="556" y="437" type="curve" smooth="yes"/>
      <point x="547" y="432"/>
      <point x="542" y="424"/>
      <point x="542" y="412" type="curve" smooth="yes"/>
      <point x="542" y="401"/>
      <point x="545" y="394"/>
      <point x="551" y="393" type="curve"/>
      <point x="558" y="390"/>
      <point x="573" y="388"/>
      <point x="597" y="388" type="curve" smooth="yes"/>
      <point x="632" y="388"/>
      <point x="661" y="373"/>
      <point x="684" y="343" type="curve" smooth="yes"/>
      <point x="705" y="314"/>
      <point x="716" y="282"/>
      <point x="716" y="247" type="curve" smooth="yes"/>
      <point x="716" y="214"/>
      <point x="708" y="185"/>
      <point x="692" y="159" type="curve" smooth="yes"/>
      <point x="671" y="125"/>
      <point x="640" y="108"/>
      <point x="601" y="108" type="curve" smooth="yes"/>
      <point x="560" y="108"/>
      <point x="529" y="120"/>
      <point x="506" y="144" type="curve"/>
      <point x="496" y="158" type="line"/>
      <point x="500" y="176"/>
      <point x="502" y="195"/>
      <point x="502" y="215" type="curve" smooth="yes"/>
      <point x="502" y="278"/>
      <point x="482" y="331"/>
      <point x="441" y="374" type="curve" smooth="yes"/>
      <point x="412" y="403"/>
      <point x="378" y="422"/>
      <point x="338" y="432" type="curve"/>
      <point x="357" y="447"/>
      <point x="379" y="464"/>
      <point x="404" y="485" type="curve" smooth="yes"/>
      <point x="432" y="509" type="line"/>
      <point x="462" y="530" type="line" smooth="yes"/>
      <point x="502" y="558"/>
      <point x="519" y="588"/>
      <point x="519" y="613" type="curve" smooth="yes"/>
      <point x="519" y="629"/>
      <point x="513" y="642"/>
      <point x="502" y="653" type="curve" smooth="yes"/>
      <point x="491" y="663"/>
      <point x="478" y="668"/>
      <point x="462" y="668" type="curve" smooth="yes"/>
      <point x="448" y="668"/>
      <point x="437" y="666"/>
      <point x="428" y="661" type="curve" smooth="yes"/>
      <point x="417" y="654"/>
      <point x="406" y="643"/>
      <point x="396" y="623" type="curve" smooth="yes"/>
      <point x="379" y="590" type="line" smooth="yes"/>
      <point x="328" y="490"/>
      <point x="283" y="441"/>
      <point x="250" y="441" type="curve" smooth="yes"/>
      <point x="231" y="441"/>
      <point x="213" y="459"/>
      <point x="197" y="496" type="curve" smooth="yes"/>
      <point x="179" y="536"/>
      <point x="161" y="556"/>
      <point x="138" y="556" type="curve" smooth="yes"/>
      <point x="123" y="556"/>
      <point x="111" y="552"/>
      <point x="101" y="543" type="curve"/>
      <point x="88" y="534"/>
      <point x="82" y="519"/>
      <point x="82" y="498" type="curve" smooth="yes"/>
      <point x="82" y="469"/>
      <point x="103" y="443"/>
      <point x="146" y="420" type="curve"/>
    </contour>
    <contour>
      <point x="778" y="-118" type="curve"/>
      <point x="787" y="-107"/>
      <point x="792" y="-95"/>
      <point x="792" y="-80" type="curve" smooth="yes"/>
      <point x="792" y="-65"/>
      <point x="787" y="-47"/>
      <point x="778" y="-28" type="curve"/>
      <point x="767" y="-12"/>
      <point x="755" y="3"/>
      <point x="742" y="18" type="curve"/>
      <point x="735" y="24" type="line"/>
      <point x="719" y="6"/>
      <point x="707" y="-10"/>
      <point x="698" y="-23" type="curve" smooth="yes"/>
      <point x="684" y="-43"/>
      <point x="677" y="-62"/>
      <point x="677" y="-80" type="curve" smooth="yes"/>
      <point x="677" y="-99"/>
      <point x="683" y="-112"/>
      <point x="695" y="-121" type="curve"/>
      <point x="704" y="-130"/>
      <point x="718" y="-134"/>
      <point x="735" y="-134" type="curve" smooth="yes"/>
      <point x="753" y="-134"/>
      <point x="767" y="-129"/>
    </contour>
    <contour>
      <point x="387" y="353" type="curve" smooth="yes"/>
      <point x="418" y="329"/>
      <point x="433" y="297"/>
      <point x="433" y="260" type="curve" smooth="yes"/>
      <point x="433" y="219"/>
      <point x="419" y="184"/>
      <point x="391" y="155" type="curve" smooth="yes"/>
      <point x="360" y="122"/>
      <point x="319" y="105"/>
      <point x="268" y="105" type="curve" smooth="yes"/>
      <point x="213" y="105"/>
      <point x="170" y="119"/>
      <point x="139" y="148" type="curve" smooth="yes"/>
      <point x="114" y="173"/>
      <point x="101" y="204"/>
      <point x="101" y="243" type="curve" smooth="yes"/>
      <point x="101" y="287"/>
      <point x="115" y="322"/>
      <point x="143" y="348" type="curve" smooth="yes"/>
      <point x="174" y="375"/>
      <point x="215" y="388"/>
      <point x="268" y="388" type="curve" smooth="yes"/>
      <point x="316" y="388"/>
      <point x="356" y="377"/>
    </contour>
  </outline>
</glyph>
<glyph name="uni0C1F" format="1">
  <advance width="625"/>
  <unicode hex="0C1F"/>
  <outline>
    <contour>
      <point x="241" y="565" type="curve" smooth="yes" name="hr00"/>
      <point x="241" y="580"/>
      <point x="236" y="592"/>
      <point x="227" y="603" type="curve" smooth="yes"/>
      <point x="217" y="614"/>
      <point x="203" y="619"/>
      <point x="185" y="619" type="curve" smooth="yes"/>
      <point x="168" y="619"/>
      <point x="154" y="615"/>
      <point x="143" y="606" type="curve" smooth="yes"/>
      <point x="132" y="597"/>
      <point x="126" y="584"/>
      <point x="126" y="566" type="curve" smooth="yes"/>
      <point x="126" y="548"/>
      <point x="133" y="529"/>
      <point x="146" y="508" type="curve" smooth="yes"/>
      <point x="155" y="495"/>
      <point x="168" y="479"/>
      <point x="185" y="461" type="curve"/>
      <point x="190" y="468" type="line"/>
      <point x="205" y="482"/>
      <point x="217" y="497"/>
      <point x="226" y="513" type="curve" smooth="yes"/>
      <point x="236" y="533"/>
      <point x="241" y="550"/>
    </contour>
    <contour>
      <point x="590" y="230" type="curve" smooth="yes"/>
      <point x="590" y="281"/>
      <point x="574" y="326"/>
      <point x="544" y="368" type="curve" smooth="yes"/>
      <point x="510" y="416"/>
      <point x="470" y="441"/>
      <point x="419" y="441" type="curve" smooth="yes"/>
      <point x="405" y="441"/>
      <point x="394" y="438"/>
      <point x="387" y="431" type="curve" smooth="yes"/>
      <point x="378" y="424"/>
      <point x="374" y="413"/>
      <point x="374" y="398" type="curve" smooth="yes"/>
      <point x="374" y="385"/>
      <point x="379" y="375"/>
      <point x="389" y="368" type="curve" smooth="yes"/>
      <point x="399" y="361"/>
      <point x="410" y="358"/>
      <point x="422" y="358" type="curve" smooth="yes"/>
      <point x="451" y="358"/>
      <point x="477" y="349"/>
      <point x="500" y="331" type="curve" smooth="yes"/>
      <point x="526" y="310"/>
      <point x="539" y="283"/>
      <point x="539" y="250" type="curve" smooth="yes"/>
      <point x="539" y="204"/>
      <point x="526" y="169"/>
      <point x="499" y="145" type="curve" smooth="yes"/>
      <point x="476" y="125"/>
      <point x="449" y="115"/>
      <point x="416" y="115" type="curve" smooth="yes"/>
      <point x="391" y="115"/>
      <point x="369" y="121"/>
      <point x="352" y="132" type="curve" smooth="yes"/>
      <point x="333" y="143"/>
      <point x="324" y="158"/>
      <point x="324" y="178" type="curve" smooth="yes"/>
      <point x="324" y="185"/>
      <point x="323" y="192"/>
      <point x="320" y="198" type="curve"/>
      <point x="316" y="201"/>
      <point x="312" y="203"/>
      <point x="308" y="203" type="curve" smooth="yes"/>
      <point x="303" y="203"/>
      <point x="300" y="201"/>
      <point x="297" y="198" type="curve" smooth="yes"/>
      <point x="294" y="193"/>
      <point x="293" y="187"/>
      <point x="293" y="178" type="curve" smooth="yes"/>
      <point x="293" y="160"/>
      <point x="282" y="144"/>
      <point x="261" y="131" type="curve" smooth="yes"/>
      <point x="244" y="120"/>
      <point x="226" y="115"/>
      <point x="206" y="115" type="curve" smooth="yes"/>
      <point x="156" y="115"/>
      <point x="122" y="131"/>
      <point x="101" y="161" type="curve" smooth="yes"/>
      <point x="85" y="185"/>
      <point x="75" y="218"/>
      <point x="75" y="263" type="curve" smooth="yes"/>
      <point x="75" y="281"/>
      <point x="80" y="305"/>
      <point x="91" y="334" type="curve"/>
      <point x="96" y="304"/>
      <point x="110" y="282"/>
      <point x="133" y="267" type="curve"/>
      <point x="150" y="258"/>
      <point x="168" y="253"/>
      <point x="186" y="253" type="curve" smooth="yes"/>
      <point x="216" y="253"/>
      <point x="242" y="262"/>
      <point x="264" y="280" type="curve" smooth="yes"/>
      <point x="288" y="300"/>
      <point x="300" y="325"/>
      <point x="300" y="356" type="curve" smooth="yes"/>
      <point x="300" y="386"/>
      <point x="288" y="411"/>
      <point x="264" y="430" type="curve" smooth="yes"/>
      <point x="243" y="448"/>
      <point x="220" y="457"/>
      <point x="193" y="457" type="curve" smooth="yes"/>
      <point x="136" y="457"/>
      <point x="93" y="432"/>
      <point x="61" y="383" type="curve" smooth="yes"/>
      <point x="35" y="343"/>
      <point x="21" y="298"/>
      <point x="21" y="247" type="curve" smooth="yes"/>
      <point x="21" y="168"/>
      <point x="35" y="106"/>
      <point x="64" y="63" type="curve" smooth="yes"/>
      <point x="93" y="20"/>
      <point x="135" y="-1"/>
      <point x="190" y="-1" type="curve" smooth="yes"/>
      <point x="217" y="-1"/>
      <point x="240" y="5"/>
      <point x="259" y="17" type="curve" smooth="yes"/>
      <point x="274" y="26"/>
      <point x="289" y="39"/>
      <point x="304" y="58" type="curve"/>
      <point x="313" y="41"/>
      <point x="329" y="28"/>
      <point x="350" y="17" type="curve" smooth="yes"/>
      <point x="373" y="6"/>
      <point x="396" y="0"/>
      <point x="419" y="0" type="curve" smooth="yes"/>
      <point x="483" y="0"/>
      <point x="530" y="27"/>
      <point x="559" y="82" type="curve" smooth="yes"/>
      <point x="580" y="121"/>
      <point x="590" y="171"/>
    </contour>
    <contour>
      <point x="125" y="366" type="curve" smooth="yes"/>
      <point x="125" y="379"/>
      <point x="130" y="389"/>
      <point x="140" y="398" type="curve" smooth="yes"/>
      <point x="151" y="407"/>
      <point x="163" y="412"/>
      <point x="177" y="412" type="curve" smooth="yes"/>
      <point x="194" y="412"/>
      <point x="207" y="408"/>
      <point x="216" y="401" type="curve" smooth="yes"/>
      <point x="227" y="392"/>
      <point x="233" y="381"/>
      <point x="233" y="366" type="curve" smooth="yes"/>
      <point x="233" y="351"/>
      <point x="227" y="340"/>
      <point x="216" y="333" type="curve"/>
      <point x="207" y="325"/>
      <point x="194" y="321"/>
      <point x="177" y="321" type="curve" smooth="yes"/>
      <point x="163" y="321"/>
      <point x="151" y="325"/>
      <point x="140" y="334" type="curve" smooth="yes"/>
      <point x="130" y="343"/>
      <point x="125" y="354"/>
    </contour>
  </outline>
</glyph>
<glyph name="uni0C20" format="1">
  <advance width="554"/>
  <unicode hex="0C20"/>
  <outline>
    <contour>
      <point x="338" y="432" type="curve" name="hr00"/>
      <point x="357" y="447"/>
      <point x="379" y="464"/>
      <point x="404" y="485" type="curve" smooth="yes"/>
      <point x="432" y="509" type="line"/>
      <point x="462" y="530" type="line" smooth="yes"/>
      <point x="502" y="558"/>
      <point x="519" y="588"/>
      <point x="519" y="613" type="curve" smooth="yes"/>
      <point x="519" y="629"/>
      <point x="513" y="642"/>
      <point x="502" y="653" type="curve" smooth="yes"/>
      <point x="491" y="663"/>
      <point x="478" y="668"/>
      <point x="462" y="668" type="curve" smooth="yes"/>
      <point x="448" y="668"/>
      <point x="437" y="666"/>
      <point x="428" y="661" type="curve" smooth="yes"/>
      <point x="417" y="654"/>
      <point x="406" y="643"/>
      <point x="396" y="623" type="curve" smooth="yes"/>
      <point x="379" y="590" type="line" smooth="yes"/>
      <point x="328" y="490"/>
      <point x="283" y="441"/>
      <point x="250" y="441" type="curve" smooth="yes"/>
      <point x="231" y="441"/>
      <point x="213" y="459"/>
      <point x="197" y="496" type="curve" smooth="yes"/>
      <point x="179" y="536"/>
      <point x="161" y="556"/>
      <point x="138" y="556" type="curve" smooth="yes"/>
      <point x="123" y="556"/>
      <point x="111" y="552"/>
      <point x="101" y="543" type="curve"/>
      <point x="88" y="534"/>
      <point x="82" y="519"/>
      <point x="82" y="498" type="curve" smooth="yes"/>
      <point x="82" y="469"/>
      <point x="103" y="443"/>
      <point x="146" y="420" type="curve"/>
      <point x="149" y="417" type="line"/>
      <point x="125" y="406"/>
      <point x="104" y="392"/>
      <point x="86" y="374" type="curve" smooth="yes"/>
      <point x="43" y="333"/>
      <point x="21" y="280"/>
      <point x="21" y="215" type="curve" smooth="yes"/>
      <point x="21" y="155"/>
      <point x="43" y="105"/>
      <point x="86" y="65" type="curve" smooth="yes"/>
      <point x="132" y="22"/>
      <point x="193" y="0"/>
      <point x="268" y="0" type="curve" smooth="yes"/>
      <point x="339" y="0"/>
      <point x="396" y="22"/>
      <point x="441" y="65" type="curve" smooth="yes"/>
      <point x="482" y="106"/>
      <point x="502" y="156"/>
      <point x="502" y="215" type="curve" smooth="yes"/>
      <point x="502" y="278"/>
      <point x="482" y="331"/>
      <point x="441" y="374" type="curve" smooth="yes"/>
      <point x="412" y="403"/>
      <point x="378" y="422"/>
    </contour>
    <contour>
      <point x="381" y="353" type="curve" smooth="yes"/>
      <point x="413" y="328"/>
      <point x="429" y="297"/>
      <point x="429" y="260" type="curve" smooth="yes"/>
      <point x="429" y="219"/>
      <point x="415" y="184"/>
      <point x="387" y="155" type="curve" smooth="yes"/>
      <point x="356" y="122"/>
      <point x="314" y="105"/>
      <point x="263" y="105" type="curve" smooth="yes"/>
      <point x="202" y="105"/>
      <point x="158" y="120"/>
      <point x="131" y="151" type="curve" smooth="yes"/>
      <point x="109" y="176"/>
      <point x="98" y="210"/>
      <point x="98" y="255" type="curve" smooth="yes"/>
      <point x="98" y="294"/>
      <point x="111" y="326"/>
      <point x="140" y="350" type="curve" smooth="yes"/>
      <point x="170" y="376"/>
      <point x="212" y="388"/>
      <point x="263" y="388" type="curve" smooth="yes"/>
      <point x="310" y="388"/>
      <point x="350" y="376"/>
    </contour>
    <contour>
      <point x="300" y="238" type="curve"/>
      <point x="309" y="248"/>
      <point x="314" y="259"/>
      <point x="314" y="270" type="curve" smooth="yes"/>
      <point x="314" y="283"/>
      <point x="309" y="294"/>
      <point x="300" y="303" type="curve" smooth="yes"/>
      <point x="289" y="312"/>
      <point x="278" y="316"/>
      <point x="266" y="316" type="curve" smooth="yes"/>
      <point x="253" y="316"/>
      <point x="243" y="312"/>
      <point x="234" y="303" type="curve" smooth="yes"/>
      <point x="225" y="294"/>
      <point x="220" y="283"/>
      <point x="220" y="270" type="curve" smooth="yes"/>
      <point x="220" y="259"/>
      <point x="225" y="248"/>
      <point x="234" y="238" type="curve" smooth="yes"/>
      <point x="243" y="228"/>
      <point x="253" y="223"/>
      <point x="266" y="223" type="curve" smooth="yes"/>
      <point x="278" y="223"/>
      <point x="289" y="228"/>
    </contour>
  </outline>
</glyph>
